<svg xmlns="http://www.w3.org/2000/svg" viewBox="0 0 266.33 507"><title>资源 11111234</title><g id="图层_2" data-name="图层 2"><g id="图层_1-2" data-name="图层 1"><path d="M82.75,7s-25,4-40,21c-9.19,10.42-17,38-19,49s-3,40-2,51c1.25,13.7,5,49,5,66s1,114,1,114-2,86,0,107c1.43,15.06.13,20.32,6,35,6,15,21.63,34.57,26,37,18,10,51,20,75,20,22,0,63.91-8.15,78-24,16-18,27-45,28-53s1-29,0-46-.33-30-1-40c-1-15-4-117-1-137,2.83-18.89,3-38,4-53s1-54-2-72-9-40-16-51c-6.83-10.74-20-17-31-21-10.38-3.77-41-10-61-10C119.75,0,82.75,7,82.75,7Z" style="fill:#e80235"/><path d="M187.75,463c.28-1.38.78-5.29,2-6a78.69,78.69,0,0,1,8-3c1.9-.63,26.21-10.11,28-11,2-1,4,0,3,4s-8,23-13,29c-4.53,5.43-18,12-26,13s-8-3-6-10C185.25,473.74,186.81,467.54,187.75,463Z" style="fill:aqua"/><path d="M81,463c-.29-1.38-.81-5.29-2.07-6a83.23,83.23,0,0,0-8.28-3c-2-.63-27.13-10.11-29-11-2.07-1-4.14,0-3.1,4S46.81,470,52,476c4.69,5.43,18.63,12,26.91,13s8.28-3,6.21-10C83.54,473.74,81.93,467.54,81,463Z" style="fill:aqua"/><path d="M59.88,363.09c-.58,0-1.08.33-1,.91,1,6.45,8,42.57,9.87,49,2,7,7,30,9,33,2.83,4.24,36,9,55,9s35.5-2.5,43.5-4.5,11.5-2.5,13.5-3.5,2-2,4-10,3-16,4-22c.89-5.31,2.5-11.5,3.5-16.5s5.12-29.61,6-34c.5-2.5-.5-2.5-2.5-.5-3.54,3.54-18,15-26,19a202.91,202.91,0,0,1-26,11c-7.85,2.62-30.56,3.12-42-2-12.06-5.4-36.4-17.77-41-22S61.75,363,59.88,363.09Z" style="fill:#34302c"/><path d="M58.75,361s-9-12-11-15a118.39,118.39,0,0,1-6-11,13.78,13.78,0,0,1-1-10c1-4,1-10,1-12s-1-7-1-12-1-43.93-1-51,.11-30.69,1-36c1-6,0-9,6-15,3-3,7-11,7-19V169c0-3,3-5.75,6-6,7.19-.6,130.92-1,137-1s12,0,14,4,1,9,2,16,1,12,5,15c5.12,3.84,6,9,7,15a125,125,0,0,1,2,20c0,8.87.09,45.68,0,62,0,5.1-1,12-1,16s.39,11.16,2,16c1,3-2,8-4,11-1.75,2.63-7,12-11,17-3.64,4.55-5,7-9,11-7,7-29,21-46,27s-36,3-44,1c-7.76-1.94-35-18-39-20C71.06,371.16,58.75,361,58.75,361Z" style="fill:#010101"/><path d="M83.75,36c4-2,22-7,47-7,20,0,36.5,2.5,43.5,4.5s10.5,5.5,10.5,2.5-1.5-14.5-1.5-19.5-.5-8.5-.5-9.5-18.5-3.5-26.5-4.5-18-3.2-30.51-2.1S92,4.18,87.75,6s-6,.9-6,6-1.5,14.5-1.5,18.5-.5,7.5,1.5,6.5Z" style="fill:#25231f"/><path d="M48.75,324c2-6,3.42-11.06,5-15,2-5,3-8,9.5-8.5,7-.54,24.43.14,30.5.5,8.5.5,65,0,72,0s34-2,38-1c6.51,1.63,10,8,13,14,2.61,5.22,9,19,6,25s-12.54,18.56-15.5,22.14c-6.5,7.86-29.5,22.86-41.5,27.86-12.38,5.16-37.53,11.48-57.27,2-18.73-9-42.73-22-48.73-29s-14-19-14-21A75.5,75.5,0,0,1,48.75,324Z" style="fill:none"/><path d="M54.57,319.82a5,5,0,0,1,4.3-2.79c5.93-.23,15-.12,16.75.11,3.63.48,4.73,1.73,5,3.86s.63,3.13,5,3,11.88.76,20.13,1c3.91.11,38.88,3.17,44.75-.62,11-7.09,25.55-6,37-2.5,9.5,2.88,18.08,1.72,22.62,1.52,3.05-.13,9.13,3.1,9.51,5.23a18.56,18.56,0,0,1-1.49,10.53c-1.61,3.24-14.87,20.72-25,28.59s-32.89,19.1-42.87,20.62c-12.38,1.89-26.25,2.63-38-2.12-13-5.25-22.81-12-32.15-17.87-8-5-13.93-9.11-20.68-16-3.75-3.85-3.14-2.28-7.42-9s-2.69-8.47-1.5-13.37A44,44,0,0,1,54.57,319.82Z" style="fill:#1e2321"/><path d="M119.13,325.25a3.48,3.48,0,0,0-1.49,2.32c-.23,2.1,2.54,11.08,4.11,13.43,2,3,5.77,2.9,7,1,2.54-3.92,3.69-12.1,4-14.12a2.83,2.83,0,0,0-1.33-2.92c-1.81-1.31-3.42-1.63-6.17-1.62A9.82,9.82,0,0,0,119.13,325.25Z" style="fill:#343a35"/><path d="M135.59,325.25a3.48,3.48,0,0,0-1.49,2.32c-.23,2.1,2.54,11.08,4.11,13.43,2,3,5.77,2.9,7,1,2.54-3.92,3.69-12.1,4-14.12a2.83,2.83,0,0,0-1.33-2.92c-1.81-1.31-3.42-1.63-6.17-1.62A9.82,9.82,0,0,0,135.59,325.25Z" style="fill:#343a35"/><path d="M62,321.89a3.48,3.48,0,0,0-1.49,2.32c-.23,2.1,2.54,11.08,4.11,13.43,2,3,5.77,2.9,7,1,2.54-3.92,3.69-12.1,4-14.12a2.83,2.83,0,0,0-1.33-2.92c-1.81-1.31-3.42-1.63-6.17-1.62A9.82,9.82,0,0,0,62,321.89Z" style="fill:#343a35"/><path d="M192.56,321.89a3.48,3.48,0,0,0-1.49,2.32c-.23,2.1,2.54,11.08,4.11,13.43,2,3,5.77,2.9,7,1,2.54-3.92,3.69-12.1,4-14.12a2.83,2.83,0,0,0-1.33-2.92c-1.81-1.31-3.42-1.63-6.17-1.62A9.82,9.82,0,0,0,192.56,321.89Z" style="fill:#343a35"/><path d="M153,320c-1.87,3.78,1,10.47,2.19,13.37a28.54,28.54,0,0,0,5.81,8.91c2.39,2.66,4.75,4,8.37,4,3.43,0,5.71-2.08,8.21-4.75s5.26-8.93,6-12.58a38.06,38.06,0,0,0,1-8.48c0-1.91-1.5-5.47-7.44-5.37-4.25.07-6.44,2.94-8.49,2.94-1.76,0-6.55-2.3-9.43-2.06C155.44,316.25,154.12,317.72,153,320Z" style="fill:#343a35"/><path d="M96.94,426a269.94,269.94,0,0,0,36.19,3.65c10.94.13,25.22-1.25,33.22-3.25s17.68-4.78,22.55-6.28,5.72-2.94,5.73,0c0,3.13-4.19,4.25-5.69,4.75s-6.35,2-13.52,3.63-23.56,5-40.77,5.14a190.47,190.47,0,0,1-39.89-4.2c-8.11-1.93-14-3.11-17.31-4.19s-3.26-2.42-4.1-5.5C72.38,416.19,90.44,424.71,96.94,426Z" style="fill:#020203"/><path d="M75.94,432.94c-.09-1.49.15-2.77,1.63-2.5,5.45,1,17.05,4,19.81,4.5,3.79.67,15.52,2.71,22.89,2.89,7.68.18,22.3.8,32-.43,10.24-1.3,22.41-4.23,28.35-5.23s10.09-3.37,11-1.56-.63,3.52-1.38,4.46-1.75,1.13-6.12,2.25-18.31,4.5-27.75,5.69-29.56,1.58-40.31.82c-10.27-.72-20.75-2.57-26.62-4.44s-9.6-2.35-11.31-3.5C76.14,434.49,76,433.17,75.94,432.94Z"/><path d="M78.63,441.44c-.57-1,.25-3,2.61-2a129.32,129.32,0,0,0,12.26,4.46,175.87,175.87,0,0,0,20.19,3.44c6.06.5,16.13,1.44,25.63,1a263.84,263.84,0,0,0,30.56-3.62A113.49,113.49,0,0,0,183.94,441c3.88-1.19,6.63-2.87,6.69-1.44a14,14,0,0,1-.81,5c-.57,1.71-.93,2.77-3.83,3.64-3.35,1-22.65,4.7-28.35,5.42-13.32,1.69-31,1.12-37.82.84-6.39-.27-31-4-33-4.82s-5.1-1.43-5.79-3.26A51.22,51.22,0,0,0,78.63,441.44Z" style="fill:#010101"/><path d="M225.67,312.17c-.09-1.54.13-2,1.5-1.33s4.77,2.32,6.83,2c3.08-.44,4.42-.69,5.08-1.94s4.58,1.58,6,1.17,2.75-2.17,3.5-3.83,2.58-2.83,7.17-4.75,6.25-2.92,7.92-3.33a2,2,0,0,1,2.5,2.75c-.67,1.75-2.83,3.33-5.42,5.75s-6.17,5.92-10.25,7.42-3.33,2.19-7.15,2.3c-6.51.19-13-.31-15.79-1.45C226.26,316.39,225.75,313.7,225.67,312.17Z" style="fill:#e80235"/><path d="M41.66,313.71c.09-1.54-.13-2-1.54-1.33s-4.89,2.32-7,2c-3.16-.44-4.53-.69-5.21-1.94s-4.7,1.58-6.15,1.17-2.82-2.17-3.59-3.83S15.54,307,10.84,305s-6.4-2.92-8.11-3.33a2.06,2.06,0,0,0-2.56,2.75c.68,1.75,2.9,3.33,5.55,5.75s6.32,5.92,10.5,7.42,3.41,2.19,7.33,2.3c6.67.19,13.36-.31,16.18-1.45C41.06,317.94,41.58,315.25,41.66,313.71Z" style="fill:#e80235"/><path d="M227.1,159.58a3.35,3.35,0,0,1,0-1c.3-3,.56-3.33,3.7-5.14,2.76-1.58,4.92-4.15,5.75-1.81s.54,4.15-.59,8-2,6.71-4.48,6.69C228.65,166.33,227.43,161.2,227.1,159.58Z" style="fill:#030101"/><path d="M37.9,161a3.33,3.33,0,0,0,0-1c-.31-3-.57-3.33-3.73-5.14-2.78-1.58-5-4.15-5.79-1.81s-.54,4.15.59,8,2,6.71,4.51,6.69C36.34,167.78,37.57,162.64,37.9,161Z" style="fill:#060000"/><path d="M50.17,192.5c.42-5.16-.12-11.34.25-18.17.33-6.19,1.3-15,2.17-22.2.89-7.37,1.14-14.78,3.5-27.22s5.08-29.25,6.58-38.42,8.25-36.5,8.58-38-20.33,63.33-21.83,70.17-7.3,36.27-7.74,41.3S40,199.33,38.75,205.5s-2.52,18.63-2,17.75c1.51-2.62,3-13.83,5.18-18.7,1.43-3.2,6.52-7.23,7-8.4S50.17,192.5,50.17,192.5Z" style="fill:#5d001a"/><path d="M214.71,190c-.41-5.16.11-11.34-.24-18.17-.33-6.19-1.27-15-2.12-22.2-.87-7.37-1.12-14.78-3.42-27.22s-5-29.25-6.44-38.42-8.07-36.5-8.39-38,19.89,63.33,21.35,70.17,7.14,36.27,7.57,41.3,1.67,39.37,2.87,45.53,2.46,18.63,2,17.75c-1.47-2.62-2.94-13.83-5.07-18.7-1.4-3.2-6.38-7.23-6.87-8.4S214.71,190,214.71,190Z" style="fill:#510016"/><path d="M74.92,162c.5-4.83-.47-20.17-.82-24.32-1.09-12.8-.63-27.21.66-42.52,1-12.35,5.35-40.64,6.5-50.33.47-4,1.7-6.66.26-4.82S68.42,87.17,67.58,97.67s-5.17,42.17-5.5,49-2,14.72-.67,16.25S74.92,162,74.92,162Z" style="fill:#5d001a"/><path d="M190.22,161.32c-.43-4.83.41-20.17.71-24.32.95-12.8.55-27.21-.57-42.52-.9-12.35-4.64-40.64-5.63-50.33-.41-4-1.47-6.66-.22-4.82S195.85,86.48,196.57,97s4.48,42.17,4.77,49,1.74,14.72.58,16.25S190.22,161.32,190.22,161.32Z" style="fill:#5d001a"/><path d="M131.64,493.75a7.39,7.39,0,0,1,4.53-.06c1,.35,1.44.87.58,2.52-1.69,3.27-3,3-4.29,1.63a7.24,7.24,0,0,1-1.6-2.6C130.54,494.27,131.64,493.75,131.64,493.75Z" style="fill:#d9e021"/><path d="M54.14,170.25a57.47,57.47,0,0,0,.09,10c.42,2.83-.4,5.58,2.85,3.83s10.08-2.46,19.17-3.83c15.42-2.33,92.08-2.25,106.75-.83,5,.48,18.33,1.17,22.5,2.42s5.5,2.58,6.08,1.17.9-6.36.6-8.67c-.5-3.83-1-9.09-3.41-10.5s-8.36-1-14.36-1.09-118.33.31-122.58.43c-3.86.1-12.77-1-15.1.92S54.14,170.25,54.14,170.25Z" style="fill:#322d2a"/><path d="M74.67,203.67c3.13-2.37,7.63-3.54,7.51-6.17s.45-5.58,2.33-6,8.93.22,13,.19,7.59-.6,8.21,2.1c.69,3,.43,3.85,2.58,5a22.1,22.1,0,0,0,6.25,2.54c3.38,1,10.11,2.44,12.24,6.82s.7,7.87.35,13c-.49,7.11.42,17.93.08,22.59s-.67,12.36-.54,19-3,21.67-6.37,25.25c-1.1,1.16-40,1.49-42-.63s-4.26-13.83-5.15-19.7c-.67-4.41,0-12.79-.5-17.33-.63-5.48-1.54-18.12-2.17-23.25S69.19,215,68.87,212.66C68.08,206.92,71.54,206,74.67,203.67Z" style="fill:#242723"/><path d="M83.58,206.44a4.6,4.6,0,0,1,2.63-3c2.16-.94,3.35-1.18,7.72-1,5.69.19,9.13-.56,11.68.28,3.1,1,4.2,1.15,6.45,6.15,2.16,4.79,5.88,9.56,4.5,11.19a91,91,0,0,0-6.62,7.88c-2,3-1.48,4.77-5.85,5.27s-9.19.36-11.56-1.52-6.39-6.28-8.89-8.33-4-2-2.87-5.67,2.13-8.37,2.63-10.37Z" style="fill:#ec0139"/><path d="M187.29,203.67c-3.09-2.37-7.55-3.54-7.43-6.17s-.45-5.58-2.3-6-8.83.22-12.82.19-7.51-.6-8.12,2.1c-.68,3-.43,3.85-2.56,5a21.73,21.73,0,0,1-6.18,2.54c-3.34,1-10,2.44-12.11,6.82s-.69,7.87-.34,13c.49,7.11-.41,17.93-.08,22.59s.66,12.36.53,19,2.93,21.67,6.31,25.25c1.09,1.16,39.53,1.49,41.57-.63s4.21-13.83,5.09-19.7c.66-4.41,0-12.79.49-17.33.62-5.48,1.53-18.12,2.14-23.25S192.71,215,193,212.66C193.8,206.92,190.38,206,187.29,203.67Z" style="fill:#242723"/><path d="M178.3,205.33a4.59,4.59,0,0,0-2.61-3c-2.14-.94-3.32-1.18-7.65-1-5.64.19-9-.56-11.57.28-3.07,1-4.16,1.15-6.39,6.15-2.14,4.79-5.82,9.56-4.46,11.19a90.81,90.81,0,0,1,6.56,7.88c2,3,1.47,4.77,5.8,5.27s9.11.36,11.46-1.52,6.34-6.28,8.81-8.33,4-2,2.85-5.67-2.11-8.37-2.6-10.37Z" style="fill:#ec0139"/><path d="M80.15,280a2.73,2.73,0,0,1,1.77-3.1c2.38-.85,5.16-1.62,6.45-3,1.63-1.75,1.5-2.37,3.88-4.87s3.12-3.41,5.78-3.57c4.37-.25,8.47-.39,9.89,1.12,1.84,1.94,2.39,3.42,4.29,5.95,1.28,1.7.87,2.13,5.75,3.87,3.16,1.13,4.22,1.87,3.47,4.34s-.87,4.5-1.25,5.25a3.57,3.57,0,0,1-3.44,2.41c-2.14-.05-31.56.94-33.31-1.44a18.22,18.22,0,0,1-3.07-6.44C80.35,280.43,80.16,280,80.15,280Z" style="fill:#ec0139"/><path d="M156.92,199.58c-1.38,9.3,4.17,17.66,8.83,23,4.87,5.54,14.13,8,20.5-1.65,5.64-8.53,8.12-15,6.14-23.9-2.13-9.59-8.46-15.54-17.74-15.53S158.45,189.23,156.92,199.58Z" style="fill:#fffbfd"/><path d="M159.35,199c1.83,3.66,9.85,7.42,16.55,7.21,6-.18,15.26-7.21,15.26-7.21,0,3,0,11.52-2,14.78-2.84,4.7-7.1,10.35-14,10.35-9.17,0-14-8.82-14.9-12.56C159.2,207.07,159.35,199,159.35,199Z" style="fill:aqua"/><path d="M192.75,220c5.82,1.6,14.61-2.74,23.75,4.31S225.65,235,228,245.5s3.41,10.14,3.35,21.42c-.06,10.43-5.16,18.26-4.77,23.38s4.77,9-2.61,14.77c-3.47,2.71-10,6.56-8.41-9.93s1.69-19.42,1.69-28.21c0-4.81,2.22-6.93-1.12-14.33-3.22-7.13-3.62-7.33-11.77-10.87-3.69-1.6,0,14.11.4,18.28s1,5.22,1,15c0,15.17-1,18-3,22-1.13,2.25-14,3-23,3-11,0-24,3-29,1-6.57-2.63-3-22-2-36,1-14.56,3.9-32.9,3.8-38.49s1.09-6.34,3.2-5.51,3.37,2.76,9.7,5.51,14.3,3.49,18.3.49S192.75,220,192.75,220Z" style="fill:#fffbfd"/><path d="M154.93,236.59c.58-3.75-4.67-13.28-8.39-13.29-7.54,0-10.77,8.31-12.41,12.51a59.43,59.43,0,0,0-3.2,25.82c.91,7.17.14,10,5.79,17.8,6.31,8.67,25.12,18.22,27.86,23.83s7.55,9.19,12.18,9.35c5.65.19,7.39-.54,5-8s-7.43-10.07-17.59-16c-6.39-3.74-6.39-9-11.88-16.82s-3.46-10.39-1.67-15.11S154.47,239.52,154.93,236.59Z" style="fill:#e6e6e6"/><path d="M41.75,312c3-5,5.16-6.31,7-10,2-4,3-8,5-12,1.61-3.22,3-5,11-4s31,3,38,3h63c12,0,33-2,39-1,6.62,1.1,8,3,11,8s10,22,11,26,1.74,4.89.87,7.45-3.08,8.3-3.87,6.55-2-11-3-14-5-10-7-14c-2.24-4.47-5-7-9-8-5.22-1.31-21,.6-27,1-15,1-92,0-105-1-4-.31-14-1-16,3a102.76,102.76,0,0,0-6.24,15.55c-1.17,4.3-3.76,17.45-4.76,20.45s-2.58-1.09-4-5-2.18-5.29-1-10a45.92,45.92,0,0,0,1-10Z" style="fill:#110f0d"/><circle cx="74.3" cy="350.36" r="8.8" style="fill:#060b0c"/><circle cx="193.14" cy="350.36" r="8.8" style="fill:#060b0c"/><path d="M207.38,221.61l-.32,5.84a2.26,2.26,0,0,0,.68,1.74,24.83,24.83,0,0,0,3.7,3.07c5.09,3.14,5.44,3.31,6.19,3.81s1.83,1.16,3-1.87a10.45,10.45,0,0,0,.75-4.85,51.4,51.4,0,0,0-7.69-6A13.92,13.92,0,0,0,207.38,221.61Z" style="fill:#afb4b8"/><path d="M139,230.52l3.28,4.83a2.41,2.41,0,0,1,.39,1.8,22.94,22.94,0,0,1-1.22,4.34c-2.23,5-2.41,5.35-2.72,6.13s-.79,1.84-3.26-.21a11.65,11.65,0,0,1-3.1-3.79,47.15,47.15,0,0,1,2.71-8.71A11.32,11.32,0,0,1,139,230.52Z" style="fill:#afb4b8"/><path d="M194.08,220.77s0-3.13,1.33-3,2.88.66,3.19,1.18-3.86,36.36-5.47,43.13c-1.51,6.34-1.72,18.28-3.89,21.5s-.08,4.86-3.11,4.57-4,.06-4.66-.53,4-6.37,4.66-13,3.29-22.5,3.88-27.5S194.08,220.77,194.08,220.77Z" style="fill:#afb4b8"/><path d="M162.39,229.53s-.83-6.66-2-6.49-4.43-1.67-4.7-1.18,2.64,11.05,3.07,17.14,6.48,39.84,8.33,42.86,1,7.44,3.63,7.16,5.18.56,5.79,0-3.67-10.12-5.66-16.54a174.18,174.18,0,0,1-4.62-22.87C165.55,243.45,162.38,229.42,162.39,229.53Z" style="fill:#afb4b8"/><ellipse cx="68.06" cy="322.33" rx="6.64" ry="2.34" style="fill:#999"/><ellipse cx="125.18" cy="325.42" rx="6.64" ry="2.34" style="fill:#999"/><ellipse cx="141.64" cy="325.42" rx="6.64" ry="2.34" style="fill:#999"/><ellipse cx="198.63" cy="322.83" rx="6.64" ry="2.34" style="fill:#999"/><ellipse cx="213.04" cy="464.3" rx="2.95" ry="1.95" style="fill:#fff"/><ellipse cx="203.71" cy="467.22" rx="2.46" ry="1.95" style="fill:#fff"/><ellipse cx="195.85" cy="470.63" rx="2.46" ry="1.46" style="fill:#fff"/><path d="M191.7,456.09l30-11.09s6.56-2.31,7-1c1,3-1,4.1-2,8-1.07,4.23-3,5-4,6s-5.78,3.37-12.66,6.3-12.77,5.85-18.66,8.77c-5.12,2.54-7,4.23-5.89,0,1-3.9,3.67-14,4.33-15.37A3.11,3.11,0,0,1,191.7,456.09Z" style="fill:#2e3192"/><ellipse cx="55.32" cy="464.3" rx="2.96" ry="1.95" style="fill:#fff"/><ellipse cx="64.69" cy="467.22" rx="2.47" ry="1.95" style="fill:#fff"/><ellipse cx="72.59" cy="470.63" rx="2.47" ry="1.46" style="fill:#fff"/><path d="M76.61,456.09,45.73,445s-6.75-2.31-7.2-1c-1,3,1,4.1,2.06,8,1.1,4.23,3.1,5,4.11,6s5.95,3.37,13,6.3,13.12,5.85,19.18,8.77c5.27,2.54,7.15,4.23,6.06,0-1-3.9-3.77-14-4.45-15.37A3.17,3.17,0,0,0,76.61,456.09Z" style="fill:#2e3192"/></g></g></svg>