<svg xmlns="http://www.w3.org/2000/svg" xmlns:xlink="http://www.w3.org/1999/xlink" viewBox="0 0 115.4 181"><defs><linearGradient id="c" y1="45.2" x2="36.4" y2="45.2" gradientUnits="userSpaceOnUse"><stop offset="0" stop-color="#0ff"/><stop offset=".5" stop-color="#2a44ff"/><stop offset="1" stop-color="#e301fe"/></linearGradient><linearGradient id="e" x1="1.3" y1="45.1" x2="37.7" y2="45.1" gradientUnits="userSpaceOnUse"><stop offset="0" stop-color="#03f7ff"/><stop offset=".5" stop-color="#3042ff"/><stop offset="1" stop-color="#e407fa"/></linearGradient><linearGradient id="f" x1="2.6" y1="45" x2="38.9" y2="45" gradientUnits="userSpaceOnUse"><stop offset="0" stop-color="#05f0ff"/><stop offset=".5" stop-color="#3540ff"/><stop offset="1" stop-color="#e40df7"/></linearGradient><linearGradient id="g" x1="3.8" y1="45" x2="40.1" y2="45" gradientUnits="userSpaceOnUse"><stop offset="0" stop-color="#08e8ff"/><stop offset=".5" stop-color="#3b3eff"/><stop offset="1" stop-color="#e512f3"/></linearGradient><linearGradient id="h" x1="4.9" y1="45" x2="41.3" y2="45" gradientUnits="userSpaceOnUse"><stop offset="0" stop-color="#0ae0ff"/><stop offset=".5" stop-color="#403cff"/><stop offset="1" stop-color="#e518f0"/></linearGradient><linearGradient id="i" x1="6" y1="44.9" x2="42.3" y2="44.9" gradientUnits="userSpaceOnUse"><stop offset="0" stop-color="#0dd8ff"/><stop offset=".5" stop-color="#463aff"/><stop offset="1" stop-color="#e61eec"/></linearGradient><linearGradient id="j" x1="7" y1="45" x2="43.4" y2="45" gradientUnits="userSpaceOnUse"><stop offset="0" stop-color="#10d1ff"/><stop offset=".5" stop-color="#4c38ff"/><stop offset="1" stop-color="#e724e9"/></linearGradient><linearGradient id="k" x1="8" y1="45" x2="44.3" y2="45" gradientUnits="userSpaceOnUse"><stop offset="0" stop-color="#12c9ff"/><stop offset=".5" stop-color="#5136ff"/><stop offset="1" stop-color="#e72ae5"/></linearGradient><linearGradient id="b" x1="8.9" y1="45" x2="45.3" y2="45" gradientUnits="userSpaceOnUse"><stop offset="0" stop-color="#15c1ff"/><stop offset=".5" stop-color="#5734ff"/><stop offset="1" stop-color="#e82fe2"/></linearGradient><linearGradient id="l" x1="9.8" y1="45.1" x2="46.1" y2="45.1" gradientUnits="userSpaceOnUse"><stop offset="0" stop-color="#17b9ff"/><stop offset=".5" stop-color="#5c31ff"/><stop offset="1" stop-color="#e835de"/></linearGradient><linearGradient id="m" x1="10.6" y1="45.2" x2="47" y2="45.2" gradientUnits="userSpaceOnUse"><stop offset="0" stop-color="#1ab2ff"/><stop offset=".5" stop-color="#622fff"/><stop offset="1" stop-color="#e93bdb"/></linearGradient><linearGradient id="n" x1="11.4" y1="45.3" x2="47.8" y2="45.3" gradientUnits="userSpaceOnUse"><stop offset="0" stop-color="#1daaff"/><stop offset=".5" stop-color="#682dff"/><stop offset="1" stop-color="#ea41d7"/></linearGradient><linearGradient id="o" x1="12.2" y1="45.5" x2="48.5" y2="45.5" gradientUnits="userSpaceOnUse"><stop offset="0" stop-color="#1fa2ff"/><stop offset=".5" stop-color="#6d2bff"/><stop offset="1" stop-color="#ea46d3"/></linearGradient><linearGradient id="p" x1="12.9" y1="45.6" x2="49.3" y2="45.6" gradientUnits="userSpaceOnUse"><stop offset="0" stop-color="#229bff"/><stop offset=".5" stop-color="#7329ff"/><stop offset="1" stop-color="#eb4cd0"/></linearGradient><linearGradient id="q" x1="13.6" y1="45.8" x2="50" y2="45.8" gradientUnits="userSpaceOnUse"><stop offset="0" stop-color="#2493ff"/><stop offset=".5" stop-color="#7827ff"/><stop offset="1" stop-color="#eb52cc"/></linearGradient><linearGradient id="r" x1="14.3" y1="46" x2="50.6" y2="46" gradientUnits="userSpaceOnUse"><stop offset="0" stop-color="#278bff"/><stop offset=".5" stop-color="#7e25ff"/><stop offset="1" stop-color="#ec58c9"/></linearGradient><linearGradient id="s" x1="14.9" y1="46.3" x2="51.3" y2="46.3" gradientUnits="userSpaceOnUse"><stop offset="0" stop-color="#2a83ff"/><stop offset=".5" stop-color="#8423ff"/><stop offset="1" stop-color="#ed5ec5"/></linearGradient><linearGradient id="t" x1="15.6" y1="46.6" x2="51.9" y2="46.6" gradientUnits="userSpaceOnUse"><stop offset="0" stop-color="#2c7cff"/><stop offset=".5" stop-color="#8921ff"/><stop offset="1" stop-color="#ed63c2"/></linearGradient><linearGradient id="u" x1="16.2" y1="46.9" x2="52.5" y2="46.9" gradientUnits="userSpaceOnUse"><stop offset="0" stop-color="#2f74ff"/><stop offset=".5" stop-color="#8f1fff"/><stop offset="1" stop-color="#ee69be"/></linearGradient><linearGradient id="v" x1="16.8" y1="47.2" x2="53.1" y2="47.2" gradientUnits="userSpaceOnUse"><stop offset="0" stop-color="#326cff"/><stop offset=".5" stop-color="#951dff"/><stop offset="1" stop-color="#ef6fbb"/></linearGradient><linearGradient id="w" x1="17.4" y1="47.5" x2="53.8" y2="47.5" gradientUnits="userSpaceOnUse"><stop offset="0" stop-color="#3464ff"/><stop offset=".5" stop-color="#9a1bff"/><stop offset="1" stop-color="#ef75b7"/></linearGradient><linearGradient id="x" x1="18" y1="47.9" x2="54.4" y2="47.9" gradientUnits="userSpaceOnUse"><stop offset="0" stop-color="#375dff"/><stop offset=".5" stop-color="#a019ff"/><stop offset="1" stop-color="#f07bb4"/></linearGradient><linearGradient id="y" x1="18.6" y1="48.4" x2="54.9" y2="48.4" gradientUnits="userSpaceOnUse"><stop offset="0" stop-color="#3955ff"/><stop offset=".5" stop-color="#a517ff"/><stop offset="1" stop-color="#f080b0"/></linearGradient><linearGradient id="z" x1="19.2" y1="48.8" x2="55.5" y2="48.8" gradientUnits="userSpaceOnUse"><stop offset="0" stop-color="#3c4dff"/><stop offset=".5" stop-color="#ab15ff"/><stop offset="1" stop-color="#f186ac"/></linearGradient><linearGradient id="A" x1="19.8" y1="49.3" x2="56.1" y2="49.3" gradientUnits="userSpaceOnUse"><stop offset="0" stop-color="#3f46ff"/><stop offset=".5" stop-color="#b113ff"/><stop offset="1" stop-color="#f28ca9"/></linearGradient><linearGradient id="a" x1="20.4" y1="49.8" x2="56.8" y2="49.8" gradientUnits="userSpaceOnUse"><stop offset="0" stop-color="#413eff"/><stop offset=".5" stop-color="#b610ff"/><stop offset="1" stop-color="#f292a5"/></linearGradient><linearGradient id="B" x1="21" y1="50.4" x2="57.4" y2="50.4" gradientUnits="userSpaceOnUse"><stop offset="0" stop-color="#4436ff"/><stop offset=".5" stop-color="#bc0eff"/><stop offset="1" stop-color="#f397a2"/></linearGradient><linearGradient id="C" x1="21.7" y1="50.9" x2="58" y2="50.9" gradientUnits="userSpaceOnUse"><stop offset="0" stop-color="#462eff"/><stop offset=".5" stop-color="#c10cff"/><stop offset="1" stop-color="#f39d9e"/></linearGradient><linearGradient id="D" x1="22.3" y1="51.5" x2="58.7" y2="51.5" gradientUnits="userSpaceOnUse"><stop offset="0" stop-color="#4927ff"/><stop offset=".5" stop-color="#c70aff"/><stop offset="1" stop-color="#f4a39b"/></linearGradient><linearGradient id="E" x1="23" y1="52.2" x2="59.4" y2="52.2" gradientUnits="userSpaceOnUse"><stop offset="0" stop-color="#4c1fff"/><stop offset=".5" stop-color="#cd08ff"/><stop offset="1" stop-color="#f5a997"/></linearGradient><linearGradient id="F" x1="23.7" y1="52.9" x2="60" y2="52.9" gradientUnits="userSpaceOnUse"><stop offset="0" stop-color="#4e17ff"/><stop offset=".5" stop-color="#d206ff"/><stop offset="1" stop-color="#f5af94"/></linearGradient><linearGradient id="G" x1="24.4" y1="53.6" x2="60.8" y2="53.6" gradientUnits="userSpaceOnUse"><stop offset="0" stop-color="#510fff"/><stop offset=".5" stop-color="#d804ff"/><stop offset="1" stop-color="#f6b490"/></linearGradient><linearGradient id="H" x1="25.2" y1="54.4" x2="61.5" y2="54.4" gradientUnits="userSpaceOnUse"><stop offset="0" stop-color="#5308ff"/><stop offset=".5" stop-color="#dd02ff"/><stop offset="1" stop-color="#f6ba8d"/></linearGradient><linearGradient id="I" x1="26" y1="55.2" x2="62.4" y2="55.2" gradientUnits="userSpaceOnUse"><stop offset="0" stop-color="#5600ff"/><stop offset=".5" stop-color="#e300ff"/><stop offset="1" stop-color="#f7c089"/></linearGradient><linearGradient id="J" x1="26.9" y1="56.1" x2="63.3" y2="56.1" gradientUnits="userSpaceOnUse"><stop offset="0" stop-color="#5309ff"/><stop offset=".5" stop-color="#dd02ff"/><stop offset="1" stop-color="#f6b98d"/></linearGradient><linearGradient id="K" x1="27.9" y1="57" x2="64.2" y2="57" gradientUnits="userSpaceOnUse"><stop offset="0" stop-color="#5012ff"/><stop offset=".5" stop-color="#d605ff"/><stop offset="1" stop-color="#f6b391"/></linearGradient><linearGradient id="L" x1="28.8" y1="57.9" x2="65.1" y2="57.9" gradientUnits="userSpaceOnUse"><stop offset="0" stop-color="#4d1aff"/><stop offset=".5" stop-color="#d007ff"/><stop offset="1" stop-color="#f5ac95"/></linearGradient><linearGradient id="M" x1="29.7" y1="58.8" x2="66.1" y2="58.8" gradientUnits="userSpaceOnUse"><stop offset="0" stop-color="#4a23ff"/><stop offset=".5" stop-color="#c909ff"/><stop offset="1" stop-color="#f4a699"/></linearGradient><linearGradient id="N" x1="30.6" y1="59.7" x2="67" y2="59.7" gradientUnits="userSpaceOnUse"><stop offset="0" stop-color="#472cff"/><stop offset=".5" stop-color="#c30cff"/><stop offset="1" stop-color="#f49f9d"/></linearGradient><linearGradient id="O" x1="31.5" y1="60.5" x2="67.9" y2="60.5" gradientUnits="userSpaceOnUse"><stop offset="0" stop-color="#4435ff"/><stop offset=".5" stop-color="#bd0eff"/><stop offset="1" stop-color="#f398a1"/></linearGradient><linearGradient id="P" x1="32.5" y1="61.4" x2="68.8" y2="61.4" xlink:href="#a"/><linearGradient id="Q" x1="33.3" y1="62.2" x2="69.7" y2="62.2" gradientUnits="userSpaceOnUse"><stop offset="0" stop-color="#3e46ff"/><stop offset=".5" stop-color="#b013ff"/><stop offset="1" stop-color="#f18ba9"/></linearGradient><linearGradient id="R" x1="34.2" y1="63.1" x2="70.6" y2="63.1" gradientUnits="userSpaceOnUse"><stop offset="0" stop-color="#3b4fff"/><stop offset=".5" stop-color="#aa15ff"/><stop offset="1" stop-color="#f185ad"/></linearGradient><linearGradient id="S" x1="35.1" y1="63.9" x2="71.5" y2="63.9" gradientUnits="userSpaceOnUse"><stop offset="0" stop-color="#3858ff"/><stop offset=".5" stop-color="#a317ff"/><stop offset="1" stop-color="#f07eb1"/></linearGradient><linearGradient id="T" x1="36" y1="64.7" x2="72.3" y2="64.7" gradientUnits="userSpaceOnUse"><stop offset="0" stop-color="#3561ff"/><stop offset=".5" stop-color="#9d1aff"/><stop offset="1" stop-color="#ef78b5"/></linearGradient><linearGradient id="U" x1="36.8" y1="65.5" x2="73.2" y2="65.5" gradientUnits="userSpaceOnUse"><stop offset="0" stop-color="#326aff"/><stop offset=".5" stop-color="#961cff"/><stop offset="1" stop-color="#ef71b9"/></linearGradient><linearGradient id="V" x1="37.6" y1="66.3" x2="74" y2="66.3" gradientUnits="userSpaceOnUse"><stop offset="0" stop-color="#2f72ff"/><stop offset=".5" stop-color="#901eff"/><stop offset="1" stop-color="#ee6abd"/></linearGradient><linearGradient id="W" x1="38.5" y1="67.2" x2="74.8" y2="67.2" gradientUnits="userSpaceOnUse"><stop offset="0" stop-color="#2c7bff"/><stop offset=".5" stop-color="#8a21ff"/><stop offset="1" stop-color="#ed64c1"/></linearGradient><linearGradient id="X" x1="39.3" y1="68" x2="75.6" y2="68" gradientUnits="userSpaceOnUse"><stop offset="0" stop-color="#2a84ff"/><stop offset=".5" stop-color="#8323ff"/><stop offset="1" stop-color="#ed5dc6"/></linearGradient><linearGradient id="Y" x1="40.1" y1="68.8" x2="76.4" y2="68.8" gradientUnits="userSpaceOnUse"><stop offset="0" stop-color="#278dff"/><stop offset=".5" stop-color="#7d26ff"/><stop offset="1" stop-color="#ec57ca"/></linearGradient><linearGradient id="Z" x1="40.8" y1="69.5" x2="77.2" y2="69.5" gradientUnits="userSpaceOnUse"><stop offset="0" stop-color="#2495ff"/><stop offset=".5" stop-color="#7728ff"/><stop offset="1" stop-color="#eb50ce"/></linearGradient><linearGradient id="aa" x1="41.6" y1="70.3" x2="77.9" y2="70.3" gradientUnits="userSpaceOnUse"><stop offset="0" stop-color="#219eff"/><stop offset=".5" stop-color="#702aff"/><stop offset="1" stop-color="#eb49d2"/></linearGradient><linearGradient id="ab" x1="42.3" y1="71.1" x2="78.6" y2="71.1" gradientUnits="userSpaceOnUse"><stop offset="0" stop-color="#1ea7ff"/><stop offset=".5" stop-color="#6a2dff"/><stop offset="1" stop-color="#ea43d6"/></linearGradient><linearGradient id="ac" x1="43" y1="71.9" x2="79.3" y2="71.9" gradientUnits="userSpaceOnUse"><stop offset="0" stop-color="#1bb0ff"/><stop offset=".5" stop-color="#632fff"/><stop offset="1" stop-color="#e93cda"/></linearGradient><linearGradient id="ad" x1="43.6" y1="72.7" x2="80" y2="72.7" gradientUnits="userSpaceOnUse"><stop offset="0" stop-color="#18b9ff"/><stop offset=".5" stop-color="#5d31ff"/><stop offset="1" stop-color="#e936de"/></linearGradient><linearGradient id="ae" x1="44.3" y1="73.5" x2="80.7" y2="73.5" xlink:href="#b"/><linearGradient id="af" x1="44.9" y1="74.3" x2="81.3" y2="74.3" gradientUnits="userSpaceOnUse"><stop offset="0" stop-color="#12caff"/><stop offset=".5" stop-color="#5036ff"/><stop offset="1" stop-color="#e729e6"/></linearGradient><linearGradient id="ag" x1="45.5" y1="75.1" x2="81.9" y2="75.1" gradientUnits="userSpaceOnUse"><stop offset="0" stop-color="#0fd3ff"/><stop offset=".5" stop-color="#4a38ff"/><stop offset="1" stop-color="#e622ea"/></linearGradient><linearGradient id="ah" x1="46.1" y1="75.9" x2="82.4" y2="75.9" gradientUnits="userSpaceOnUse"><stop offset="0" stop-color="#0cdcff"/><stop offset=".5" stop-color="#443bff"/><stop offset="1" stop-color="#e61bee"/></linearGradient><linearGradient id="ai" x1="46.6" y1="76.7" x2="83" y2="76.7" gradientUnits="userSpaceOnUse"><stop offset="0" stop-color="#09e5ff"/><stop offset=".5" stop-color="#3d3dff"/><stop offset="1" stop-color="#e515f2"/></linearGradient><linearGradient id="aj" x1="47.1" y1="77.5" x2="83.5" y2="77.5" gradientUnits="userSpaceOnUse"><stop offset="0" stop-color="#06edff"/><stop offset=".5" stop-color="#373fff"/><stop offset="1" stop-color="#e40ef6"/></linearGradient><linearGradient id="ak" x1="47.6" y1="78.3" x2="83.9" y2="78.3" gradientUnits="userSpaceOnUse"><stop offset="0" stop-color="#03f6ff"/><stop offset=".5" stop-color="#3042ff"/><stop offset="1" stop-color="#e408fa"/></linearGradient><linearGradient id="al" x1="48" y1="79.2" x2="84.3" y2="79.2" xlink:href="#c"/><linearGradient id="d" x1="79" y1="18.2" x2="115.3" y2="18.2" gradientUnits="userSpaceOnUse"><stop offset="0" stop-color="#4b21ff"/><stop offset=".5" stop-color="#cb09ff"/><stop offset="1" stop-color="#f4a798"/></linearGradient><linearGradient id="am" x1="79" y1="19.7" x2="115.4" y2="19.7" xlink:href="#d"/><linearGradient id="an" x1="79" y1="21.2" x2="115.4" y2="21.2" xlink:href="#d"/><linearGradient id="ao" x1="78.9" y1="22.5" x2="115.3" y2="22.5" xlink:href="#d"/><linearGradient id="ap" x1="78.8" y1="23.9" x2="115.2" y2="23.9" xlink:href="#d"/><linearGradient id="aq" x1="78.7" y1="25.1" x2="115" y2="25.1" xlink:href="#d"/><linearGradient id="ar" x1="78.4" y1="26.3" x2="114.8" y2="26.3" xlink:href="#d"/><linearGradient id="as" x1="78.2" y1="27.4" x2="114.5" y2="27.4" xlink:href="#d"/><linearGradient id="at" x1="77.9" y1="28.5" x2="114.2" y2="28.5" xlink:href="#d"/><linearGradient id="au" x1="77.6" y1="29.6" x2="113.9" y2="29.6" xlink:href="#d"/><linearGradient id="av" x1="77.2" y1="30.5" x2="113.5" y2="30.5" xlink:href="#d"/><linearGradient id="aw" x1="76.8" y1="31.4" x2="113.2" y2="31.4" xlink:href="#d"/><linearGradient id="ax" x1="76.4" y1="32.3" x2="112.8" y2="32.3" xlink:href="#d"/><linearGradient id="ay" x1="76" y1="33.2" x2="112.4" y2="33.2" xlink:href="#d"/><linearGradient id="az" x1="75.6" y1="34" x2="111.9" y2="34" xlink:href="#d"/><linearGradient id="aA" x1="75.1" y1="34.7" x2="111.5" y2="34.7" xlink:href="#d"/><linearGradient id="aB" x1="74.7" y1="35.4" x2="111" y2="35.4" xlink:href="#d"/><linearGradient id="aC" x1="74.2" y1="36.1" x2="110.6" y2="36.1" xlink:href="#d"/><linearGradient id="aD" x1="73.8" y1="36.8" x2="110.1" y2="36.8" xlink:href="#d"/><linearGradient id="aE" x1="73.3" y1="37.4" x2="109.7" y2="37.4" xlink:href="#d"/><linearGradient id="aF" x1="72.9" y1="38" x2="109.2" y2="38" xlink:href="#d"/><linearGradient id="aG" x1="72.5" y1="38.6" x2="108.8" y2="38.6" xlink:href="#d"/><linearGradient id="aH" x1="72" y1="39.1" x2="108.4" y2="39.1" xlink:href="#d"/><linearGradient id="aI" x1="71.4" y1="40" x2="107.7" y2="40" xlink:href="#d"/><linearGradient id="aJ" x1="70.7" y1="40.9" x2="107" y2="40.9" xlink:href="#d"/><linearGradient id="aK" x1="70" y1="41.8" x2="106.4" y2="41.8" xlink:href="#d"/><linearGradient id="aL" x1="69.4" y1="42.6" x2="105.7" y2="42.6" xlink:href="#d"/><linearGradient id="aM" x1="68.8" y1="43.4" x2="105.1" y2="43.4" xlink:href="#d"/><linearGradient id="aN" x1="68.2" y1="44.2" x2="104.5" y2="44.2" xlink:href="#d"/><linearGradient id="aO" x1="67.5" y1="45" x2="103.9" y2="45" xlink:href="#d"/><linearGradient id="aP" x1="67" y1="45.8" x2="103.3" y2="45.8" xlink:href="#d"/><linearGradient id="aQ" x1="66.4" y1="46.6" x2="102.7" y2="46.6" xlink:href="#d"/><linearGradient id="aR" x1="65.8" y1="47.3" x2="102.2" y2="47.3" xlink:href="#d"/><linearGradient id="aS" x1="65.2" y1="48.1" x2="101.6" y2="48.1" xlink:href="#d"/><linearGradient id="aT" x1="64.7" y1="48.8" x2="101" y2="48.8" xlink:href="#d"/><linearGradient id="aU" x1="64.2" y1="49.5" x2="100.5" y2="49.5" xlink:href="#d"/><linearGradient id="aV" x1="63.6" y1="50.3" x2="100" y2="50.3" xlink:href="#d"/><linearGradient id="aW" x1="63.1" y1="51" x2="99.5" y2="51" xlink:href="#d"/><linearGradient id="aX" x1="62.6" y1="51.7" x2="98.9" y2="51.7" xlink:href="#d"/><linearGradient id="aY" x1="62.1" y1="52.5" x2="98.4" y2="52.5" xlink:href="#d"/><linearGradient id="aZ" x1="61.6" y1="53.2" x2="97.9" y2="53.2" xlink:href="#d"/><linearGradient id="ba" x1="61.1" y1="54" x2="97.4" y2="54" xlink:href="#d"/><linearGradient id="bb" x1="60.6" y1="54.7" x2="97" y2="54.7" xlink:href="#d"/><linearGradient id="bc" x1="60.1" y1="55.5" x2="96.5" y2="55.5" xlink:href="#d"/><linearGradient id="bd" x1="59.6" y1="56.3" x2="96" y2="56.3" xlink:href="#d"/><linearGradient id="be" x1="59.2" y1="57.1" x2="95.5" y2="57.1" xlink:href="#d"/><linearGradient id="bf" x1="58.7" y1="57.9" x2="95" y2="57.9" xlink:href="#d"/><linearGradient id="bg" x1="58.2" y1="58.8" x2="94.6" y2="58.8" xlink:href="#d"/><linearGradient id="bh" x1="57.8" y1="59.6" x2="94.1" y2="59.6" xlink:href="#d"/><linearGradient id="bi" x1="57.3" y1="60.5" x2="93.7" y2="60.5" xlink:href="#d"/><linearGradient id="bj" x1="56.9" y1="61.4" x2="93.2" y2="61.4" xlink:href="#d"/><linearGradient id="bk" x1="56.4" y1="62.4" x2="92.8" y2="62.4" xlink:href="#d"/><linearGradient id="bl" x1="56" y1="63.3" x2="92.3" y2="63.3" xlink:href="#d"/><linearGradient id="bm" x1="55.5" y1="64.3" x2="91.8" y2="64.3" xlink:href="#d"/><linearGradient id="bn" x1="55" y1="65.3" x2="91.4" y2="65.3" xlink:href="#d"/><linearGradient id="bo" x1="54.6" y1="66.4" x2="91" y2="66.4" xlink:href="#d"/><linearGradient id="bp" x1="54.1" y1="67.5" x2="90.5" y2="67.5" xlink:href="#d"/><linearGradient id="bq" x1="53.7" y1="68.6" x2="90" y2="68.6" xlink:href="#d"/><linearGradient id="br" x1="53.2" y1="69.8" x2="89.6" y2="69.8" xlink:href="#d"/><linearGradient id="bs" x1="52.8" y1="71" x2="89.1" y2="71" xlink:href="#d"/><linearGradient id="bt" x1="52.3" y1="72.3" x2="88.7" y2="72.3" xlink:href="#d"/><linearGradient id="bu" x1="51.9" y1="73.5" x2="88.2" y2="73.5" xlink:href="#d"/><linearGradient id="bv" x1="51.6" y1="74.4" x2="87.9" y2="74.4" xlink:href="#d"/><linearGradient id="bw" x1="51.3" y1="75.4" x2="87.6" y2="75.4" xlink:href="#d"/><linearGradient id="bx" x1="51" y1="76.4" x2="87.4" y2="76.4" xlink:href="#d"/><linearGradient id="by" x1="50.8" y1="77.4" x2="87.1" y2="77.4" xlink:href="#d"/><linearGradient id="bz" x1="50.5" y1="78.4" x2="86.9" y2="78.4" xlink:href="#d"/><linearGradient id="bA" x1="50.3" y1="79.5" x2="86.6" y2="79.5" xlink:href="#d"/><linearGradient id="bB" x1="50.1" y1="80.6" x2="86.4" y2="80.6" xlink:href="#d"/><linearGradient id="bC" x1="49.9" y1="81.7" x2="86.2" y2="81.7" xlink:href="#d"/><linearGradient id="bD" x1="49.7" y1="82.8" x2="86" y2="82.8" xlink:href="#d"/><linearGradient id="bE" x1="49.5" y1="83.9" x2="85.9" y2="83.9" xlink:href="#d"/><linearGradient id="bF" x1="49.4" y1="85.1" x2="85.7" y2="85.1" xlink:href="#d"/><linearGradient id="bG" x1="49.2" y1="86.2" x2="85.6" y2="86.2" xlink:href="#d"/><linearGradient id="bH" x1="49.1" y1="87.4" x2="85.4" y2="87.4" xlink:href="#d"/><linearGradient id="bI" x1="49" y1="88.6" x2="85.3" y2="88.6" xlink:href="#d"/><linearGradient id="bJ" x1="48.8" y1="89.8" x2="85.2" y2="89.8" xlink:href="#d"/><linearGradient id="bK" x1="48.7" y1="91" x2="85.1" y2="91" xlink:href="#d"/><linearGradient id="bL" x1="48.6" y1="92.2" x2="85" y2="92.2" xlink:href="#d"/><linearGradient id="bM" x1="48.6" y1="93.4" x2="84.9" y2="93.4" xlink:href="#d"/><linearGradient id="bN" x1="48.5" y1="94.6" x2="84.8" y2="94.6" xlink:href="#d"/><linearGradient id="bO" x1="48.5" y1="95.8" x2="84.8" y2="95.8" xlink:href="#d"/><linearGradient id="bP" x1="48.4" y1="97.1" x2="84.7" y2="97.1" xlink:href="#d"/><linearGradient id="bQ" x1="48.4" y1="98.3" x2="84.7" y2="98.3" xlink:href="#d"/><linearGradient id="bR" x1="48.3" y1="99.5" x2="84.7" y2="99.5" xlink:href="#d"/><linearGradient id="bS" x1="48.4" y1="97.9" x2="84.7" y2="97.9" xlink:href="#d"/><linearGradient id="bT" x1="48.3" y1="101.9" x2="84.6" y2="101.9" xlink:href="#d"/><linearGradient id="bU" x1="48.3" y1="103" x2="84.6" y2="103" xlink:href="#d"/><linearGradient id="bV" x1="48.3" y1="104.2" x2="84.6" y2="104.2" xlink:href="#d"/><linearGradient id="bW" x1="48.3" y1="105.3" x2="84.6" y2="105.3" xlink:href="#d"/><linearGradient id="bX" x1="48.3" y1="106.4" x2="84.6" y2="106.4" xlink:href="#d"/><linearGradient id="bY" x1="48.3" y1="107.5" x2="84.6" y2="107.5" xlink:href="#d"/><linearGradient id="bZ" x1="48.3" y1="108.6" x2="84.6" y2="108.6" xlink:href="#d"/><linearGradient id="ca" x1="48.3" y1="109.7" x2="84.6" y2="109.7" xlink:href="#d"/><linearGradient id="cb" x1="48.3" y1="110.8" x2="84.7" y2="110.8" xlink:href="#d"/><linearGradient id="cc" x1="48.3" y1="111.8" x2="84.7" y2="111.8" xlink:href="#d"/><linearGradient id="cd" x1="48.4" y1="112.9" x2="84.7" y2="112.9" xlink:href="#d"/><linearGradient id="ce" x1="48.4" y1="113.9" x2="84.7" y2="113.9" xlink:href="#d"/><linearGradient id="cf" x1="48.4" y1="115" x2="84.8" y2="115" xlink:href="#d"/><linearGradient id="cg" x1="48.5" y1="116" x2="84.8" y2="116" xlink:href="#d"/><linearGradient id="ch" x1="48.5" y1="116.9" x2="84.8" y2="116.9" xlink:href="#d"/><linearGradient id="ci" x1="48.5" y1="117.9" x2="84.9" y2="117.9" xlink:href="#d"/><linearGradient id="cj" x1="48.6" y1="118.8" x2="84.9" y2="118.8" xlink:href="#d"/><linearGradient id="ck" x1="48.6" y1="119.8" x2="85" y2="119.8" xlink:href="#d"/><linearGradient id="cl" x1="48.6" y1="120.6" x2="85" y2="120.6" xlink:href="#d"/><linearGradient id="cm" x1="48.7" y1="121.5" x2="85" y2="121.5" xlink:href="#d"/><linearGradient id="cn" x1="48.7" y1="122.3" x2="85.1" y2="122.3" xlink:href="#d"/><linearGradient id="co" x1="48.8" y1="123.2" x2="85.1" y2="123.2" xlink:href="#d"/><linearGradient id="cp" x1="48.8" y1="124" x2="85.1" y2="124" xlink:href="#d"/><linearGradient id="cq" x1="48.8" y1="124.7" x2="85.2" y2="124.7" xlink:href="#d"/><linearGradient id="cr" x1="48.9" y1="125.4" x2="85.2" y2="125.4" xlink:href="#d"/><linearGradient id="cs" x1="48.9" y1="126.1" x2="85.2" y2="126.1" xlink:href="#d"/><linearGradient id="ct" x1="48.9" y1="126.8" x2="85.3" y2="126.8" xlink:href="#d"/><linearGradient id="cu" x1="48.9" y1="127.4" x2="85.3" y2="127.4" xlink:href="#d"/><linearGradient id="cv" x1="49" y1="128" x2="85.3" y2="128" xlink:href="#d"/><linearGradient id="cw" x1="49" y1="128.6" x2="85.3" y2="128.6" xlink:href="#d"/><linearGradient id="cx" x1="49" y1="129.1" x2="85.3" y2="129.1" xlink:href="#d"/><linearGradient id="cy" x1="49" y1="129.6" x2="85.3" y2="129.6" xlink:href="#d"/><linearGradient id="cz" x1="49" y1="130" x2="85.3" y2="130" xlink:href="#d"/><linearGradient id="cA" x1="49" y1="130.7" x2="85.3" y2="130.7" xlink:href="#d"/><linearGradient id="cB" x1="49" y1="131.6" x2="85.4" y2="131.6" xlink:href="#d"/><linearGradient id="cC" x1="49" y1="132.5" x2="85.4" y2="132.5" xlink:href="#d"/><linearGradient id="cD" x1="49" y1="133.4" x2="85.4" y2="133.4" xlink:href="#d"/><linearGradient id="cE" x1="49" y1="134.3" x2="85.4" y2="134.3" xlink:href="#d"/><linearGradient id="cF" x1="49" y1="135.1" x2="85.4" y2="135.1" xlink:href="#d"/><linearGradient id="cG" x1="49" y1="136" x2="85.4" y2="136" xlink:href="#d"/><linearGradient id="cH" x1="49" y1="136.9" x2="85.4" y2="136.9" xlink:href="#d"/><linearGradient id="cI" x1="49" y1="137.8" x2="85.3" y2="137.8" xlink:href="#d"/><linearGradient id="cJ" x1="48.9" y1="138.7" x2="85.3" y2="138.7" xlink:href="#d"/><linearGradient id="cK" x1="48.9" y1="139.6" x2="85.2" y2="139.6" xlink:href="#d"/><linearGradient id="cL" x1="48.8" y1="140.5" x2="85.1" y2="140.5" xlink:href="#d"/><linearGradient id="cM" x1="48.7" y1="141.4" x2="85" y2="141.4" xlink:href="#d"/><linearGradient id="cN" x1="48.6" y1="142.3" x2="84.9" y2="142.3" xlink:href="#d"/><linearGradient id="cO" x1="48.4" y1="143.2" x2="84.8" y2="143.2" xlink:href="#d"/><linearGradient id="cP" x1="48.2" y1="144.1" x2="84.6" y2="144.1" xlink:href="#d"/><linearGradient id="cQ" x1="48" y1="145" x2="84.3" y2="145" xlink:href="#d"/><linearGradient id="cR" x1="47.7" y1="146" x2="84.1" y2="146" xlink:href="#d"/><linearGradient id="cS" x1="47.4" y1="146.9" x2="83.8" y2="146.9" xlink:href="#d"/><linearGradient id="cT" x1="47.1" y1="147.8" x2="83.5" y2="147.8" xlink:href="#d"/><linearGradient id="cU" x1="46.7" y1="148.8" x2="83.1" y2="148.8" xlink:href="#d"/><linearGradient id="cV" x1="46.3" y1="149.7" x2="82.7" y2="149.7" xlink:href="#d"/><linearGradient id="cW" x1="45.8" y1="150.7" x2="82.2" y2="150.7" xlink:href="#d"/><linearGradient id="cX" x1="45.3" y1="151.7" x2="81.7" y2="151.7" xlink:href="#d"/><linearGradient id="cY" x1="44.7" y1="152.6" x2="81.1" y2="152.6" xlink:href="#d"/><linearGradient id="cZ" x1="44.1" y1="153.6" x2="80.4" y2="153.6" xlink:href="#d"/><linearGradient id="da" x1="43.4" y1="154.6" x2="79.8" y2="154.6" xlink:href="#d"/><linearGradient id="db" x1="42.5" y1="155.8" x2="78.8" y2="155.8" xlink:href="#d"/><linearGradient id="dc" x1="41.4" y1="157.1" x2="77.8" y2="157.1" xlink:href="#d"/><linearGradient id="dd" x1="40.4" y1="158.3" x2="76.7" y2="158.3" xlink:href="#d"/><linearGradient id="de" x1="39.4" y1="159.3" x2="75.7" y2="159.3" xlink:href="#d"/><linearGradient id="df" x1="38.4" y1="160.2" x2="74.7" y2="160.2" xlink:href="#d"/><linearGradient id="dg" x1="37.4" y1="160.9" x2="73.8" y2="160.9" xlink:href="#d"/><linearGradient id="dh" x1="36.5" y1="161.5" x2="72.8" y2="161.5" xlink:href="#d"/><linearGradient id="di" x1="35.5" y1="161.9" x2="71.9" y2="161.9" xlink:href="#d"/><linearGradient id="dj" x1="34.7" y1="162.3" x2="71" y2="162.3" xlink:href="#d"/><linearGradient id="dk" x1="33.8" y1="162.6" x2="70.1" y2="162.6" xlink:href="#d"/><linearGradient id="dl" x1="32.9" y1="162.7" x2="69.3" y2="162.7" xlink:href="#d"/><linearGradient id="dm" x1="32.1" y1="162.8" x2="68.5" y2="162.8" xlink:href="#d"/><linearGradient id="dn" x1="31.3" y1="162.8" x2="67.7" y2="162.8" xlink:href="#d"/><linearGradient id="do" x1="30.5" y1="162.7" x2="66.9" y2="162.7" xlink:href="#d"/><linearGradient id="dp" x1="29.8" y1="162.6" x2="66.1" y2="162.6" xlink:href="#d"/><linearGradient id="dq" x1="29" y1="162.3" x2="65.4" y2="162.3" xlink:href="#d"/><linearGradient id="dr" x1="28.3" y1="162.1" x2="64.7" y2="162.1" xlink:href="#d"/><linearGradient id="ds" x1="27.6" y1="161.8" x2="63.9" y2="161.8" xlink:href="#d"/><linearGradient id="dt" x1="26.9" y1="161.5" x2="63.2" y2="161.5" xlink:href="#d"/><linearGradient id="du" x1="26.2" y1="161.1" x2="62.6" y2="161.1" xlink:href="#d"/><linearGradient id="dv" x1="25.5" y1="160.7" x2="61.9" y2="160.7" xlink:href="#d"/><linearGradient id="dw" x1="24.9" y1="160.3" x2="61.2" y2="160.3" xlink:href="#d"/><linearGradient id="dx" x1="24.3" y1="159.9" x2="60.6" y2="159.9" xlink:href="#d"/><linearGradient id="dy" x1="23.6" y1="159.6" x2="60" y2="159.6" xlink:href="#d"/><linearGradient id="dz" x1="23" y1="159.2" x2="59.4" y2="159.2" xlink:href="#d"/></defs><g data-name="图层 2"><g data-name="图层 1"><circle cx="18.2" cy="45.2" r="18.2" fill="url(#c)"/><circle cx="19.5" cy="45.1" r="18.2" fill="url(#e)"/><circle cx="20.8" cy="45" r="18.2" fill="url(#f)"/><circle cx="22" cy="45" r="18.2" fill="url(#g)"/><circle cx="23.1" cy="45" r="18.2" fill="url(#h)"/><circle cx="24.2" cy="44.9" r="18.2" fill="url(#i)"/><circle cx="25.2" cy="45" r="18.2" fill="url(#j)"/><circle cx="26.2" cy="45" r="18.2" fill="url(#k)"/><circle cx="27.1" cy="45" r="18.2" fill="url(#b)"/><circle cx="27.9" cy="45.1" r="18.2" fill="url(#l)"/><circle cx="28.8" cy="45.2" r="18.2" fill="url(#m)"/><circle cx="29.6" cy="45.3" r="18.2" fill="url(#n)"/><circle cx="30.3" cy="45.5" r="18.2" fill="url(#o)"/><circle cx="31.1" cy="45.6" r="18.2" fill="url(#p)"/><circle cx="31.8" cy="45.8" r="18.2" fill="url(#q)"/><circle cx="32.5" cy="46" r="18.2" fill="url(#r)"/><circle cx="33.1" cy="46.3" r="18.2" fill="url(#s)"/><circle cx="33.7" cy="46.6" r="18.2" fill="url(#t)"/><circle cx="34.4" cy="46.9" r="18.2" fill="url(#u)"/><circle cx="35" cy="47.2" r="18.2" fill="url(#v)"/><circle cx="35.6" cy="47.5" r="18.2" fill="url(#w)"/><circle cx="36.2" cy="47.9" r="18.2" fill="url(#x)"/><circle cx="36.8" cy="48.4" r="18.2" fill="url(#y)"/><circle cx="37.4" cy="48.8" r="18.2" fill="url(#z)"/><circle cx="38" cy="49.3" r="18.2" fill="url(#A)"/><circle cx="38.6" cy="49.8" r="18.2" fill="url(#a)"/><circle cx="39.2" cy="50.4" r="18.2" fill="url(#B)"/><circle cx="39.8" cy="50.9" r="18.2" fill="url(#C)"/><circle cx="40.5" cy="51.5" r="18.2" fill="url(#D)"/><circle cx="41.2" cy="52.2" r="18.2" fill="url(#E)"/><circle cx="41.9" cy="52.9" r="18.2" fill="url(#F)"/><circle cx="42.6" cy="53.6" r="18.2" fill="url(#G)"/><circle cx="43.4" cy="54.4" r="18.2" fill="url(#H)"/><circle cx="44.2" cy="55.2" r="18.2" fill="url(#I)"/><circle cx="45.1" cy="56.1" r="18.2" fill="url(#J)"/><circle cx="46" cy="57" r="18.2" fill="url(#K)"/><circle cx="47" cy="57.9" r="18.2" fill="url(#L)"/><circle cx="47.9" cy="58.8" r="18.2" fill="url(#M)"/><circle cx="48.8" cy="59.7" r="18.2" fill="url(#N)"/><circle cx="49.7" cy="60.5" r="18.2" fill="url(#O)"/><circle cx="50.6" cy="61.4" r="18.2" fill="url(#P)"/><circle cx="51.5" cy="62.2" r="18.2" fill="url(#Q)"/><circle cx="52.4" cy="63.1" r="18.2" fill="url(#R)"/><circle cx="53.3" cy="63.9" r="18.2" fill="url(#S)"/><circle cx="54.1" cy="64.7" r="18.2" fill="url(#T)"/><circle cx="55" cy="65.5" r="18.2" fill="url(#U)"/><circle cx="55.8" cy="66.3" r="18.2" fill="url(#V)"/><circle cx="56.6" cy="67.2" r="18.2" fill="url(#W)"/><circle cx="57.5" cy="68" r="18.2" fill="url(#X)"/><circle cx="58.2" cy="68.8" r="18.2" fill="url(#Y)"/><circle cx="59" cy="69.5" r="18.2" fill="url(#Z)"/><circle cx="59.7" cy="70.3" r="18.2" fill="url(#aa)"/><circle cx="60.5" cy="71.1" r="18.2" fill="url(#ab)"/><circle cx="61.1" cy="71.9" r="18.2" fill="url(#ac)"/><circle cx="61.8" cy="72.7" r="18.2" fill="url(#ad)"/><circle cx="62.5" cy="73.5" r="18.2" fill="url(#ae)"/><circle cx="63.1" cy="74.3" r="18.2" fill="url(#af)"/><circle cx="63.7" cy="75.1" r="18.2" fill="url(#ag)"/><circle cx="64.3" cy="75.9" r="18.2" fill="url(#ah)"/><circle cx="64.8" cy="76.7" r="18.2" fill="url(#ai)"/><circle cx="65.3" cy="77.5" r="18.2" fill="url(#aj)"/><circle cx="65.7" cy="78.3" r="18.2" fill="url(#ak)"/><circle cx="66.2" cy="79.2" r="18.2" fill="url(#al)"/><circle cx="97.2" cy="18.2" r="18.2" fill="url(#d)"/><circle cx="97.2" cy="19.7" r="18.2" fill="url(#am)"/><circle cx="97.2" cy="21.2" r="18.2" fill="url(#an)"/><circle cx="97.1" cy="22.5" r="18.2" fill="url(#ao)"/><circle cx="97" cy="23.9" r="18.2" fill="url(#ap)"/><circle cx="96.8" cy="25.1" r="18.2" fill="url(#aq)"/><circle cx="96.6" cy="26.3" r="18.2" fill="url(#ar)"/><circle cx="96.3" cy="27.4" r="18.2" fill="url(#as)"/><circle cx="96.1" cy="28.5" r="18.2" fill="url(#at)"/><circle cx="95.7" cy="29.6" r="18.2" fill="url(#au)"/><circle cx="95.4" cy="30.5" r="18.2" fill="url(#av)"/><circle cx="95" cy="31.4" r="18.2" fill="url(#aw)"/><circle cx="94.6" cy="32.3" r="18.2" fill="url(#ax)"/><circle cx="94.2" cy="33.2" r="18.2" fill="url(#ay)"/><circle cx="93.8" cy="34" r="18.2" fill="url(#az)"/><circle cx="93.3" cy="34.7" r="18.2" fill="url(#aA)"/><circle cx="92.9" cy="35.4" r="18.2" fill="url(#aB)"/><circle cx="92.4" cy="36.1" r="18.2" fill="url(#aC)"/><circle cx="92" cy="36.8" r="18.2" fill="url(#aD)"/><circle cx="91.5" cy="37.4" r="18.2" fill="url(#aE)"/><circle cx="91" cy="38" r="18.2" fill="url(#aF)"/><circle cx="90.6" cy="38.6" r="18.2" fill="url(#aG)"/><circle cx="90.2" cy="39.1" r="18.2" fill="url(#aH)"/><circle cx="89.5" cy="40" r="18.2" fill="url(#aI)"/><circle cx="88.9" cy="40.9" r="18.2" fill="url(#aJ)"/><circle cx="88.2" cy="41.8" r="18.2" fill="url(#aK)"/><circle cx="87.6" cy="42.6" r="18.2" fill="url(#aL)"/><circle cx="86.9" cy="43.4" r="18.2" fill="url(#aM)"/><circle cx="86.3" cy="44.2" r="18.2" fill="url(#aN)"/><circle cx="85.7" cy="45" r="18.2" fill="url(#aO)"/><circle cx="85.1" cy="45.8" r="18.2" fill="url(#aP)"/><circle cx="84.5" cy="46.6" r="18.2" fill="url(#aQ)"/><circle cx="84" cy="47.3" r="18.2" fill="url(#aR)"/><circle cx="83.4" cy="48.1" r="18.2" fill="url(#aS)"/><circle cx="82.9" cy="48.8" r="18.2" fill="url(#aT)"/><circle cx="82.3" cy="49.5" r="18.2" fill="url(#aU)"/><circle cx="81.8" cy="50.3" r="18.2" fill="url(#aV)"/><circle cx="81.3" cy="51" r="18.2" fill="url(#aW)"/><circle cx="80.8" cy="51.7" r="18.2" fill="url(#aX)"/><circle cx="80.3" cy="52.5" r="18.2" fill="url(#aY)"/><circle cx="79.8" cy="53.2" r="18.2" fill="url(#aZ)"/><circle cx="79.3" cy="54" r="18.2" fill="url(#ba)"/><circle cx="78.8" cy="54.7" r="18.2" fill="url(#bb)"/><circle cx="78.3" cy="55.5" r="18.2" fill="url(#bc)"/><circle cx="77.8" cy="56.3" r="18.2" fill="url(#bd)"/><circle cx="77.3" cy="57.1" r="18.2" fill="url(#be)"/><circle cx="76.9" cy="57.9" r="18.2" fill="url(#bf)"/><circle cx="76.4" cy="58.8" r="18.2" fill="url(#bg)"/><circle cx="76" cy="59.6" r="18.2" fill="url(#bh)"/><circle cx="75.5" cy="60.5" r="18.2" fill="url(#bi)"/><circle cx="75" cy="61.4" r="18.2" fill="url(#bj)"/><circle cx="74.6" cy="62.4" r="18.2" fill="url(#bk)"/><circle cx="74.1" cy="63.3" r="18.2" fill="url(#bl)"/><circle cx="73.7" cy="64.3" r="18.2" fill="url(#bm)"/><circle cx="73.2" cy="65.3" r="18.2" fill="url(#bn)"/><circle cx="72.8" cy="66.4" r="18.2" fill="url(#bo)"/><circle cx="72.3" cy="67.5" r="18.2" fill="url(#bp)"/><circle cx="71.9" cy="68.6" r="18.2" fill="url(#bq)"/><circle cx="71.4" cy="69.8" r="18.2" fill="url(#br)"/><circle cx="71" cy="71" r="18.2" fill="url(#bs)"/><circle cx="70.5" cy="72.3" r="18.2" fill="url(#bt)"/><circle cx="70.1" cy="73.5" r="18.2" fill="url(#bu)"/><circle cx="69.8" cy="74.4" r="18.2" fill="url(#bv)"/><circle cx="69.5" cy="75.4" r="18.2" fill="url(#bw)"/><circle cx="69.2" cy="76.4" r="18.2" fill="url(#bx)"/><circle cx="68.9" cy="77.4" r="18.2" fill="url(#by)"/><circle cx="68.7" cy="78.4" r="18.2" fill="url(#bz)"/><circle cx="68.5" cy="79.5" r="18.2" fill="url(#bA)"/><circle cx="68.3" cy="80.6" r="18.2" fill="url(#bB)"/><circle cx="68" cy="81.7" r="18.2" fill="url(#bC)"/><circle cx="67.9" cy="82.8" r="18.2" fill="url(#bD)"/><circle cx="67.7" cy="83.9" r="18.2" fill="url(#bE)"/><circle cx="67.5" cy="85.1" r="18.2" fill="url(#bF)"/><circle cx="67.4" cy="86.2" r="18.2" fill="url(#bG)"/><circle cx="67.3" cy="87.4" r="18.2" fill="url(#bH)"/><circle cx="67.1" cy="88.6" r="18.2" fill="url(#bI)"/><circle cx="67" cy="89.8" r="18.2" fill="url(#bJ)"/><circle cx="66.9" cy="91" r="18.2" fill="url(#bK)"/><circle cx="66.8" cy="92.2" r="18.2" fill="url(#bL)"/><circle cx="66.8" cy="93.4" r="18.2" fill="url(#bM)"/><circle cx="66.7" cy="94.6" r="18.2" fill="url(#bN)"/><circle cx="66.6" cy="95.8" r="18.2" fill="url(#bO)"/><circle cx="66.6" cy="97.1" r="18.2" fill="url(#bP)"/><circle cx="66.5" cy="98.3" r="18.2" fill="url(#bQ)"/><circle cx="66.5" cy="99.5" r="18.2" fill="url(#bR)"/><circle cx="66.5" cy="97.9" r="18.2" fill="url(#bS)"/><circle cx="66.5" cy="101.9" r="18.2" fill="url(#bT)"/><circle cx="66.4" cy="103" r="18.2" fill="url(#bU)"/><circle cx="66.4" cy="104.2" r="18.2" fill="url(#bV)"/><circle cx="66.4" cy="105.3" r="18.2" fill="url(#bW)"/><circle cx="66.4" cy="106.4" r="18.2" fill="url(#bX)"/><circle cx="66.4" cy="107.5" r="18.2" fill="url(#bY)"/><circle cx="66.5" cy="108.6" r="18.2" fill="url(#bZ)"/><circle cx="66.5" cy="109.7" r="18.2" fill="url(#ca)"/><circle cx="66.5" cy="110.8" r="18.2" fill="url(#cb)"/><circle cx="66.5" cy="111.8" r="18.2" fill="url(#cc)"/><circle cx="66.5" cy="112.9" r="18.2" fill="url(#cd)"/><circle cx="66.6" cy="113.9" r="18.2" fill="url(#ce)"/><circle cx="66.6" cy="115" r="18.2" fill="url(#cf)"/><circle cx="66.6" cy="116" r="18.2" fill="url(#cg)"/><circle cx="66.7" cy="116.9" r="18.2" fill="url(#ch)"/><circle cx="66.7" cy="117.9" r="18.2" fill="url(#ci)"/><circle cx="66.7" cy="118.8" r="18.2" fill="url(#cj)"/><circle cx="66.8" cy="119.8" r="18.2" fill="url(#ck)"/><circle cx="66.8" cy="120.6" r="18.2" fill="url(#cl)"/><circle cx="66.8" cy="121.5" r="18.2" fill="url(#cm)"/><circle cx="66.9" cy="122.3" r="18.2" fill="url(#cn)"/><circle cx="66.9" cy="123.2" r="18.2" fill="url(#co)"/><circle cx="67" cy="124" r="18.2" fill="url(#cp)"/><circle cx="67" cy="124.7" r="18.2" fill="url(#cq)"/><circle cx="67" cy="125.4" r="18.2" fill="url(#cr)"/><circle cx="67.1" cy="126.1" r="18.2" fill="url(#cs)"/><circle cx="67.1" cy="126.8" r="18.2" fill="url(#ct)"/><circle cx="67.1" cy="127.4" r="18.2" fill="url(#cu)"/><circle cx="67.1" cy="128" r="18.2" fill="url(#cv)"/><circle cx="67.2" cy="128.6" r="18.2" fill="url(#cw)"/><circle cx="67.2" cy="129.1" r="18.2" fill="url(#cx)"/><circle cx="67.2" cy="129.6" r="18.2" fill="url(#cy)"/><circle cx="67.2" cy="130" r="18.2" fill="url(#cz)"/><circle cx="67.2" cy="130.7" r="18.2" fill="url(#cA)"/><circle cx="67.2" cy="131.6" r="18.2" fill="url(#cB)"/><circle cx="67.2" cy="132.5" r="18.2" fill="url(#cC)"/><circle cx="67.2" cy="133.4" r="18.2" fill="url(#cD)"/><circle cx="67.2" cy="134.3" r="18.2" fill="url(#cE)"/><circle cx="67.2" cy="135.1" r="18.2" fill="url(#cF)"/><circle cx="67.2" cy="136" r="18.2" fill="url(#cG)"/><circle cx="67.2" cy="136.9" r="18.2" fill="url(#cH)"/><circle cx="67.2" cy="137.8" r="18.2" fill="url(#cI)"/><circle cx="67.1" cy="138.7" r="18.2" fill="url(#cJ)"/><circle cx="67" cy="139.6" r="18.2" fill="url(#cK)"/><circle cx="67" cy="140.5" r="18.2" fill="url(#cL)"/><circle cx="66.9" cy="141.4" r="18.2" fill="url(#cM)"/><circle cx="66.7" cy="142.3" r="18.2" fill="url(#cN)"/><circle cx="66.6" cy="143.2" r="18.2" fill="url(#cO)"/><circle cx="66.4" cy="144.1" r="18.2" fill="url(#cP)"/><circle cx="66.2" cy="145" r="18.2" fill="url(#cQ)"/><circle cx="65.9" cy="146" r="18.2" fill="url(#cR)"/><circle cx="65.6" cy="146.9" r="18.2" fill="url(#cS)"/><circle cx="65.3" cy="147.8" r="18.2" fill="url(#cT)"/><circle cx="64.9" cy="148.8" r="18.2" fill="url(#cU)"/><circle cx="64.5" cy="149.7" r="18.2" fill="url(#cV)"/><circle cx="64" cy="150.7" r="18.2" fill="url(#cW)"/><circle cx="63.5" cy="151.7" r="18.2" fill="url(#cX)"/><circle cx="62.9" cy="152.6" r="18.2" fill="url(#cY)"/><circle cx="62.3" cy="153.6" r="18.2" fill="url(#cZ)"/><circle cx="61.6" cy="154.6" r="18.2" fill="url(#da)"/><circle cx="60.7" cy="155.8" r="18.2" fill="url(#db)"/><circle cx="59.6" cy="157.1" r="18.2" fill="url(#dc)"/><circle cx="58.5" cy="158.3" r="18.2" fill="url(#dd)"/><circle cx="57.5" cy="159.3" r="18.2" fill="url(#de)"/><circle cx="56.5" cy="160.2" r="18.2" fill="url(#df)"/><circle cx="55.6" cy="160.9" r="18.2" fill="url(#dg)"/><circle cx="54.6" cy="161.5" r="18.2" fill="url(#dh)"/><circle cx="53.7" cy="161.9" r="18.2" fill="url(#di)"/><circle cx="52.8" cy="162.3" r="18.2" fill="url(#dj)"/><circle cx="52" cy="162.6" r="18.2" fill="url(#dk)"/><circle cx="51.1" cy="162.7" r="18.2" fill="url(#dl)"/><circle cx="50.3" cy="162.8" r="18.2" fill="url(#dm)"/><circle cx="49.5" cy="162.8" r="18.2" fill="url(#dn)"/><circle cx="48.7" cy="162.7" r="18.2" fill="url(#do)"/><circle cx="48" cy="162.6" r="18.2" fill="url(#dp)"/><circle cx="47.2" cy="162.3" r="18.2" fill="url(#dq)"/><circle cx="46.5" cy="162.1" r="18.2" fill="url(#dr)"/><circle cx="45.8" cy="161.8" r="18.2" fill="url(#ds)"/><circle cx="45.1" cy="161.5" r="18.2" fill="url(#dt)"/><circle cx="44.4" cy="161.1" r="18.2" fill="url(#du)"/><circle cx="43.7" cy="160.7" r="18.2" fill="url(#dv)"/><circle cx="43.1" cy="160.3" r="18.2" fill="url(#dw)"/><circle cx="42.4" cy="159.9" r="18.2" fill="url(#dx)"/><circle cx="41.8" cy="159.6" r="18.2" fill="url(#dy)"/><circle cx="41.2" cy="159.2" r="18.2" fill="url(#dz)"/></g></g></svg>