<?xml version="1.0" standalone="no"?>
<!DOCTYPE svg PUBLIC "-//W3C//DTD SVG 1.1//EN" "http://www.w3.org/Graphics/SVG/1.1/DTD/svg11.dtd" >
<svg xmlns="http://www.w3.org/2000/svg" xmlns:xlink="http://www.w3.org/1999/xlink" version="1.1">
<metadata>
Created by FontForge 20170910 at Wed Dec  2 23:57:32 2015
 By Jimmy Wärting
Jean Wojciechowski
</metadata>
<defs>
<font id="AXIS-ExtraBold" horiz-adv-x="654" >
  <font-face 
    font-family="AXIS Extra Bold"
    font-weight="800"
    font-stretch="normal"
    units-per-em="1000"
    panose-1="0 0 9 0 0 0 0 0 0 0"
    ascent="800"
    descent="-200"
    x-height="680"
    cap-height="680"
    bbox="-298 -420 1193 1004"
    underline-thickness="50"
    underline-position="-100"
    stemh="152"
    stemv="164"
    unicode-range="U+0020-2260"
  />
<missing-glyph horiz-adv-x="814" 
d="M748 680v-680h-682v680h682zM660 455c0 59 -76 66 -76 66l-1 -9c4 -6 12 -30 12 -60c0 -80 -65 -121 -65 -121v157c0 23 -11 32 -32 32h-26s4 -41 0 -59c-12 -48 -73 -126 -73 -126v118c0 32 5 44 18 53v14h-209v-14c19 -9 21 -21 21 -53v-137c0 -40 5 -111 -41 -147v-8
c32 0 105 32 105 164v128c0 32 7 39 21 49c16 -10 23 -17 23 -49v-184c0 -14 35 -24 35 -24l100 142v-113c0 -17 42 -29 42 -29c76 105 146 166 146 210z" />
    <glyph glyph-name=".notdef" horiz-adv-x="814" 
d="M748 680v-680h-682v680h682zM660 455c0 59 -76 66 -76 66l-1 -9c4 -6 12 -30 12 -60c0 -80 -65 -121 -65 -121v157c0 23 -11 32 -32 32h-26s4 -41 0 -59c-12 -48 -73 -126 -73 -126v118c0 32 5 44 18 53v14h-209v-14c19 -9 21 -21 21 -53v-137c0 -40 5 -111 -41 -147v-8
c32 0 105 32 105 164v128c0 32 7 39 21 49c16 -10 23 -17 23 -49v-184c0 -14 35 -24 35 -24l100 142v-113c0 -17 42 -29 42 -29c76 105 146 166 146 210z" />
    <glyph glyph-name="space" unicode=" " horiz-adv-x="237" 
 />
    <glyph glyph-name="A" unicode="A" horiz-adv-x="837" 
d="M627 0l-44 106h-328l-45 -106h-174l291 680h183l292 -680h-175zM312 240h214l-106 254z" />
    <glyph glyph-name="Aacute" unicode="&#xc1;" horiz-adv-x="840" 
d="M596 847l-319 -99l-49 99l316 131zM627 0l-44 106h-328l-45 -106h-174l291 680h183l292 -680h-175zM312 240h214l-106 254z" />
    <glyph glyph-name="Abreve" unicode="&#x102;" horiz-adv-x="840" 
d="M417 759c-76 0 -144 52 -169 122l100 49c16 -31 42 -53 71 -53c31 0 58 22 73 53l101 -49c-26 -70 -93 -122 -176 -122zM627 0l-44 106h-328l-45 -106h-174l291 680h183l292 -680h-175zM312 240h214l-106 254z" />
    <glyph glyph-name="Acircumflex" unicode="&#xc2;" horiz-adv-x="840" 
d="M421 872l-165 -110l-71 86l236 142l236 -142l-71 -86zM627 0l-44 106h-328l-45 -106h-174l291 680h183l292 -680h-175zM312 240h214l-106 254z" />
    <glyph glyph-name="Adieresis" unicode="&#xc4;" horiz-adv-x="840" 
d="M279 774c-51 0 -93 43 -93 93c0 53 42 96 93 96c53 0 95 -43 95 -96c0 -50 -42 -93 -95 -93zM559 774c-50 0 -93 43 -93 93c0 53 43 96 93 96c53 0 96 -43 96 -96c0 -50 -43 -93 -96 -93zM629 0l-44 106h-329l-45 -106h-175l292 682h184l292 -682h-175zM313 241h215
l-107 255z" />
    <glyph glyph-name="Agrave" unicode="&#xc0;" horiz-adv-x="840" 
d="M604 855l-53 -102l-319 99l56 134zM627 0l-44 106h-328l-45 -106h-174l291 680h183l292 -680h-175zM312 240h214l-106 254z" />
    <glyph glyph-name="Amacron" unicode="&#x100;" horiz-adv-x="840" 
d="M642 902v-132h-447v132h447zM627 0l-44 106h-328l-45 -106h-174l291 680h183l292 -680h-175zM312 240h214l-106 254z" />
    <glyph glyph-name="Aogonek" unicode="&#x104;" horiz-adv-x="840" 
d="M714 -84c0 -37 54 -52 55 -52l-78 -84c-57 0 -120 51 -120 117c0 40 22 79 51 114l-39 95h-328l-45 -106h-174l291 680h183l241 -560l53 -120s-90 -27 -90 -84zM312 240h214l-106 254z" />
    <glyph glyph-name="Aring" unicode="&#xc5;" horiz-adv-x="837" 
d="M418 878c68 0 122 -54 122 -122c0 -35 -17 -68 -42 -89l304 -667h-175l-45 106h-327l-45 -106h-174l303 667c-25 21 -41 54 -41 89c0 68 55 122 120 122zM419 793c-19 0 -36 -16 -36 -36c0 -19 17 -35 36 -35c20 0 36 16 36 35c0 20 -16 36 -36 36zM419 495l-107 -255
h213z" />
    <glyph glyph-name="Aringacute" unicode="&#x1fa;" horiz-adv-x="837" 
d="M442 944l76 -60l-30 -28c31 -22 52 -58 52 -100c0 -35 -17 -68 -42 -89l304 -667h-175l-45 106h-327l-45 -106h-174l303 667c-25 21 -41 54 -41 89c0 37 17 69 41 91c34 32 103 97 103 97zM419 793c-19 0 -36 -16 -36 -36c0 -19 17 -35 36 -35c20 0 36 16 36 35
c0 20 -16 36 -36 36zM419 495l-107 -255h213z" />
    <glyph glyph-name="Atilde" unicode="&#xc3;" horiz-adv-x="837" 
d="M313 809c-54 0 -99 -25 -99 -25l-31 124c1 2 60 44 128 44c86 0 130 -43 197 -43c71 0 108 31 108 31l41 -106c0 -4 -58 -66 -149 -66c-76 0 -122 41 -195 41zM627 0l-44 106h-328l-45 -106h-174l291 680h183l292 -680h-175zM312 240h214l-106 254z" />
    <glyph glyph-name="AE" unicode="&#xc6;" horiz-adv-x="1114" 
d="M709 528v-117h298v-142h-298v-117h357v-152h-523v269h-208l-129 -269h-170l327 680h703v-152h-357zM543 528h-83l-57 -117h140v117z" />
    <glyph glyph-name="AEacute" unicode="&#x1fc;" horiz-adv-x="1123" 
d="M521 847l316 131l52 -131l-319 -99zM709 528v-117h298v-142h-298v-117h357v-152h-523v269h-208l-129 -269h-170l327 680h703v-152h-357zM543 528h-83l-57 -117h140v117z" />
    <glyph glyph-name="B" unicode="B" horiz-adv-x="707" 
d="M566 363c66 -33 102 -92 102 -165c0 -111 -71 -198 -257 -198h-335v680h295c197 0 259 -78 259 -187c0 -70 -49 -119 -64 -130zM381 398c71 0 93 21 93 74c0 46 -30 68 -93 68h-141v-142h141zM491 207c0 50 -34 66 -99 66h-152v-132h152c66 0 99 22 99 66z" />
    <glyph glyph-name="C" unicode="C" horiz-adv-x="763" 
d="M590 245l139 -80c-61 -102 -174 -177 -318 -177c-213 0 -368 156 -368 357c0 189 155 347 368 347c145 0 259 -68 320 -170l-139 -81c-32 62 -95 103 -181 103c-119 0 -202 -87 -202 -199c0 -108 83 -203 202 -203c84 0 146 43 179 103z" />
    <glyph glyph-name="Cacute" unicode="&#x106;" horiz-adv-x="763" 
d="M214 847l316 131l52 -131l-319 -99zM590 245l139 -80c-61 -102 -174 -177 -318 -177c-213 0 -368 156 -368 357c0 189 155 347 368 347c145 0 259 -68 320 -170l-139 -81c-32 62 -95 103 -181 103c-119 0 -202 -87 -202 -199c0 -108 83 -203 202 -203
c84 0 146 43 179 103z" />
    <glyph glyph-name="Ccaron" unicode="&#x10c;" horiz-adv-x="763" 
d="M542 1003l71 -91l-226 -143l-226 143l71 91l155 -105zM590 245l139 -80c-61 -102 -174 -177 -318 -177c-213 0 -368 156 -368 357c0 189 155 347 368 347c145 0 259 -68 320 -170l-139 -81c-32 62 -95 103 -181 103c-119 0 -202 -87 -202 -199c0 -108 83 -203 202 -203
c84 0 146 43 179 103z" />
    <glyph glyph-name="Ccedilla" unicode="&#xc7;" horiz-adv-x="761" 
d="M590 245l139 -80c-61 -102 -174 -177 -318 -177c-213 0 -368 156 -368 357c0 189 155 347 368 347c145 0 259 -68 320 -170l-139 -81c-32 62 -95 103 -181 103c-119 0 -202 -87 -202 -199c0 -108 83 -203 202 -203c84 0 146 43 179 103zM187 -109h390v-126h-390v126z" />
    <glyph glyph-name="Cdotaccent" unicode="&#x10a;" horiz-adv-x="763" 
d="M384 956c53 0 95 -43 95 -96c0 -50 -42 -93 -95 -93c-51 0 -93 43 -93 93c0 53 42 96 93 96zM590 245l139 -80c-61 -102 -174 -177 -318 -177c-213 0 -368 156 -368 357c0 189 155 347 368 347c145 0 259 -68 320 -170l-139 -81c-32 62 -95 103 -181 103
c-119 0 -202 -87 -202 -199c0 -108 83 -203 202 -203c84 0 146 43 179 103z" />
    <glyph glyph-name="D" unicode="D" horiz-adv-x="775" 
d="M377 680c224 1 359 -143 359 -339c0 -198 -147 -341 -359 -341h-301v679zM240 528v-376h137c114 0 193 75 193 189c0 122 -77 187 -193 187h-137z" />
    <glyph glyph-name="Eth" unicode="&#xd0;" horiz-adv-x="864" 
d="M463 680c224 0 359 -143 359 -339c0 -198 -147 -341 -359 -341h-301v269h-126v142h126v269h301zM463 528h-136v-117h199v-142h-199v-117h136c114 0 193 75 193 189c0 122 -77 187 -193 187z" />
    <glyph glyph-name="Dcaron" unicode="&#x10e;" horiz-adv-x="775" 
d="M514 1004l71 -91l-226 -143l-226 143l71 91l155 -105zM377 680c224 0 359 -143 359 -339c0 -198 -147 -341 -359 -341h-301v680h301zM240 528v-376h137c114 0 193 75 193 189c0 122 -77 187 -193 187h-137z" />
    <glyph glyph-name="Dcroat" unicode="&#x110;" horiz-adv-x="864" 
d="M463 680c224 0 359 -143 359 -339c0 -198 -147 -341 -359 -341h-301v269h-126v142h126v269h301zM463 528h-136v-117h199v-142h-199v-117h136c114 0 193 75 193 189c0 122 -77 187 -193 187z" />
    <glyph glyph-name="E" unicode="E" 
d="M76 680h521v-152h-357v-117h298v-142h-298v-117h357v-152h-521v680z" />
    <glyph glyph-name="Eacute" unicode="&#xc9;" 
d="M155 847l316 131l52 -131l-319 -99zM76 680h521v-152h-357v-117h298v-142h-298v-117h357v-152h-521v680z" />
    <glyph glyph-name="Ebreve" unicode="&#x114;" 
d="M511 879c-26 -70 -93 -122 -176 -122c-76 0 -144 52 -169 122l100 49c16 -31 42 -53 71 -53c31 0 58 22 73 53zM76 680h521v-152h-357v-117h298v-142h-298v-117h357v-152h-521v680z" />
    <glyph glyph-name="Ecaron" unicode="&#x11a;" 
d="M504 1003l71 -91l-226 -143l-226 143l71 91l155 -105zM76 680h521v-152h-357v-117h298v-142h-298v-117h357v-152h-521v680z" />
    <glyph glyph-name="Ecircumflex" unicode="&#xca;" 
d="M328 870l-165 -110l-71 86l236 142l236 -142l-71 -86zM76 680h521v-152h-357v-117h298v-142h-298v-117h357v-152h-521v680z" />
    <glyph glyph-name="Edieresis" unicode="&#xcb;" 
d="M183 961c53 0 95 -43 95 -96c0 -50 -42 -93 -95 -93c-51 0 -93 43 -93 93c0 53 42 96 93 96zM463 961c53 0 96 -43 96 -96c0 -50 -43 -93 -96 -93c-50 0 -93 43 -93 93c0 53 43 96 93 96zM76 680h521v-152h-357v-117h298v-142h-298v-117h357v-152h-521v680z" />
    <glyph glyph-name="Edotaccent" unicode="&#x116;" 
d="M334 956c53 0 95 -43 95 -96c0 -50 -42 -93 -95 -93c-51 0 -93 43 -93 93c0 53 42 96 93 96zM76 680h521v-152h-357v-117h298v-142h-298v-117h357v-152h-521v680z" />
    <glyph glyph-name="Egrave" unicode="&#xc8;" 
d="M154 852l56 134l316 -131l-53 -102zM76 680h521v-152h-357v-117h298v-142h-298v-117h357v-152h-521v680z" />
    <glyph glyph-name="Emacron" unicode="&#x112;" 
d="M562 770h-447v132h447v-132zM76 680h521v-152h-357v-117h298v-142h-298v-117h357v-152h-521v680z" />
    <glyph glyph-name="Eogonek" unicode="&#x118;" 
d="M597 528h-357v-117h298v-142h-298v-117h357v-152h-1s-90 -27 -90 -84c0 -37 54 -52 55 -52l-69 -73c-44 0 -128 41 -128 129c0 32 10 59 25 80h-313v680h521v-152z" />
    <glyph glyph-name="F" unicode="F" horiz-adv-x="649" 
d="M597 680v-152h-357v-156h298v-151h-298v-221h-164v680h521z" />
    <glyph glyph-name="G" unicode="G" horiz-adv-x="772" 
d="M412 692c131 0 237 -59 305 -149l-142 -72c-34 43 -87 67 -165 67c-119 0 -202 -83 -202 -196c0 -108 85 -201 204 -201c73 0 131 23 167 57v66h-207v126h352v-252c-5 -10 -112 -150 -311 -150c-225 0 -370 169 -370 352c0 189 155 352 369 352z" />
    <glyph glyph-name="Gbreve" unicode="&#x11e;" horiz-adv-x="772" 
d="M555 879c-26 -70 -93 -122 -176 -122c-76 0 -144 52 -169 122l100 49c16 -31 42 -53 71 -53c31 0 58 22 73 53zM412 692c131 0 237 -59 305 -149l-142 -72c-34 43 -87 67 -165 67c-119 0 -202 -83 -202 -196c0 -108 85 -201 204 -201c73 0 131 23 167 57v66h-207v126h352
v-252c-5 -10 -112 -150 -311 -150c-225 0 -370 169 -370 352c0 189 155 352 369 352z" />
    <glyph glyph-name="Gcommaaccent" unicode="&#x122;" horiz-adv-x="772" 
d="M412 692c131 0 237 -59 305 -149l-142 -72c-34 43 -87 67 -165 67c-119 0 -202 -83 -202 -196c0 -108 85 -201 204 -201c73 0 131 23 167 57v66h-207v126h352v-252c-5 -10 -112 -150 -311 -150c-225 0 -370 169 -370 352c0 189 155 352 369 352zM522 -233l-137 107
l-139 -216l99 -78z" />
    <glyph glyph-name="Gdotaccent" unicode="&#x120;" horiz-adv-x="772" 
d="M382 956c53 0 95 -43 95 -96c0 -50 -42 -93 -95 -93c-51 0 -93 43 -93 93c0 53 42 96 93 96zM412 692c131 0 237 -59 305 -149l-142 -72c-34 43 -87 67 -165 67c-119 0 -202 -83 -202 -196c0 -108 85 -201 204 -201c73 0 131 23 167 57v66h-207v126h352v-252
c-5 -10 -112 -150 -311 -150c-225 0 -370 169 -370 352c0 189 155 352 369 352z" />
    <glyph glyph-name="H" unicode="H" horiz-adv-x="780" 
d="M704 680v-680h-165v264h-299v-264h-164v680h164v-264h299v264h165z" />
    <glyph glyph-name="Hbar" unicode="&#x126;" horiz-adv-x="888" 
d="M759 680v-93h99v-122h-99v-465h-165v264h-299v-264h-164v465h-101v122h101v93h164v-93h299v93h165zM594 465h-299v-49h299v49z" />
    <glyph glyph-name="I" unicode="I" horiz-adv-x="316" 
d="M240 680v-680h-164v680h164z" />
    <glyph glyph-name="Iacute" unicode="&#xcd;" horiz-adv-x="316" 
d="M-34 847l316 131l52 -131l-319 -99zM240 680v-680h-164v680h164z" />
    <glyph glyph-name="Ibreve" unicode="&#x12c;" horiz-adv-x="316" 
d="M330 879c-26 -70 -93 -122 -176 -122c-76 0 -144 52 -169 122l100 49c16 -31 42 -53 71 -53c31 0 58 22 73 53zM240 680v-680h-164v680h164z" />
    <glyph glyph-name="Icircumflex" unicode="&#xce;" horiz-adv-x="316" 
d="M153 870l-165 -110l-71 86l236 142l236 -142l-71 -86zM240 680v-680h-164v680h164z" />
    <glyph glyph-name="Idieresis" unicode="&#xcf;" horiz-adv-x="316" 
d="M7 961c53 0 95 -43 95 -96c0 -50 -42 -93 -95 -93c-51 0 -93 43 -93 93c0 53 42 96 93 96zM287 961c53 0 96 -43 96 -96c0 -50 -43 -93 -96 -93c-50 0 -93 43 -93 93c0 53 43 96 93 96zM240 680v-680h-164v680h164z" />
    <glyph glyph-name="Idotaccent" unicode="&#x130;" horiz-adv-x="316" 
d="M157 956c53 0 95 -43 95 -96c0 -50 -42 -93 -95 -93c-51 0 -93 43 -93 93c0 53 42 96 93 96zM240 680v-680h-164v680h164z" />
    <glyph glyph-name="Igrave" unicode="&#xcc;" horiz-adv-x="316" 
d="M-19 852l56 134l316 -131l-53 -102zM240 680v-680h-164v680h164z" />
    <glyph glyph-name="Imacron" unicode="&#x12a;" horiz-adv-x="316" 
d="M382 770h-447v132h447v-132zM240 680v-680h-164v680h164z" />
    <glyph glyph-name="Iogonek" unicode="&#x12e;" horiz-adv-x="327" 
d="M162 -84c0 -37 62 -52 63 -52l-68 -73c-44 0 -138 41 -138 129c0 56 29 94 66 120v640h164v-674l2 -6s-89 -27 -89 -84z" />
    <glyph glyph-name="J" unicode="J" horiz-adv-x="644" 
d="M587 680v-386c0 -183 -89 -306 -273 -306c-152 0 -273 123 -273 299h164c0 -97 42 -147 109 -147c68 0 108 50 108 154v386h165z" />
    <glyph glyph-name="K" unicode="K" horiz-adv-x="782" 
d="M706 680l-234 -274l284 -406h-213l-186 281l-117 -128v-153h-164v680h164v-299l260 299h206z" />
    <glyph glyph-name="Kcommaaccent" unicode="&#x136;" horiz-adv-x="782" 
d="M706 680l-234 -274l284 -406h-213l-186 281l-117 -128v-153h-164v680h164v-299l260 299h206zM513 -233l-137 107l-139 -216l99 -78z" />
    <glyph glyph-name="L" unicode="L" horiz-adv-x="638" 
d="M240 680v-528h357v-152h-521v680h164z" />
    <glyph glyph-name="Lacute" unicode="&#x139;" horiz-adv-x="638" 
d="M-13 847l316 131l52 -131l-319 -99zM240 680v-528h357v-152h-521v680h164z" />
    <glyph glyph-name="Lcaron" unicode="&#x13d;" horiz-adv-x="638" 
d="M240 680v-528h357v-152h-521v680h164zM368 426l36 254l156 -24l-51 -255z" />
    <glyph glyph-name="Lcommaaccent" unicode="&#x13b;" horiz-adv-x="638" 
d="M240 680v-528h357v-152h-521v680h164zM442 -233l-137 107l-139 -216l99 -78z" />
    <glyph glyph-name="Ldot" unicode="&#x13f;" horiz-adv-x="638" 
d="M240 680v-528h357v-152h-521v680h164zM465 495c53 0 95 -43 95 -96c0 -50 -42 -93 -95 -93c-51 0 -93 43 -93 93c0 53 42 96 93 96z" />
    <glyph glyph-name="Lslash" unicode="&#x141;" horiz-adv-x="638" 
d="M240 152h357v-152h-521v223l-85 -47v173l85 47v284h164v-194l154 84v-171l-154 -85v-162z" />
    <glyph glyph-name="M" unicode="M" horiz-adv-x="989" 
d="M914 680v-680h-165v347l-163 -347h-183l-163 347v-347h-164v680h182l237 -499l236 499h183z" />
    <glyph glyph-name="N" unicode="N" horiz-adv-x="807" 
d="M740 680v-680h-165l-344 416v-416h-165v680h165l344 -415v415h165z" />
    <glyph glyph-name="Nacute" unicode="&#x143;" horiz-adv-x="807" 
d="M219 847l316 131l52 -131l-319 -99zM740 680v-680h-165l-344 416v-416h-165v680h165l344 -415v415h165z" />
    <glyph glyph-name="Ncaron" unicode="&#x147;" horiz-adv-x="807" 
d="M542 1003l71 -91l-226 -143l-226 143l71 91l155 -105zM740 680v-680h-165l-344 416v-416h-165v680h165l344 -415v415h165z" />
    <glyph glyph-name="Ncommaaccent" unicode="&#x145;" horiz-adv-x="807" 
d="M740 680v-680h-165l-344 416v-416h-165v680h165l344 -415v415h165zM530 -233l-137 107l-139 -216l99 -78z" />
    <glyph glyph-name="Eng" unicode="&#x14a;" horiz-adv-x="826" 
d="M750 680v-680c0 -72 -11 -143 -78 -161c-75 -19 -208 25 -208 25l28 107s58 -29 79 -15c25 18 13 44 13 44l-344 416v-416h-164v680h164l344 -415v415h166z" />
    <glyph glyph-name="Ntilde" unicode="&#xd1;" horiz-adv-x="807" 
d="M296 951c86 0 130 -43 197 -43c71 0 108 31 108 31l41 -106c0 -4 -58 -66 -149 -66c-76 0 -122 41 -195 41c-54 0 -99 -25 -99 -25l-31 124c1 2 60 44 128 44zM740 680v-680h-165l-344 416v-416h-165v680h165l344 -415v415h165z" />
    <glyph glyph-name="O" unicode="O" horiz-adv-x="766" 
d="M383 692c193 0 351 -159 351 -352c0 -194 -158 -352 -351 -352c-195 0 -351 158 -351 352c0 193 156 352 351 352zM383 539c-111 0 -201 -89 -201 -199c0 -111 90 -200 201 -200c109 0 199 89 199 200c0 110 -90 199 -199 199z" />
    <glyph glyph-name="Oacute" unicode="&#xd3;" horiz-adv-x="766" 
d="M208 847l316 131l52 -131l-319 -99zM383 692c193 0 351 -159 351 -352c0 -194 -158 -352 -351 -352c-195 0 -351 158 -351 352c0 193 156 352 351 352zM383 539c-111 0 -201 -89 -201 -199c0 -111 90 -200 201 -200c109 0 199 89 199 200c0 110 -90 199 -199 199z" />
    <glyph glyph-name="Obreve" unicode="&#x14e;" horiz-adv-x="766" 
d="M565 879c-26 -70 -93 -122 -176 -122c-76 0 -144 52 -169 122l100 49c16 -31 42 -53 71 -53c31 0 58 22 73 53zM383 692c193 0 351 -159 351 -352c0 -194 -158 -352 -351 -352c-195 0 -351 158 -351 352c0 193 156 352 351 352zM383 539c-111 0 -201 -89 -201 -199
c0 -111 90 -200 201 -200c109 0 199 89 199 200c0 110 -90 199 -199 199z" />
    <glyph glyph-name="Ocircumflex" unicode="&#xd4;" horiz-adv-x="766" 
d="M394 870l-165 -110l-71 86l236 142l236 -142l-71 -86zM383 692c193 0 351 -159 351 -352c0 -194 -158 -352 -351 -352c-195 0 -351 158 -351 352c0 193 156 352 351 352zM383 539c-111 0 -201 -89 -201 -199c0 -111 90 -200 201 -200c109 0 199 89 199 200
c0 110 -90 199 -199 199z" />
    <glyph glyph-name="Odieresis" unicode="&#xd6;" horiz-adv-x="766" 
d="M253 961c53 0 95 -43 95 -96c0 -50 -42 -93 -95 -93c-51 0 -93 43 -93 93c0 53 42 96 93 96zM533 961c53 0 96 -43 96 -96c0 -50 -43 -93 -96 -93c-50 0 -93 43 -93 93c0 53 43 96 93 96zM383 692c193 0 351 -159 351 -352c0 -194 -158 -352 -351 -352
c-195 0 -351 158 -351 352c0 193 156 352 351 352zM383 539c-111 0 -201 -89 -201 -199c0 -111 90 -200 201 -200c109 0 199 89 199 200c0 110 -90 199 -199 199z" />
    <glyph glyph-name="Ograve" unicode="&#xd2;" horiz-adv-x="766" 
d="M230 852l56 134l316 -131l-53 -102zM383 692c193 0 351 -159 351 -352c0 -194 -158 -352 -351 -352c-195 0 -351 158 -351 352c0 193 156 352 351 352zM383 539c-111 0 -201 -89 -201 -199c0 -111 90 -200 201 -200c109 0 199 89 199 200c0 110 -90 199 -199 199z" />
    <glyph glyph-name="Ohungarumlaut" unicode="&#x150;" horiz-adv-x="766" 
d="M180 782l141 198l141 -14l-174 -200zM439 782l141 198l141 -14l-174 -200zM383 692c193 0 351 -159 351 -352c0 -194 -158 -352 -351 -352c-195 0 -351 158 -351 352c0 193 156 352 351 352zM383 539c-111 0 -201 -89 -201 -199c0 -111 90 -200 201 -200
c109 0 199 89 199 200c0 110 -90 199 -199 199z" />
    <glyph glyph-name="Omacron" unicode="&#x14c;" horiz-adv-x="766" 
d="M616 770h-447v132h447v-132zM383 692c193 0 351 -159 351 -352c0 -194 -158 -352 -351 -352c-195 0 -351 158 -351 352c0 193 156 352 351 352zM383 539c-111 0 -201 -89 -201 -199c0 -111 90 -200 201 -200c109 0 199 89 199 200c0 110 -90 199 -199 199z" />
    <glyph glyph-name="Oslash" unicode="&#xd8;" horiz-adv-x="818" 
d="M718 533c38 -56 58 -121 58 -192c0 -188 -155 -353 -368 -353c-69 0 -132 17 -186 48l-57 -60l-118 116l55 54c-39 57 -60 124 -60 195c0 189 153 351 366 351c70 0 133 -18 187 -48l59 60l118 -116zM206 341c0 -26 5 -51 15 -74l260 261c-23 8 -46 11 -73 11
c-119 0 -202 -85 -202 -198zM408 140c121 0 203 94 203 201c0 26 -5 51 -13 73l-260 -263c22 -8 45 -11 70 -11z" />
    <glyph glyph-name="Oslashacute" unicode="&#x1fe;" horiz-adv-x="818" 
d="M226 861l316 131l52 -131l-319 -99zM718 533c38 -56 58 -121 58 -192c0 -188 -155 -353 -368 -353c-69 0 -132 17 -186 48l-57 -60l-118 116l55 54c-39 57 -60 124 -60 195c0 189 153 351 366 351c70 0 133 -18 187 -48l59 60l118 -116zM206 341c0 -26 5 -51 15 -74
l260 261c-23 8 -46 11 -73 11c-119 0 -202 -85 -202 -198zM408 140c121 0 203 94 203 201c0 26 -5 51 -13 73l-260 -263c22 -8 45 -11 70 -11z" />
    <glyph glyph-name="Otilde" unicode="&#xd5;" horiz-adv-x="766" 
d="M285 951c86 0 130 -43 197 -43c71 0 108 31 108 31l41 -106c0 -4 -58 -66 -149 -66c-76 0 -122 41 -195 41c-54 0 -99 -25 -99 -25l-31 124c1 2 60 44 128 44zM383 692c193 0 351 -159 351 -352c0 -194 -158 -352 -351 -352c-195 0 -351 158 -351 352
c0 193 156 352 351 352zM383 539c-111 0 -201 -89 -201 -199c0 -111 90 -200 201 -200c109 0 199 89 199 200c0 110 -90 199 -199 199z" />
    <glyph glyph-name="OE" unicode="&#x152;" horiz-adv-x="1172" 
d="M1115 528h-357v-117h298v-142h-298v-117h357v-152h-522v51c-58 -40 -125 -63 -200 -63c-195 0 -351 158 -351 352c0 193 156 352 351 352c75 0 142 -24 200 -64v52h522v-152zM393 140c109 0 199 89 199 200c0 110 -90 199 -199 199c-111 0 -201 -89 -201 -199
c0 -111 90 -200 201 -200z" />
    <glyph glyph-name="P" unicode="P" horiz-adv-x="693" 
d="M385 680c174 0 258 -130 258 -262c0 -134 -85 -264 -259 -264h-148v-154h-165v680h314zM366 528h-130v-223h130c66 0 111 39 111 113c0 73 -45 109 -111 110z" />
    <glyph glyph-name="Thorn" unicode="&#xde;" horiz-adv-x="680" 
d="M240 680v-78h151c158 0 249 -102 249 -234s-91 -234 -249 -234h-151v-134h-164v680h164zM373 452h-133v-168h133c56 0 101 29 101 84s-45 83 -101 84z" />
    <glyph glyph-name="Q" unicode="Q" horiz-adv-x="797" 
d="M757 342c0 -85 -31 -165 -84 -226l47 -55l-111 -106l-60 67c-45 -21 -95 -34 -150 -34c-204 0 -357 166 -357 354s153 350 357 350s358 -162 358 -350zM206 342c0 -108 83 -202 193 -202c14 0 28 2 41 5l-95 107l115 107l104 -121c18 29 28 67 28 104
c0 113 -82 198 -193 198c-110 0 -193 -85 -193 -198z" />
    <glyph glyph-name="R" unicode="R" horiz-adv-x="707" 
d="M405 680c138 0 242 -107 242 -255c0 -98 -48 -181 -121 -220l140 -205h-204l-102 169h-120v-169h-164v680h329zM382 528h-142v-207h141c56 0 101 47 101 104c0 56 -45 103 -100 103z" />
    <glyph glyph-name="Racute" unicode="&#x154;" horiz-adv-x="707" 
d="M173 847l316 131l52 -131l-319 -99zM405 680c138 0 242 -107 242 -255c0 -98 -48 -181 -121 -220l140 -205h-204l-102 169h-120v-169h-164v680h329zM382 528h-142v-207h141c56 0 101 47 101 104c0 56 -45 103 -100 103z" />
    <glyph glyph-name="Rcaron" unicode="&#x158;" horiz-adv-x="707" 
d="M486 1003l71 -91l-226 -143l-226 143l71 91l155 -105zM405 680c138 0 242 -107 242 -255c0 -98 -48 -181 -121 -220l140 -205h-204l-102 169h-120v-169h-164v680h329zM382 528h-142v-207h141c56 0 101 47 101 104c0 56 -45 103 -100 103z" />
    <glyph glyph-name="Rcommaaccent" unicode="&#x156;" horiz-adv-x="707" 
d="M405 680c138 0 242 -107 242 -255c0 -98 -48 -181 -121 -220l140 -205h-204l-102 169h-120v-169h-164v680h329zM382 528h-142v-207h141c56 0 101 47 101 104c0 56 -45 103 -100 103zM460 -233l-137 107l-139 -216l99 -78z" />
    <glyph glyph-name="S" unicode="S" horiz-adv-x="664" 
d="M332 692c177 0 271 -121 271 -227h-163c0 34 -40 80 -110 80c-49 0 -109 -22 -109 -61c0 -33 45 -46 141 -71c107 -28 258 -64 258 -214c0 -130 -114 -211 -273 -211c-213 0 -302 144 -302 250h163s13 -108 148 -108c73 0 100 31 100 60c0 43 -57 58 -120 73
c-102 24 -281 62 -281 213c0 124 122 216 277 216z" />
    <glyph glyph-name="Sacute" unicode="&#x15a;" horiz-adv-x="664" 
d="M154 847l316 131l52 -131l-319 -99zM332 692c177 0 271 -121 271 -227h-163c0 34 -40 80 -110 80c-49 0 -109 -22 -109 -61c0 -33 45 -46 141 -71c107 -28 258 -64 258 -214c0 -130 -114 -211 -273 -211c-213 0 -302 144 -302 250h163s13 -108 148 -108
c73 0 100 31 100 60c0 43 -57 58 -120 73c-102 24 -281 62 -281 213c0 124 122 216 277 216z" />
    <glyph glyph-name="Scaron" unicode="&#x160;" horiz-adv-x="671" 
d="M492 1004l71 -91l-226 -143l-226 143l71 91l155 -105zM330 692c180 0 273 -121 273 -227h-163c0 34 -40 80 -110 80c-49 0 -109 -20 -109 -64c0 -35 82 -52 141 -68c94 -25 258 -60 258 -212c0 -132 -110 -213 -280 -213c-202 0 -295 144 -295 250h163s17 -108 142 -108
c83 0 106 31 106 61c0 42 -57 57 -120 72c-120 29 -281 64 -281 218c0 116 122 211 275 211z" />
    <glyph glyph-name="Scedilla" unicode="&#x15e;" horiz-adv-x="671" 
d="M620 199c0 -108 -79 -182 -197 -204l-93 -182l-146 61l80 122c-153 32 -219 151 -219 242h163s13 -108 148 -108c73 0 100 31 100 60c0 43 -57 58 -120 73c-102 24 -281 62 -281 213c0 124 122 216 277 216c177 0 271 -121 271 -227h-163c0 34 -40 80 -110 80
c-49 0 -109 -22 -109 -61c0 -33 45 -46 141 -71c107 -28 258 -64 258 -214z" />
    <glyph glyph-name="Scommaaccent" unicode="&#x218;" horiz-adv-x="664" 
d="M332 692c177 0 271 -121 271 -227h-163c0 34 -40 80 -110 80c-49 0 -109 -22 -109 -61c0 -33 45 -46 141 -71c107 -28 258 -64 258 -214c0 -130 -114 -211 -273 -211c-213 0 -302 144 -302 250h163s13 -108 148 -108c73 0 100 31 100 60c0 43 -57 58 -120 73
c-102 24 -281 62 -281 213c0 124 122 216 277 216zM462 -233l-137 107l-139 -216l99 -78z" />
    <glyph glyph-name="T" unicode="T" horiz-adv-x="720" 
d="M684 680v-152h-241v-528h-166v528h-241v152h648z" />
    <glyph glyph-name="Tbar" unicode="&#x166;" horiz-adv-x="720" 
d="M684 528h-241v-104h180v-142h-180v-282h-166v282h-182v142h182v104h-241v152h648v-152z" />
    <glyph glyph-name="Tcaron" unicode="&#x164;" horiz-adv-x="720" 
d="M516 1003l71 -91l-226 -143l-226 143l71 91l155 -105zM684 680v-152h-241v-528h-166v528h-241v152h648z" />
    <glyph glyph-name="uni0162" unicode="&#x162;" horiz-adv-x="720" 
d="M36 680h648v-152h-241v-528l-125 -276l-146 60l105 216v528h-241v152z" />
    <glyph glyph-name="uni021A" unicode="&#x21a;" horiz-adv-x="720" 
d="M684 680v-152h-241v-528h-166v528h-241v152h648zM481 -220l-137 107l-139 -216l99 -78z" />
    <glyph glyph-name="U" unicode="U" horiz-adv-x="740" 
d="M698 680v-331c0 -225 -142 -361 -332 -361c-193 0 -324 136 -324 361v331h164v-331c0 -131 56 -209 160 -209c102 0 166 78 166 209v331h166z" />
    <glyph glyph-name="Uacute" unicode="&#xda;" horiz-adv-x="740" 
d="M219 847l316 131l52 -131l-319 -99zM698 680v-331c0 -225 -142 -361 -332 -361c-193 0 -324 136 -324 361v331h164v-331c0 -131 56 -209 160 -209c102 0 166 78 166 209v331h166z" />
    <glyph glyph-name="Ubreve" unicode="&#x16c;" horiz-adv-x="740" 
d="M559 879c-26 -70 -93 -122 -176 -122c-76 0 -144 52 -169 122l100 49c16 -31 42 -53 71 -53c31 0 58 22 73 53zM698 680v-331c0 -225 -142 -361 -332 -361c-193 0 -324 136 -324 361v331h164v-331c0 -131 56 -209 160 -209c102 0 166 78 166 209v331h166z" />
    <glyph glyph-name="Ucircumflex" unicode="&#xdb;" horiz-adv-x="740" 
d="M388 870l-165 -110l-71 86l236 142l236 -142l-71 -86zM698 680v-331c0 -225 -142 -361 -332 -361c-193 0 -324 136 -324 361v331h164v-331c0 -131 56 -209 160 -209c102 0 166 78 166 209v331h166z" />
    <glyph glyph-name="Udieresis" unicode="&#xdc;" horiz-adv-x="740" 
d="M247 961c53 0 95 -43 95 -96c0 -50 -42 -93 -95 -93c-51 0 -93 43 -93 93c0 53 42 96 93 96zM527 961c53 0 96 -43 96 -96c0 -50 -43 -93 -96 -93c-50 0 -93 43 -93 93c0 53 43 96 93 96zM698 680v-331c0 -225 -142 -361 -332 -361c-193 0 -324 136 -324 361v331h164
v-331c0 -131 56 -209 160 -209c102 0 166 78 166 209v331h166z" />
    <glyph glyph-name="Ugrave" unicode="&#xd9;" horiz-adv-x="740" 
d="M185 852l56 134l316 -131l-53 -102zM698 680v-331c0 -225 -142 -361 -332 -361c-193 0 -324 136 -324 361v331h164v-331c0 -131 56 -209 160 -209c102 0 166 78 166 209v331h166z" />
    <glyph glyph-name="Uhungarumlaut" unicode="&#x170;" horiz-adv-x="740" 
d="M151 782l141 198l141 -14l-174 -200zM410 782l141 198l141 -14l-174 -200zM698 680v-331c0 -225 -142 -361 -332 -361c-193 0 -324 136 -324 361v331h164v-331c0 -131 56 -209 160 -209c102 0 166 78 166 209v331h166z" />
    <glyph glyph-name="Umacron" unicode="&#x16a;" horiz-adv-x="740" 
d="M610 770h-447v132h447v-132zM698 680v-331c0 -225 -142 -361 -332 -361c-193 0 -324 136 -324 361v331h164v-331c0 -131 56 -209 160 -209c102 0 166 78 166 209v331h166z" />
    <glyph glyph-name="Uogonek" unicode="&#x172;" horiz-adv-x="774" 
d="M698 680v-331c0 -88 -22 -162 -59 -220l6 -13s-90 -68 -90 -161c0 -76 54 -91 55 -91l-69 -73c-44 0 -128 41 -128 129c0 25 6 49 15 73c-20 -3 -41 -5 -62 -5c-193 0 -324 136 -324 361v331h164v-331c0 -131 56 -209 160 -209c102 0 166 78 166 209v331h166z" />
    <glyph glyph-name="Uring" unicode="&#x16e;" horiz-adv-x="740" 
d="M384 976c68 0 123 -55 123 -123c0 -65 -55 -120 -123 -120c-64 0 -119 55 -119 120c0 68 55 123 119 123zM385 890c-19 0 -35 -16 -35 -36c0 -19 16 -36 35 -36c21 0 37 17 37 36c0 20 -16 36 -37 36zM698 680v-331c0 -225 -142 -361 -332 -361c-193 0 -324 136 -324 361
v331h164v-331c0 -131 56 -209 160 -209c102 0 166 78 166 209v331h166z" />
    <glyph glyph-name="V" unicode="V" horiz-adv-x="850" 
d="M817 680l-302 -680h-180l-301 680h181l211 -486l210 486h181z" />
    <glyph glyph-name="W" unicode="W" horiz-adv-x="1197" 
d="M984 680h176l-255 -680h-168l-143 443l-160 -443h-170l-226 680h175l141 -441l155 441h179l138 -439z" />
    <glyph glyph-name="Wacute" unicode="&#x1e82;" horiz-adv-x="1197" 
d="M784 847l-319 -99l-49 99l316 131zM984 680h176l-255 -680h-168l-143 443l-160 -443h-170l-226 680h175l141 -441l155 441h179l138 -439z" />
    <glyph glyph-name="Wcircumflex" unicode="&#x174;" horiz-adv-x="1197" 
d="M598 870l-165 -110l-71 86l236 142l236 -142l-71 -86zM984 680h176l-255 -680h-168l-143 443l-160 -443h-170l-226 680h175l141 -441l155 441h179l138 -439z" />
    <glyph glyph-name="Wdieresis" unicode="&#x1e84;" horiz-adv-x="1197" 
d="M458 772c-51 0 -93 43 -93 93c0 53 42 96 93 96c53 0 95 -43 95 -96c0 -50 -42 -93 -95 -93zM738 772c-50 0 -93 43 -93 93c0 53 43 96 93 96c53 0 96 -43 96 -96c0 -50 -43 -93 -96 -93zM984 680h176l-255 -680h-168l-143 443l-160 -443h-170l-226 680h175l141 -441
l155 441h179l138 -439z" />
    <glyph glyph-name="Wgrave" unicode="&#x1e80;" horiz-adv-x="1197" 
d="M781 855l-53 -102l-319 99l56 134zM984 680h176l-255 -680h-168l-143 443l-160 -443h-170l-226 680h175l141 -441l155 441h179l138 -439z" />
    <glyph glyph-name="X" unicode="X" horiz-adv-x="763" 
d="M165 -11l-117 119l228 225l-240 242l117 117l240 -242l247 242l117 -116l-249 -245l227 -226l-119 -118l-224 228z" />
    <glyph glyph-name="Y" unicode="Y" horiz-adv-x="831" 
d="M790 680l-292 -423v-257h-165v257l-290 423h189l185 -278l182 278h191z" />
    <glyph glyph-name="Yacute" unicode="&#xdd;" horiz-adv-x="831" 
d="M233 847l316 131l52 -131l-319 -99zM790 680l-292 -423v-257h-165v257l-290 423h189l185 -278l182 278h191z" />
    <glyph glyph-name="Ycircumflex" unicode="&#x176;" horiz-adv-x="831" 
d="M418 870l-165 -110l-71 86l236 142l236 -142l-71 -86zM790 680l-292 -423v-257h-165v257l-290 423h189l185 -278l182 278h191z" />
    <glyph glyph-name="Ydieresis" unicode="&#x178;" horiz-adv-x="831" 
d="M276 961c53 0 95 -43 95 -96c0 -50 -42 -93 -95 -93c-51 0 -93 43 -93 93c0 53 42 96 93 96zM556 961c53 0 96 -43 96 -96c0 -50 -43 -93 -96 -93c-50 0 -93 43 -93 93c0 53 43 96 93 96zM790 680l-292 -423v-257h-165v257l-290 423h189l185 -278l182 278h191z" />
    <glyph glyph-name="Ygrave" unicode="&#x1ef2;" horiz-adv-x="831" 
d="M229 852l56 134l316 -131l-53 -102zM790 680l-292 -423v-257h-165v257l-290 423h189l185 -278l182 278h191z" />
    <glyph glyph-name="Z" unicode="Z" horiz-adv-x="800" 
d="M717 680v-145l-428 -383h435v-152h-677v147l440 381h-414v152h644z" />
    <glyph glyph-name="Zacute" unicode="&#x179;" horiz-adv-x="800" 
d="M217 847l316 131l52 -131l-319 -99zM717 680v-145l-428 -383h435v-152h-677v147l440 381h-414v152h644z" />
    <glyph glyph-name="Zcaron" unicode="&#x17d;" horiz-adv-x="800" 
d="M557 1003l71 -91l-226 -143l-226 143l71 91l155 -105zM717 680v-145l-428 -383h435v-152h-677v147l440 381h-414v152h644z" />
    <glyph glyph-name="Zdotaccent" unicode="&#x17b;" horiz-adv-x="800" 
d="M407 956c53 0 95 -43 95 -96c0 -50 -42 -93 -95 -93c-51 0 -93 43 -93 93c0 53 42 96 93 96zM717 680v-145l-428 -383h435v-152h-677v147l440 381h-414v152h644z" />
    <glyph glyph-name="X.ss01" horiz-adv-x="763" 
d="M716 680l-238 -340l238 -340h-193l-141 202l-142 -202h-193l238 340l-238 340h193l142 -202l141 202h193z" />
    <glyph glyph-name="a" unicode="a" horiz-adv-x="837" 
d="M627 0l-44 106h-328l-45 -106h-174l291 680h183l292 -680h-175zM312 240h214l-106 254z" />
    <glyph glyph-name="aacute" unicode="&#xe1;" horiz-adv-x="840" 
d="M596 847l-319 -99l-49 99l316 131zM627 0l-44 106h-328l-45 -106h-174l291 680h183l292 -680h-175zM312 240h214l-106 254z" />
    <glyph glyph-name="abreve" unicode="&#x103;" horiz-adv-x="840" 
d="M417 759c-76 0 -144 52 -169 122l100 49c16 -31 42 -53 71 -53c31 0 58 22 73 53l101 -49c-26 -70 -93 -122 -176 -122zM627 0l-44 106h-328l-45 -106h-174l291 680h183l292 -680h-175zM312 240h214l-106 254z" />
    <glyph glyph-name="acircumflex" unicode="&#xe2;" horiz-adv-x="840" 
d="M421 872l-165 -110l-71 86l236 142l236 -142l-71 -86zM627 0l-44 106h-328l-45 -106h-174l291 680h183l292 -680h-175zM312 240h214l-106 254z" />
    <glyph glyph-name="adieresis" unicode="&#xe4;" horiz-adv-x="840" 
d="M279 774c-51 0 -93 43 -93 93c0 53 42 96 93 96c53 0 95 -43 95 -96c0 -50 -42 -93 -95 -93zM559 774c-50 0 -93 43 -93 93c0 53 43 96 93 96c53 0 96 -43 96 -96c0 -50 -43 -93 -96 -93zM629 0l-44 106h-329l-45 -106h-175l292 682h184l292 -682h-175zM313 241h215
l-107 255z" />
    <glyph glyph-name="agrave" unicode="&#xe0;" horiz-adv-x="840" 
d="M604 855l-53 -102l-319 99l56 134zM627 0l-44 106h-328l-45 -106h-174l291 680h183l292 -680h-175zM312 240h214l-106 254z" />
    <glyph glyph-name="amacron" unicode="&#x101;" horiz-adv-x="840" 
d="M642 902v-132h-447v132h447zM627 0l-44 106h-328l-45 -106h-174l291 680h183l292 -680h-175zM312 240h214l-106 254z" />
    <glyph glyph-name="aogonek" unicode="&#x105;" horiz-adv-x="840" 
d="M714 -84c0 -37 54 -52 55 -52l-78 -84c-57 0 -120 51 -120 117c0 40 22 79 51 114l-39 95h-328l-45 -106h-174l291 680h183l241 -560l53 -120s-90 -27 -90 -84zM312 240h214l-106 254z" />
    <glyph glyph-name="aring" unicode="&#xe5;" horiz-adv-x="837" 
d="M418 878c68 0 122 -54 122 -122c0 -35 -17 -68 -42 -89l304 -667h-175l-45 106h-327l-45 -106h-174l303 667c-25 21 -41 54 -41 89c0 68 55 122 120 122zM419 793c-19 0 -36 -16 -36 -36c0 -19 17 -35 36 -35c20 0 36 16 36 35c0 20 -16 36 -36 36zM419 495l-107 -255
h213z" />
    <glyph glyph-name="aringacute" unicode="&#x1fb;" horiz-adv-x="837" 
d="M442 944l76 -60l-30 -28c31 -22 52 -58 52 -100c0 -35 -17 -68 -42 -89l304 -667h-175l-45 106h-327l-45 -106h-174l303 667c-25 21 -41 54 -41 89c0 37 17 69 41 91c34 32 103 97 103 97zM419 793c-19 0 -36 -16 -36 -36c0 -19 17 -35 36 -35c20 0 36 16 36 35
c0 20 -16 36 -36 36zM419 495l-107 -255h213z" />
    <glyph glyph-name="atilde" unicode="&#xe3;" horiz-adv-x="837" 
d="M313 809c-54 0 -99 -25 -99 -25l-31 124c1 2 60 44 128 44c86 0 130 -43 197 -43c71 0 108 31 108 31l41 -106c0 -4 -58 -66 -149 -66c-76 0 -122 41 -195 41zM627 0l-44 106h-328l-45 -106h-174l291 680h183l292 -680h-175zM312 240h214l-106 254z" />
    <glyph glyph-name="ae" unicode="&#xe6;" horiz-adv-x="1114" 
d="M709 528v-117h298v-142h-298v-117h357v-152h-523v269h-208l-129 -269h-170l327 680h703v-152h-357zM543 528h-83l-57 -117h140v117z" />
    <glyph glyph-name="aeacute" unicode="&#x1fd;" horiz-adv-x="1123" 
d="M521 847l316 131l52 -131l-319 -99zM709 528v-117h298v-142h-298v-117h357v-152h-523v269h-208l-129 -269h-170l327 680h703v-152h-357zM543 528h-83l-57 -117h140v117z" />
    <glyph glyph-name="b" unicode="b" horiz-adv-x="707" 
d="M566 363c66 -33 102 -92 102 -165c0 -111 -71 -198 -257 -198h-335v680h295c197 0 259 -78 259 -187c0 -70 -49 -119 -64 -130zM381 398c71 0 93 21 93 74c0 46 -30 68 -93 68h-141v-142h141zM491 207c0 50 -34 66 -99 66h-152v-132h152c66 0 99 22 99 66z" />
    <glyph glyph-name="c" unicode="c" horiz-adv-x="763" 
d="M590 245l139 -80c-61 -102 -174 -177 -318 -177c-213 0 -368 156 -368 357c0 189 155 347 368 347c145 0 259 -68 320 -170l-139 -81c-32 62 -95 103 -181 103c-119 0 -202 -87 -202 -199c0 -108 83 -203 202 -203c84 0 146 43 179 103z" />
    <glyph glyph-name="cacute" unicode="&#x107;" horiz-adv-x="763" 
d="M214 847l316 131l52 -131l-319 -99zM590 245l139 -80c-61 -102 -174 -177 -318 -177c-213 0 -368 156 -368 357c0 189 155 347 368 347c145 0 259 -68 320 -170l-139 -81c-32 62 -95 103 -181 103c-119 0 -202 -87 -202 -199c0 -108 83 -203 202 -203
c84 0 146 43 179 103z" />
    <glyph glyph-name="ccaron" unicode="&#x10d;" horiz-adv-x="763" 
d="M542 1003l71 -91l-226 -143l-226 143l71 91l155 -105zM590 245l139 -80c-61 -102 -174 -177 -318 -177c-213 0 -368 156 -368 357c0 189 155 347 368 347c145 0 259 -68 320 -170l-139 -81c-32 62 -95 103 -181 103c-119 0 -202 -87 -202 -199c0 -108 83 -203 202 -203
c84 0 146 43 179 103z" />
    <glyph glyph-name="ccedilla" unicode="&#xe7;" horiz-adv-x="761" 
d="M590 245l139 -80c-61 -102 -174 -177 -318 -177c-213 0 -368 156 -368 357c0 189 155 347 368 347c145 0 259 -68 320 -170l-139 -81c-32 62 -95 103 -181 103c-119 0 -202 -87 -202 -199c0 -108 83 -203 202 -203c84 0 146 43 179 103zM187 -109h390v-126h-390v126z" />
    <glyph glyph-name="cdotaccent" unicode="&#x10b;" horiz-adv-x="763" 
d="M384 956c53 0 95 -43 95 -96c0 -50 -42 -93 -95 -93c-51 0 -93 43 -93 93c0 53 42 96 93 96zM590 245l139 -80c-61 -102 -174 -177 -318 -177c-213 0 -368 156 -368 357c0 189 155 347 368 347c145 0 259 -68 320 -170l-139 -81c-32 62 -95 103 -181 103
c-119 0 -202 -87 -202 -199c0 -108 83 -203 202 -203c84 0 146 43 179 103z" />
    <glyph glyph-name="d" unicode="d" horiz-adv-x="775" 
d="M377 680c224 1 359 -143 359 -339c0 -198 -147 -341 -359 -341h-301v679zM240 528v-376h137c114 0 193 75 193 189c0 122 -77 187 -193 187h-137z" />
    <glyph glyph-name="eth" unicode="&#xf0;" horiz-adv-x="864" 
d="M463 680c224 0 359 -143 359 -339c0 -198 -147 -341 -359 -341h-301v269h-126v142h126v269h301zM463 528h-136v-117h199v-142h-199v-117h136c114 0 193 75 193 189c0 122 -77 187 -193 187z" />
    <glyph glyph-name="dcaron" unicode="&#x10f;" horiz-adv-x="775" 
d="M514 1004l71 -91l-226 -143l-226 143l71 91l155 -105zM377 680c224 0 359 -143 359 -339c0 -198 -147 -341 -359 -341h-301v680h301zM240 528v-376h137c114 0 193 75 193 189c0 122 -77 187 -193 187h-137z" />
    <glyph glyph-name="dcroat" unicode="&#x111;" horiz-adv-x="864" 
d="M463 680c224 0 359 -143 359 -339c0 -198 -147 -341 -359 -341h-301v269h-126v142h126v269h301zM463 528h-136v-117h199v-142h-199v-117h136c114 0 193 75 193 189c0 122 -77 187 -193 187z" />
    <glyph glyph-name="e" unicode="e" 
d="M76 680h521v-152h-357v-117h298v-142h-298v-117h357v-152h-521v680z" />
    <glyph glyph-name="eacute" unicode="&#xe9;" 
d="M155 847l316 131l52 -131l-319 -99zM76 680h521v-152h-357v-117h298v-142h-298v-117h357v-152h-521v680z" />
    <glyph glyph-name="ebreve" unicode="&#x115;" 
d="M511 879c-26 -70 -93 -122 -176 -122c-76 0 -144 52 -169 122l100 49c16 -31 42 -53 71 -53c31 0 58 22 73 53zM76 680h521v-152h-357v-117h298v-142h-298v-117h357v-152h-521v680z" />
    <glyph glyph-name="ecaron" unicode="&#x11b;" 
d="M504 1003l71 -91l-226 -143l-226 143l71 91l155 -105zM76 680h521v-152h-357v-117h298v-142h-298v-117h357v-152h-521v680z" />
    <glyph glyph-name="ecircumflex" unicode="&#xea;" 
d="M328 870l-165 -110l-71 86l236 142l236 -142l-71 -86zM76 680h521v-152h-357v-117h298v-142h-298v-117h357v-152h-521v680z" />
    <glyph glyph-name="edieresis" unicode="&#xeb;" 
d="M183 961c53 0 95 -43 95 -96c0 -50 -42 -93 -95 -93c-51 0 -93 43 -93 93c0 53 42 96 93 96zM463 961c53 0 96 -43 96 -96c0 -50 -43 -93 -96 -93c-50 0 -93 43 -93 93c0 53 43 96 93 96zM76 680h521v-152h-357v-117h298v-142h-298v-117h357v-152h-521v680z" />
    <glyph glyph-name="edotaccent" unicode="&#x117;" 
d="M334 956c53 0 95 -43 95 -96c0 -50 -42 -93 -95 -93c-51 0 -93 43 -93 93c0 53 42 96 93 96zM76 680h521v-152h-357v-117h298v-142h-298v-117h357v-152h-521v680z" />
    <glyph glyph-name="egrave" unicode="&#xe8;" 
d="M154 852l56 134l316 -131l-53 -102zM76 680h521v-152h-357v-117h298v-142h-298v-117h357v-152h-521v680z" />
    <glyph glyph-name="emacron" unicode="&#x113;" 
d="M562 770h-447v132h447v-132zM76 680h521v-152h-357v-117h298v-142h-298v-117h357v-152h-521v680z" />
    <glyph glyph-name="eogonek" unicode="&#x119;" 
d="M597 528h-357v-117h298v-142h-298v-117h357v-152h-1s-90 -27 -90 -84c0 -37 54 -52 55 -52l-69 -73c-44 0 -128 41 -128 129c0 32 10 59 25 80h-313v680h521v-152z" />
    <glyph glyph-name="f" unicode="f" horiz-adv-x="649" 
d="M597 680v-152h-357v-156h298v-151h-298v-221h-164v680h521z" />
    <glyph glyph-name="g" unicode="g" horiz-adv-x="772" 
d="M412 692c131 0 237 -59 305 -149l-142 -72c-34 43 -87 67 -165 67c-119 0 -202 -83 -202 -196c0 -108 85 -201 204 -201c73 0 131 23 167 57v66h-207v126h352v-252c-5 -10 -112 -150 -311 -150c-225 0 -370 169 -370 352c0 189 155 352 369 352z" />
    <glyph glyph-name="gbreve" unicode="&#x11f;" horiz-adv-x="772" 
d="M555 879c-26 -70 -93 -122 -176 -122c-76 0 -144 52 -169 122l100 49c16 -31 42 -53 71 -53c31 0 58 22 73 53zM412 692c131 0 237 -59 305 -149l-142 -72c-34 43 -87 67 -165 67c-119 0 -202 -83 -202 -196c0 -108 85 -201 204 -201c73 0 131 23 167 57v66h-207v126h352
v-252c-5 -10 -112 -150 -311 -150c-225 0 -370 169 -370 352c0 189 155 352 369 352z" />
    <glyph glyph-name="gcommaaccent" unicode="&#x123;" horiz-adv-x="772" 
d="M412 692c131 0 237 -59 305 -149l-142 -72c-34 43 -87 67 -165 67c-119 0 -202 -83 -202 -196c0 -108 85 -201 204 -201c73 0 131 23 167 57v66h-207v126h352v-252c-5 -10 -112 -150 -311 -150c-225 0 -370 169 -370 352c0 189 155 352 369 352zM522 -233l-137 107
l-139 -216l99 -78z" />
    <glyph glyph-name="gdotaccent" unicode="&#x121;" horiz-adv-x="772" 
d="M382 956c53 0 95 -43 95 -96c0 -50 -42 -93 -95 -93c-51 0 -93 43 -93 93c0 53 42 96 93 96zM412 692c131 0 237 -59 305 -149l-142 -72c-34 43 -87 67 -165 67c-119 0 -202 -83 -202 -196c0 -108 85 -201 204 -201c73 0 131 23 167 57v66h-207v126h352v-252
c-5 -10 -112 -150 -311 -150c-225 0 -370 169 -370 352c0 189 155 352 369 352z" />
    <glyph glyph-name="h" unicode="h" horiz-adv-x="780" 
d="M704 680v-680h-165v264h-299v-264h-164v680h164v-264h299v264h165z" />
    <glyph glyph-name="hbar" unicode="&#x127;" horiz-adv-x="888" 
d="M759 680v-93h99v-122h-99v-465h-165v264h-299v-264h-164v465h-101v122h101v93h164v-93h299v93h165zM594 465h-299v-49h299v49z" />
    <glyph glyph-name="i" unicode="i" horiz-adv-x="316" 
d="M240 680v-680h-164v680h164z" />
    <glyph glyph-name="iacute" unicode="&#xed;" horiz-adv-x="316" 
d="M-34 847l316 131l52 -131l-319 -99zM240 680v-680h-164v680h164z" />
    <glyph glyph-name="ibreve" unicode="&#x12d;" horiz-adv-x="316" 
d="M330 879c-26 -70 -93 -122 -176 -122c-76 0 -144 52 -169 122l100 49c16 -31 42 -53 71 -53c31 0 58 22 73 53zM240 680v-680h-164v680h164z" />
    <glyph glyph-name="icircumflex" unicode="&#xee;" horiz-adv-x="316" 
d="M153 870l-165 -110l-71 86l236 142l236 -142l-71 -86zM240 680v-680h-164v680h164z" />
    <glyph glyph-name="idieresis" unicode="&#xef;" horiz-adv-x="316" 
d="M7 961c53 0 95 -43 95 -96c0 -50 -42 -93 -95 -93c-51 0 -93 43 -93 93c0 53 42 96 93 96zM287 961c53 0 96 -43 96 -96c0 -50 -43 -93 -96 -93c-50 0 -93 43 -93 93c0 53 43 96 93 96zM240 680v-680h-164v680h164z" />
    <glyph glyph-name="i.loclTRK" horiz-adv-x="316" 
d="M157 956c53 0 95 -43 95 -96c0 -50 -42 -93 -95 -93c-51 0 -93 43 -93 93c0 53 42 96 93 96zM240 680v-680h-164v680h164z" />
    <glyph glyph-name="igrave" unicode="&#xec;" horiz-adv-x="316" 
d="M-19 852l56 134l316 -131l-53 -102zM240 680v-680h-164v680h164z" />
    <glyph glyph-name="imacron" unicode="&#x12b;" horiz-adv-x="316" 
d="M382 770h-447v132h447v-132zM240 680v-680h-164v680h164z" />
    <glyph glyph-name="iogonek" unicode="&#x12f;" horiz-adv-x="327" 
d="M162 -84c0 -37 62 -52 63 -52l-68 -73c-44 0 -138 41 -138 129c0 56 29 94 66 120v640h164v-674l2 -6s-89 -27 -89 -84z" />
    <glyph glyph-name="j" unicode="j" horiz-adv-x="644" 
d="M587 680v-386c0 -183 -89 -306 -273 -306c-152 0 -273 123 -273 299h164c0 -97 42 -147 109 -147c68 0 108 50 108 154v386h165z" />
    <glyph glyph-name="k" unicode="k" horiz-adv-x="782" 
d="M706 680l-234 -274l284 -406h-213l-186 281l-117 -128v-153h-164v680h164v-299l260 299h206z" />
    <glyph glyph-name="kcommaaccent" unicode="&#x137;" horiz-adv-x="782" 
d="M706 680l-234 -274l284 -406h-213l-186 281l-117 -128v-153h-164v680h164v-299l260 299h206zM513 -233l-137 107l-139 -216l99 -78z" />
    <glyph glyph-name="l" unicode="l" horiz-adv-x="638" 
d="M240 680v-528h357v-152h-521v680h164z" />
    <glyph glyph-name="lacute" unicode="&#x13a;" horiz-adv-x="638" 
d="M-13 847l316 131l52 -131l-319 -99zM240 680v-528h357v-152h-521v680h164z" />
    <glyph glyph-name="lcaron" unicode="&#x13e;" horiz-adv-x="638" 
d="M240 680v-528h357v-152h-521v680h164zM368 426l36 254l156 -24l-51 -255z" />
    <glyph glyph-name="lcommaaccent" unicode="&#x13c;" horiz-adv-x="638" 
d="M240 680v-528h357v-152h-521v680h164zM442 -233l-137 107l-139 -216l99 -78z" />
    <glyph glyph-name="ldot" unicode="&#x140;" horiz-adv-x="638" 
d="M240 680v-528h357v-152h-521v680h164zM465 495c53 0 95 -43 95 -96c0 -50 -42 -93 -95 -93c-51 0 -93 43 -93 93c0 53 42 96 93 96z" />
    <glyph glyph-name="lslash" unicode="&#x142;" horiz-adv-x="638" 
d="M240 152h357v-152h-521v223l-85 -47v173l85 47v284h164v-194l154 84v-171l-154 -85v-162z" />
    <glyph glyph-name="m" unicode="m" horiz-adv-x="989" 
d="M914 680v-680h-165v347l-163 -347h-183l-163 347v-347h-164v680h182l237 -499l236 499h183z" />
    <glyph glyph-name="n" unicode="n" horiz-adv-x="807" 
d="M740 680v-680h-165l-344 416v-416h-165v680h165l344 -415v415h165z" />
    <glyph glyph-name="nacute" unicode="&#x144;" horiz-adv-x="807" 
d="M219 847l316 131l52 -131l-319 -99zM740 680v-680h-165l-344 416v-416h-165v680h165l344 -415v415h165z" />
    <glyph glyph-name="ncaron" unicode="&#x148;" horiz-adv-x="807" 
d="M542 1003l71 -91l-226 -143l-226 143l71 91l155 -105zM740 680v-680h-165l-344 416v-416h-165v680h165l344 -415v415h165z" />
    <glyph glyph-name="ncommaaccent" unicode="&#x146;" horiz-adv-x="807" 
d="M740 680v-680h-165l-344 416v-416h-165v680h165l344 -415v415h165zM530 -233l-137 107l-139 -216l99 -78z" />
    <glyph glyph-name="eng" unicode="&#x14b;" horiz-adv-x="826" 
d="M750 680v-680c0 -72 -11 -143 -78 -161c-75 -19 -208 25 -208 25l28 107s58 -29 79 -15c25 18 13 44 13 44l-344 416v-416h-164v680h164l344 -415v415h166z" />
    <glyph glyph-name="ntilde" unicode="&#xf1;" horiz-adv-x="807" 
d="M296 951c86 0 130 -43 197 -43c71 0 108 31 108 31l41 -106c0 -4 -58 -66 -149 -66c-76 0 -122 41 -195 41c-54 0 -99 -25 -99 -25l-31 124c1 2 60 44 128 44zM740 680v-680h-165l-344 416v-416h-165v680h165l344 -415v415h165z" />
    <glyph glyph-name="o" unicode="o" horiz-adv-x="766" 
d="M383 692c193 0 351 -159 351 -352c0 -194 -158 -352 -351 -352c-195 0 -351 158 -351 352c0 193 156 352 351 352zM383 539c-111 0 -201 -89 -201 -199c0 -111 90 -200 201 -200c109 0 199 89 199 200c0 110 -90 199 -199 199z" />
    <glyph glyph-name="oacute" unicode="&#xf3;" horiz-adv-x="766" 
d="M208 847l316 131l52 -131l-319 -99zM383 692c193 0 351 -159 351 -352c0 -194 -158 -352 -351 -352c-195 0 -351 158 -351 352c0 193 156 352 351 352zM383 539c-111 0 -201 -89 -201 -199c0 -111 90 -200 201 -200c109 0 199 89 199 200c0 110 -90 199 -199 199z" />
    <glyph glyph-name="obreve" unicode="&#x14f;" horiz-adv-x="766" 
d="M565 879c-26 -70 -93 -122 -176 -122c-76 0 -144 52 -169 122l100 49c16 -31 42 -53 71 -53c31 0 58 22 73 53zM383 692c193 0 351 -159 351 -352c0 -194 -158 -352 -351 -352c-195 0 -351 158 -351 352c0 193 156 352 351 352zM383 539c-111 0 -201 -89 -201 -199
c0 -111 90 -200 201 -200c109 0 199 89 199 200c0 110 -90 199 -199 199z" />
    <glyph glyph-name="ocircumflex" unicode="&#xf4;" horiz-adv-x="766" 
d="M394 870l-165 -110l-71 86l236 142l236 -142l-71 -86zM383 692c193 0 351 -159 351 -352c0 -194 -158 -352 -351 -352c-195 0 -351 158 -351 352c0 193 156 352 351 352zM383 539c-111 0 -201 -89 -201 -199c0 -111 90 -200 201 -200c109 0 199 89 199 200
c0 110 -90 199 -199 199z" />
    <glyph glyph-name="odieresis" unicode="&#xf6;" horiz-adv-x="766" 
d="M253 961c53 0 95 -43 95 -96c0 -50 -42 -93 -95 -93c-51 0 -93 43 -93 93c0 53 42 96 93 96zM533 961c53 0 96 -43 96 -96c0 -50 -43 -93 -96 -93c-50 0 -93 43 -93 93c0 53 43 96 93 96zM383 692c193 0 351 -159 351 -352c0 -194 -158 -352 -351 -352
c-195 0 -351 158 -351 352c0 193 156 352 351 352zM383 539c-111 0 -201 -89 -201 -199c0 -111 90 -200 201 -200c109 0 199 89 199 200c0 110 -90 199 -199 199z" />
    <glyph glyph-name="ograve" unicode="&#xf2;" horiz-adv-x="766" 
d="M230 852l56 134l316 -131l-53 -102zM383 692c193 0 351 -159 351 -352c0 -194 -158 -352 -351 -352c-195 0 -351 158 -351 352c0 193 156 352 351 352zM383 539c-111 0 -201 -89 -201 -199c0 -111 90 -200 201 -200c109 0 199 89 199 200c0 110 -90 199 -199 199z" />
    <glyph glyph-name="ohungarumlaut" unicode="&#x151;" horiz-adv-x="766" 
d="M180 782l141 198l141 -14l-174 -200zM439 782l141 198l141 -14l-174 -200zM383 692c193 0 351 -159 351 -352c0 -194 -158 -352 -351 -352c-195 0 -351 158 -351 352c0 193 156 352 351 352zM383 539c-111 0 -201 -89 -201 -199c0 -111 90 -200 201 -200
c109 0 199 89 199 200c0 110 -90 199 -199 199z" />
    <glyph glyph-name="omacron" unicode="&#x14d;" horiz-adv-x="766" 
d="M616 770h-447v132h447v-132zM383 692c193 0 351 -159 351 -352c0 -194 -158 -352 -351 -352c-195 0 -351 158 -351 352c0 193 156 352 351 352zM383 539c-111 0 -201 -89 -201 -199c0 -111 90 -200 201 -200c109 0 199 89 199 200c0 110 -90 199 -199 199z" />
    <glyph glyph-name="oslash" unicode="&#xf8;" horiz-adv-x="818" 
d="M718 533c38 -56 58 -121 58 -192c0 -188 -155 -353 -368 -353c-69 0 -132 17 -186 48l-57 -60l-118 116l55 54c-39 57 -60 124 -60 195c0 189 153 351 366 351c70 0 133 -18 187 -48l59 60l118 -116zM206 341c0 -26 5 -51 15 -74l260 261c-23 8 -46 11 -73 11
c-119 0 -202 -85 -202 -198zM408 140c121 0 203 94 203 201c0 26 -5 51 -13 73l-260 -263c22 -8 45 -11 70 -11z" />
    <glyph glyph-name="oslashacute" unicode="&#x1ff;" horiz-adv-x="818" 
d="M226 861l316 131l52 -131l-319 -99zM718 533c38 -56 58 -121 58 -192c0 -188 -155 -353 -368 -353c-69 0 -132 17 -186 48l-57 -60l-118 116l55 54c-39 57 -60 124 -60 195c0 189 153 351 366 351c70 0 133 -18 187 -48l59 60l118 -116zM206 341c0 -26 5 -51 15 -74
l260 261c-23 8 -46 11 -73 11c-119 0 -202 -85 -202 -198zM408 140c121 0 203 94 203 201c0 26 -5 51 -13 73l-260 -263c22 -8 45 -11 70 -11z" />
    <glyph glyph-name="otilde" unicode="&#xf5;" horiz-adv-x="766" 
d="M285 951c86 0 130 -43 197 -43c71 0 108 31 108 31l41 -106c0 -4 -58 -66 -149 -66c-76 0 -122 41 -195 41c-54 0 -99 -25 -99 -25l-31 124c1 2 60 44 128 44zM383 692c193 0 351 -159 351 -352c0 -194 -158 -352 -351 -352c-195 0 -351 158 -351 352
c0 193 156 352 351 352zM383 539c-111 0 -201 -89 -201 -199c0 -111 90 -200 201 -200c109 0 199 89 199 200c0 110 -90 199 -199 199z" />
    <glyph glyph-name="oe" unicode="&#x153;" horiz-adv-x="1172" 
d="M1115 528h-357v-117h298v-142h-298v-117h357v-152h-522v51c-58 -40 -125 -63 -200 -63c-195 0 -351 158 -351 352c0 193 156 352 351 352c75 0 142 -24 200 -64v52h522v-152zM393 140c109 0 199 89 199 200c0 110 -90 199 -199 199c-111 0 -201 -89 -201 -199
c0 -111 90 -200 201 -200z" />
    <glyph glyph-name="p" unicode="p" horiz-adv-x="693" 
d="M385 680c174 0 258 -130 258 -262c0 -134 -85 -264 -259 -264h-148v-154h-165v680h314zM366 528h-130v-223h130c66 0 111 39 111 113c0 73 -45 109 -111 110z" />
    <glyph glyph-name="thorn" unicode="&#xfe;" horiz-adv-x="680" 
d="M240 680v-78h151c158 0 249 -102 249 -234s-91 -234 -249 -234h-151v-134h-164v680h164zM373 452h-133v-168h133c56 0 101 29 101 84s-45 83 -101 84z" />
    <glyph glyph-name="q" unicode="q" horiz-adv-x="797" 
d="M757 342c0 -85 -31 -165 -84 -226l47 -55l-111 -106l-60 67c-45 -21 -95 -34 -150 -34c-204 0 -357 166 -357 354s153 350 357 350s358 -162 358 -350zM206 342c0 -108 83 -202 193 -202c14 0 28 2 41 5l-95 107l115 107l104 -121c18 29 28 67 28 104
c0 113 -82 198 -193 198c-110 0 -193 -85 -193 -198z" />
    <glyph glyph-name="r" unicode="r" horiz-adv-x="707" 
d="M405 680c138 0 242 -107 242 -255c0 -98 -48 -181 -121 -220l140 -205h-204l-102 169h-120v-169h-164v680h329zM382 528h-142v-207h141c56 0 101 47 101 104c0 56 -45 103 -100 103z" />
    <glyph glyph-name="racute" unicode="&#x155;" horiz-adv-x="707" 
d="M173 847l316 131l52 -131l-319 -99zM405 680c138 0 242 -107 242 -255c0 -98 -48 -181 -121 -220l140 -205h-204l-102 169h-120v-169h-164v680h329zM382 528h-142v-207h141c56 0 101 47 101 104c0 56 -45 103 -100 103z" />
    <glyph glyph-name="rcaron" unicode="&#x159;" horiz-adv-x="707" 
d="M486 1003l71 -91l-226 -143l-226 143l71 91l155 -105zM405 680c138 0 242 -107 242 -255c0 -98 -48 -181 -121 -220l140 -205h-204l-102 169h-120v-169h-164v680h329zM382 528h-142v-207h141c56 0 101 47 101 104c0 56 -45 103 -100 103z" />
    <glyph glyph-name="rcommaaccent" unicode="&#x157;" horiz-adv-x="707" 
d="M405 680c138 0 242 -107 242 -255c0 -98 -48 -181 -121 -220l140 -205h-204l-102 169h-120v-169h-164v680h329zM382 528h-142v-207h141c56 0 101 47 101 104c0 56 -45 103 -100 103zM460 -233l-137 107l-139 -216l99 -78z" />
    <glyph glyph-name="s" unicode="s" horiz-adv-x="664" 
d="M332 692c177 0 271 -121 271 -227h-163c0 34 -40 80 -110 80c-49 0 -109 -22 -109 -61c0 -33 45 -46 141 -71c107 -28 258 -64 258 -214c0 -130 -114 -211 -273 -211c-213 0 -302 144 -302 250h163s13 -108 148 -108c73 0 100 31 100 60c0 43 -57 58 -120 73
c-102 24 -281 62 -281 213c0 124 122 216 277 216z" />
    <glyph glyph-name="sacute" unicode="&#x15b;" horiz-adv-x="664" 
d="M154 847l316 131l52 -131l-319 -99zM332 692c177 0 271 -121 271 -227h-163c0 34 -40 80 -110 80c-49 0 -109 -22 -109 -61c0 -33 45 -46 141 -71c107 -28 258 -64 258 -214c0 -130 -114 -211 -273 -211c-213 0 -302 144 -302 250h163s13 -108 148 -108
c73 0 100 31 100 60c0 43 -57 58 -120 73c-102 24 -281 62 -281 213c0 124 122 216 277 216z" />
    <glyph glyph-name="scaron" unicode="&#x161;" horiz-adv-x="671" 
d="M492 1004l71 -91l-226 -143l-226 143l71 91l155 -105zM330 692c180 0 273 -121 273 -227h-163c0 34 -40 80 -110 80c-49 0 -109 -20 -109 -64c0 -35 82 -52 141 -68c94 -25 258 -60 258 -212c0 -132 -110 -213 -280 -213c-202 0 -295 144 -295 250h163s17 -108 142 -108
c83 0 106 31 106 61c0 42 -57 57 -120 72c-120 29 -281 64 -281 218c0 116 122 211 275 211z" />
    <glyph glyph-name="scedilla" unicode="&#x15f;" horiz-adv-x="671" 
d="M620 199c0 -108 -79 -182 -197 -204l-93 -182l-146 61l80 122c-153 32 -219 151 -219 242h163s13 -108 148 -108c73 0 100 31 100 60c0 43 -57 58 -120 73c-102 24 -281 62 -281 213c0 124 122 216 277 216c177 0 271 -121 271 -227h-163c0 34 -40 80 -110 80
c-49 0 -109 -22 -109 -61c0 -33 45 -46 141 -71c107 -28 258 -64 258 -214z" />
    <glyph glyph-name="scommaaccent" unicode="&#x219;" horiz-adv-x="664" 
d="M332 692c177 0 271 -121 271 -227h-163c0 34 -40 80 -110 80c-49 0 -109 -22 -109 -61c0 -33 45 -46 141 -71c107 -28 258 -64 258 -214c0 -130 -114 -211 -273 -211c-213 0 -302 144 -302 250h163s13 -108 148 -108c73 0 100 31 100 60c0 43 -57 58 -120 73
c-102 24 -281 62 -281 213c0 124 122 216 277 216zM462 -233l-137 107l-139 -216l99 -78z" />
    <glyph glyph-name="t" unicode="t" horiz-adv-x="720" 
d="M684 680v-152h-241v-528h-166v528h-241v152h648z" />
    <glyph glyph-name="tbar" unicode="&#x167;" horiz-adv-x="720" 
d="M684 528h-241v-104h180v-142h-180v-282h-166v282h-182v142h182v104h-241v152h648v-152z" />
    <glyph glyph-name="tcaron" unicode="&#x165;" horiz-adv-x="720" 
d="M516 1003l71 -91l-226 -143l-226 143l71 91l155 -105zM684 680v-152h-241v-528h-166v528h-241v152h648z" />
    <glyph glyph-name="uni0163" unicode="&#x163;" horiz-adv-x="720" 
d="M36 680h648v-152h-241v-528l-125 -276l-146 60l105 216v528h-241v152z" />
    <glyph glyph-name="uni021B" unicode="&#x21b;" horiz-adv-x="720" 
d="M684 680v-152h-241v-528h-166v528h-241v152h648zM481 -220l-137 107l-139 -216l99 -78z" />
    <glyph glyph-name="u" unicode="u" horiz-adv-x="740" 
d="M698 680v-331c0 -225 -142 -361 -332 -361c-193 0 -324 136 -324 361v331h164v-331c0 -131 56 -209 160 -209c102 0 166 78 166 209v331h166z" />
    <glyph glyph-name="uacute" unicode="&#xfa;" horiz-adv-x="740" 
d="M219 847l316 131l52 -131l-319 -99zM698 680v-331c0 -225 -142 -361 -332 -361c-193 0 -324 136 -324 361v331h164v-331c0 -131 56 -209 160 -209c102 0 166 78 166 209v331h166z" />
    <glyph glyph-name="ubreve" unicode="&#x16d;" horiz-adv-x="740" 
d="M559 879c-26 -70 -93 -122 -176 -122c-76 0 -144 52 -169 122l100 49c16 -31 42 -53 71 -53c31 0 58 22 73 53zM698 680v-331c0 -225 -142 -361 -332 -361c-193 0 -324 136 -324 361v331h164v-331c0 -131 56 -209 160 -209c102 0 166 78 166 209v331h166z" />
    <glyph glyph-name="ucircumflex" unicode="&#xfb;" horiz-adv-x="740" 
d="M388 870l-165 -110l-71 86l236 142l236 -142l-71 -86zM698 680v-331c0 -225 -142 -361 -332 -361c-193 0 -324 136 -324 361v331h164v-331c0 -131 56 -209 160 -209c102 0 166 78 166 209v331h166z" />
    <glyph glyph-name="udieresis" unicode="&#xfc;" horiz-adv-x="740" 
d="M247 961c53 0 95 -43 95 -96c0 -50 -42 -93 -95 -93c-51 0 -93 43 -93 93c0 53 42 96 93 96zM527 961c53 0 96 -43 96 -96c0 -50 -43 -93 -96 -93c-50 0 -93 43 -93 93c0 53 43 96 93 96zM698 680v-331c0 -225 -142 -361 -332 -361c-193 0 -324 136 -324 361v331h164
v-331c0 -131 56 -209 160 -209c102 0 166 78 166 209v331h166z" />
    <glyph glyph-name="ugrave" unicode="&#xf9;" horiz-adv-x="740" 
d="M185 852l56 134l316 -131l-53 -102zM698 680v-331c0 -225 -142 -361 -332 -361c-193 0 -324 136 -324 361v331h164v-331c0 -131 56 -209 160 -209c102 0 166 78 166 209v331h166z" />
    <glyph glyph-name="uhungarumlaut" unicode="&#x171;" horiz-adv-x="740" 
d="M151 782l141 198l141 -14l-174 -200zM410 782l141 198l141 -14l-174 -200zM698 680v-331c0 -225 -142 -361 -332 -361c-193 0 -324 136 -324 361v331h164v-331c0 -131 56 -209 160 -209c102 0 166 78 166 209v331h166z" />
    <glyph glyph-name="umacron" unicode="&#x16b;" horiz-adv-x="740" 
d="M610 770h-447v132h447v-132zM698 680v-331c0 -225 -142 -361 -332 -361c-193 0 -324 136 -324 361v331h164v-331c0 -131 56 -209 160 -209c102 0 166 78 166 209v331h166z" />
    <glyph glyph-name="uogonek" unicode="&#x173;" horiz-adv-x="774" 
d="M532 680h166v-331c0 -132 -49 -233 -128 -295c-18 -26 -33 -61 -33 -99c0 -76 54 -91 55 -91l-69 -73c-44 0 -128 41 -128 129c0 24 5 48 14 70c-14 -1 -28 -2 -43 -2c-193 0 -324 136 -324 361v331h164v-331c0 -131 56 -209 160 -209c102 0 166 78 166 209v331z" />
    <glyph glyph-name="uring" unicode="&#x16f;" horiz-adv-x="740" 
d="M384 976c68 0 123 -55 123 -123c0 -65 -55 -120 -123 -120c-64 0 -119 55 -119 120c0 68 55 123 119 123zM385 890c-19 0 -35 -16 -35 -36c0 -19 16 -36 35 -36c21 0 37 17 37 36c0 20 -16 36 -37 36zM698 680v-331c0 -225 -142 -361 -332 -361c-193 0 -324 136 -324 361
v331h164v-331c0 -131 56 -209 160 -209c102 0 166 78 166 209v331h166z" />
    <glyph glyph-name="v" unicode="v" horiz-adv-x="850" 
d="M817 680l-302 -680h-180l-301 680h181l211 -486l210 486h181z" />
    <glyph glyph-name="w" unicode="w" horiz-adv-x="1197" 
d="M984 680h176l-255 -680h-168l-143 443l-160 -443h-170l-226 680h175l141 -441l155 441h179l138 -439z" />
    <glyph glyph-name="wacute" unicode="&#x1e83;" horiz-adv-x="1197" 
d="M784 847l-319 -99l-49 99l316 131zM984 680h176l-255 -680h-168l-143 443l-160 -443h-170l-226 680h175l141 -441l155 441h179l138 -439z" />
    <glyph glyph-name="wcircumflex" unicode="&#x175;" horiz-adv-x="1197" 
d="M598 870l-165 -110l-71 86l236 142l236 -142l-71 -86zM984 680h176l-255 -680h-168l-143 443l-160 -443h-170l-226 680h175l141 -441l155 441h179l138 -439z" />
    <glyph glyph-name="wdieresis" unicode="&#x1e85;" horiz-adv-x="1197" 
d="M458 772c-51 0 -93 43 -93 93c0 53 42 96 93 96c53 0 95 -43 95 -96c0 -50 -42 -93 -95 -93zM738 772c-50 0 -93 43 -93 93c0 53 43 96 93 96c53 0 96 -43 96 -96c0 -50 -43 -93 -96 -93zM984 680h176l-255 -680h-168l-143 443l-160 -443h-170l-226 680h175l141 -441
l155 441h179l138 -439z" />
    <glyph glyph-name="wgrave" unicode="&#x1e81;" horiz-adv-x="1197" 
d="M781 855l-53 -102l-319 99l56 134zM984 680h176l-255 -680h-168l-143 443l-160 -443h-170l-226 680h175l141 -441l155 441h179l138 -439z" />
    <glyph glyph-name="x" unicode="x" horiz-adv-x="763" 
d="M165 -11l-117 119l228 225l-240 242l117 117l240 -242l247 242l117 -116l-249 -245l227 -226l-119 -118l-224 228z" />
    <glyph glyph-name="y" unicode="y" horiz-adv-x="831" 
d="M790 680l-292 -423v-257h-165v257l-290 423h189l185 -278l182 278h191z" />
    <glyph glyph-name="yacute" unicode="&#xfd;" horiz-adv-x="831" 
d="M233 847l316 131l52 -131l-319 -99zM790 680l-292 -423v-257h-165v257l-290 423h189l185 -278l182 278h191z" />
    <glyph glyph-name="ycircumflex" unicode="&#x177;" horiz-adv-x="831" 
d="M418 870l-165 -110l-71 86l236 142l236 -142l-71 -86zM790 680l-292 -423v-257h-165v257l-290 423h189l185 -278l182 278h191z" />
    <glyph glyph-name="ydieresis" unicode="&#xff;" horiz-adv-x="831" 
d="M276 961c53 0 95 -43 95 -96c0 -50 -42 -93 -95 -93c-51 0 -93 43 -93 93c0 53 42 96 93 96zM556 961c53 0 96 -43 96 -96c0 -50 -43 -93 -96 -93c-50 0 -93 43 -93 93c0 53 43 96 93 96zM790 680l-292 -423v-257h-165v257l-290 423h189l185 -278l182 278h191z" />
    <glyph glyph-name="ygrave" unicode="&#x1ef3;" horiz-adv-x="831" 
d="M229 852l56 134l316 -131l-53 -102zM790 680l-292 -423v-257h-165v257l-290 423h189l185 -278l182 278h191z" />
    <glyph glyph-name="z" unicode="z" horiz-adv-x="800" 
d="M717 680v-145l-428 -383h435v-152h-677v147l440 381h-414v152h644z" />
    <glyph glyph-name="zacute" unicode="&#x17a;" horiz-adv-x="800" 
d="M217 847l316 131l52 -131l-319 -99zM717 680v-145l-428 -383h435v-152h-677v147l440 381h-414v152h644z" />
    <glyph glyph-name="zcaron" unicode="&#x17e;" horiz-adv-x="800" 
d="M557 1003l71 -91l-226 -143l-226 143l71 91l155 -105zM717 680v-145l-428 -383h435v-152h-677v147l440 381h-414v152h644z" />
    <glyph glyph-name="zdotaccent" unicode="&#x17c;" horiz-adv-x="800" 
d="M407 956c53 0 95 -43 95 -96c0 -50 -42 -93 -95 -93c-51 0 -93 43 -93 93c0 53 42 96 93 96zM717 680v-145l-428 -383h435v-152h-677v147l440 381h-414v152h644z" />
    <glyph glyph-name="x.ss01" horiz-adv-x="763" 
d="M716 680l-238 -340l238 -340h-193l-141 202l-142 -202h-193l238 340l-238 340h193l142 -202l141 202h193z" />
    <glyph glyph-name="uni03BC" unicode="&#x3bc;" horiz-adv-x="743" 
d="M708 145l15 -126s-40 -33 -121 -33c-87 0 -120 37 -130 73c-7 -17 -60 -70 -140 -70c-37 0 -73 6 -107 20v-151h-154v683h154v-228c0 -110 13 -183 124 -183c85 0 115 53 122 139l2 271h160v-355c0 -64 75 -40 75 -40zM473 304v29v-29z" />
    <glyph glyph-name="zero" unicode="0" horiz-adv-x="724" 
d="M687 340c0 201 -127 352 -324 352c-201 0 -325 -151 -325 -352c0 -199 124 -352 325 -352c198 0 324 153 324 352zM521 340c0 -135 -83 -201 -158 -201s-159 66 -159 201c0 134 84 201 159 201s158 -67 158 -201z" />
    <glyph glyph-name="one" unicode="1" horiz-adv-x="455" 
d="M382 680v-680h-166v458c-39 -46 -138 -74 -141 -76l-35 152c41 21 140 63 176 146h166z" />
    <glyph glyph-name="two" unicode="2" horiz-adv-x="616" 
d="M308 692c171 0 256 -112 256 -236c0 -183 -277 -309 -277 -309h266v-147h-500v147s346 184 346 309c0 54 -38 86 -91 86c-54 0 -89 -44 -89 -102h-167c0 139 98 252 256 252z" />
    <glyph glyph-name="three" unicode="3" horiz-adv-x="637" 
d="M567 680v-136l-166 -144c106 -19 189 -81 189 -189c0 -118 -88 -223 -266 -223c-173 0 -272 120 -272 247h166c0 -64 50 -95 106 -95c55 0 99 25 99 71c0 79 -75 93 -193 93l-38 100l177 130h-293v146h491z" />
    <glyph glyph-name="four" unicode="4" horiz-adv-x="693" 
d="M532 680v-407h121v-152h-121v-121h-166v121h-282l-54 152l336 407h166zM366 480l-170 -207h170v207z" />
    <glyph glyph-name="five" unicode="5" horiz-adv-x="640" 
d="M560 680v-150h-325v-91c29 21 72 42 130 42c166 0 237 -128 237 -236c0 -166 -116 -257 -275 -257c-171 0 -278 134 -278 268h166c0 -66 44 -117 112 -117c50 0 110 29 110 106c0 78 -49 113 -101 113c-61 0 -95 -26 -121 -53h-146v375h491z" />
    <glyph glyph-name="six" unicode="6" horiz-adv-x="613" 
d="M332 693c117 0 201 -58 231 -74l-73 -124c-12 10 -73 51 -149 51c-101 0 -130 -73 -150 -147c25 27 63 67 150 67c108 0 232 -75 232 -230c0 -157 -117 -248 -259 -248c-160 0 -284 114 -284 331c0 177 73 374 302 374zM304 331c-57 0 -101 -37 -101 -93s43 -98 101 -98
c57 0 102 42 102 98s-45 93 -102 93z" />
    <glyph glyph-name="seven" unicode="7" horiz-adv-x="588" 
d="M546 536v144h-504v-152h319l-260 -528h178z" />
    <glyph glyph-name="eight" unicode="8" horiz-adv-x="625" 
d="M313 692c124 0 250 -58 250 -200c0 -54 -25 -97 -65 -128c54 -36 80 -88 80 -142c0 -157 -129 -234 -265 -234c-137 0 -266 77 -266 234c0 54 26 106 80 142c-40 31 -64 74 -64 128c0 142 125 200 250 200zM313 554c-51 0 -85 -30 -85 -73s34 -71 85 -71
c50 0 84 28 84 71s-34 73 -84 73zM313 309c-61 0 -100 -41 -100 -87c0 -47 39 -82 100 -82c60 0 99 35 99 82c0 46 -39 87 -99 87z" />
    <glyph glyph-name="nine" unicode="9" horiz-adv-x="634" 
d="M309 692c150 0 277 -112 277 -329c0 -177 -77 -375 -307 -375c-117 0 -205 58 -225 75l62 124c26 -18 81 -52 154 -52c84 0 137 74 155 148c-24 -27 -73 -67 -160 -67c-108 0 -221 75 -221 231s113 245 265 245zM313 542c-57 0 -103 -42 -103 -98s46 -93 103 -93
c56 0 101 37 101 93s-44 98 -101 98z" />
    <glyph glyph-name="three.ss01" horiz-adv-x="637" 
d="M314 692c147 0 267 -74 267 -201c0 -59 -44 -121 -86 -138c52 -22 86 -88 86 -142c0 -118 -89 -223 -267 -223s-267 120 -267 247h168c0 -73 34 -95 99 -95c55 0 100 25 100 71c0 58 -30 75 -106 80c-23 2 -51 2 -84 2v123c33 0 59 0 83 1c77 3 108 18 108 61
c0 45 -44 64 -101 64s-99 -19 -99 -66h-162c0 150 126 216 261 216z" />
    <glyph glyph-name="asterisk" unicode="*" horiz-adv-x="526" 
d="M496 554l-143 -44l97 -119l-115 -79l-71 113l-73 -113l-114 79l97 119l-144 44l44 134l129 -60l-9 142h139l-8 -142l127 60z" />
    <glyph glyph-name="backslash" unicode="\" horiz-adv-x="467" 
d="M410 0h-174l-179 680h173z" />
    <glyph glyph-name="periodcentered" unicode="&#xb7;" horiz-adv-x="281" 
d="M139 393c55 0 100 -45 100 -99c0 -53 -45 -97 -100 -97c-52 0 -96 44 -96 97c0 54 44 99 96 99z" />
    <glyph glyph-name="bullet" unicode="&#x2022;" horiz-adv-x="375" 
d="M185 441c83 0 147 -65 147 -147c0 -77 -64 -143 -147 -143c-76 0 -142 66 -142 143c0 82 66 147 142 147z" />
    <glyph glyph-name="colon" unicode=":" horiz-adv-x="272" 
d="M134 578c55 0 100 -45 100 -100c0 -52 -45 -96 -100 -96c-52 0 -96 44 -96 96c0 55 44 100 96 100zM134 311c55 0 100 -45 100 -100c0 -52 -45 -96 -100 -96c-52 0 -96 44 -96 96c0 55 44 100 96 100z" />
    <glyph glyph-name="comma" unicode="," horiz-adv-x="275" 
d="M263 32l-137 107l-139 -216l99 -78z" />
    <glyph glyph-name="ellipsis" unicode="&#x2026;" horiz-adv-x="698" 
d="M130 184c55 0 99 -45 99 -100c0 -52 -44 -96 -99 -96c-52 0 -97 44 -97 96c0 55 45 100 97 100zM348 184c54 0 99 -45 99 -100c0 -52 -45 -96 -99 -96c-53 0 -97 44 -97 96c0 55 44 100 97 100zM565 184c55 0 100 -45 100 -100c0 -52 -45 -96 -100 -96
c-52 0 -96 44 -96 96c0 55 44 100 96 100z" />
    <glyph glyph-name="exclam" unicode="!" horiz-adv-x="295" 
d="M230 680l-9 -453h-147l-10 453h166zM146 184c55 0 99 -45 99 -100c0 -52 -44 -96 -99 -96c-52 0 -97 44 -97 96c0 55 45 100 97 100z" />
    <glyph glyph-name="exclamdown" unicode="&#xa1;" horiz-adv-x="314" 
d="M158 693c52 0 97 -44 97 -96c0 -55 -45 -100 -97 -100c-55 0 -99 45 -99 100c0 52 44 96 99 96zM230 455l10 -455h-166l9 455h147z" />
    <glyph glyph-name="numbersign" unicode="#" horiz-adv-x="746" 
d="M589 365v-74h110v-142h-110v-113h-156v113h-120v-113h-156v113h-110v142h110v74h-110v142h110v112h156v-112h120v112h156v-112h110v-142h-110zM433 365h-120v-74h120v74z" />
    <glyph glyph-name="period" unicode="." horiz-adv-x="272" 
d="M134 184c55 0 100 -45 100 -100c0 -52 -45 -96 -100 -96c-52 0 -96 44 -96 96c0 55 44 100 96 100z" />
    <glyph glyph-name="question" unicode="?" horiz-adv-x="604" 
d="M308 692c172 0 251 -91 251 -201c0 -176 -189 -169 -189 -264h-178c0 163 201 153 201 235c0 47 -42 80 -95 80s-92 -39 -92 -78h-165c0 139 101 228 267 228zM284 184c55 0 100 -45 100 -100c0 -52 -45 -96 -100 -96c-52 0 -96 44 -96 96c0 55 44 100 96 100z" />
    <glyph glyph-name="questiondown" unicode="&#xbf;" horiz-adv-x="572" 
d="M303 498c-55 0 -100 45 -100 100c0 52 45 96 100 96c52 0 96 -44 96 -96c0 -55 -44 -100 -96 -100zM279 -10c-172 0 -251 91 -251 201c0 176 189 169 189 264h178c0 -163 -201 -153 -201 -235c0 -47 42 -80 95 -80s92 39 92 78h165c0 -139 -101 -228 -267 -228z" />
    <glyph glyph-name="quotedbl" unicode="&#x22;" horiz-adv-x="533" 
d="M221 680h-174l24 -256h126zM486 680h-173l23 -256h126z" />
    <glyph glyph-name="quotesingle" unicode="'" horiz-adv-x="268" 
d="M221 680h-174l24 -256h126z" />
    <glyph glyph-name="semicolon" unicode=";" horiz-adv-x="275" 
d="M130 451c55 0 99 -45 99 -100c0 -52 -44 -96 -99 -96c-52 0 -97 44 -97 96c0 55 45 100 97 100zM263 32l-137 107l-139 -216l99 -78z" />
    <glyph glyph-name="slash" unicode="/" horiz-adv-x="467" 
d="M410 680l-179 -680h-174l180 680h173z" />
    <glyph glyph-name="underscore" unicode="_" horiz-adv-x="823" 
d="M776 -151h-729v128h729v-128z" />
    <glyph glyph-name="braceleft" unicode="{" horiz-adv-x="388" 
d="M313 680v-680h-166v199l-109 147l109 146v188h166z" />
    <glyph glyph-name="braceright" unicode="}" horiz-adv-x="388" 
d="M241 492l109 -146l-109 -147v-199h-165v680h165v-188z" />
    <glyph glyph-name="bracketleft" unicode="[" horiz-adv-x="371" 
d="M241 528v-376h81v-152h-246v680h246v-152h-81z" />
    <glyph glyph-name="bracketright" unicode="]" horiz-adv-x="371" 
d="M49 680h246v-680h-246v152h81v376h-81v152z" />
    <glyph glyph-name="parenleft" unicode="(" horiz-adv-x="376" 
d="M199 748l132 -83s-109 -159 -109 -319s112 -319 112 -319l-135 -84s-142 125 -142 403c0 277 142 402 142 402z" />
    <glyph glyph-name="parenright" unicode=")" horiz-adv-x="382" 
d="M183 748c0 0 142 -125 142 -402c0 -278 -142 -403 -142 -403l-136 84s113 159 113 319s-110 319 -110 319z" />
    <glyph glyph-name="emdash" unicode="&#x2014;" horiz-adv-x="925" 
d="M878 417v-152h-831v152h831z" />
    <glyph glyph-name="endash" unicode="&#x2013;" horiz-adv-x="576" 
d="M528 417v-152h-481v152h481z" />
    <glyph glyph-name="hyphen" unicode="-" horiz-adv-x="463" 
d="M416 417v-152h-369v152h369z" />
    <glyph glyph-name="uni00AD" unicode="&#xad;" horiz-adv-x="568" 
d="M416 417v-152h-369v152h369z" />
    <glyph glyph-name="guillemotleft" unicode="&#xab;" horiz-adv-x="660" 
d="M334 245l-106 105l106 106l-95 86l-192 -192l192 -191zM613 245l-106 105l106 106l-96 86l-191 -192l191 -191z" />
    <glyph glyph-name="guillemotright" unicode="&#xbb;" horiz-adv-x="660" 
d="M334 350l-191 192l-96 -86l106 -106l-106 -105l96 -86zM613 350l-192 192l-95 -86l106 -106l-106 -105l95 -86z" />
    <glyph glyph-name="guilsinglleft" unicode="&#x2039;" horiz-adv-x="382" 
d="M239 542l95 -86l-106 -106l106 -105l-95 -86l-192 191z" />
    <glyph glyph-name="guilsinglright" unicode="&#x203a;" horiz-adv-x="382" 
d="M334 350l-191 192l-96 -86l106 -106l-106 -105l96 -86z" />
    <glyph glyph-name="quotedblbase" unicode="&#x201e;" horiz-adv-x="482" 
d="M201 133h-174l24 -256h126zM466 133h-173l23 -256h126z" />
    <glyph glyph-name="quotedblleft" unicode="&#x201c;" horiz-adv-x="533" 
d="M221 680h-174l24 -256h126zM486 680h-173l23 -256h126z" />
    <glyph glyph-name="quotedblright" unicode="&#x201d;" horiz-adv-x="533" 
d="M221 680h-174l24 -256h126zM486 680h-173l23 -256h126z" />
    <glyph glyph-name="quoteleft" unicode="&#x2018;" horiz-adv-x="268" 
d="M221 680h-174l24 -256h126z" />
    <glyph glyph-name="quoteright" unicode="&#x2019;" horiz-adv-x="268" 
d="M221 680h-174l24 -256h126z" />
    <glyph glyph-name="cent" unicode="&#xa2;" horiz-adv-x="598" 
d="M434 203l134 -82c-51 -82 -139 -133 -246 -133c-48 0 -93 10 -132 29l-37 -58l-84 54l41 64c-45 48 -72 115 -72 191c0 156 120 284 283 284c29 0 57 -5 84 -13l32 51l84 -54l-28 -44c29 -22 53 -49 73 -80l-133 -81c-6 11 -14 22 -23 31l-139 -218c16 -6 33 -10 51 -10
c47 0 89 29 112 69zM194 268c0 -17 3 -33 7 -47l119 185c-68 -1 -126 -60 -126 -138z" />
    <glyph glyph-name="currency" unicode="&#xa4;" horiz-adv-x="739" 
d="M591 698l107 -107l-71 -71c25 -45 41 -96 41 -151s-16 -106 -41 -150l71 -71l-107 -107l-71 71c-45 -26 -96 -41 -151 -41s-106 15 -150 41l-71 -71l-107 107l70 71c-26 43 -41 95 -41 150s15 107 41 151l-70 71l107 107l71 -70c44 25 95 41 150 41s107 -16 151 -41z
M369 517c-81 0 -147 -66 -147 -148c0 -81 65 -147 147 -147c109 0 148 90 148 147c0 79 -65 148 -148 148z" />
    <glyph glyph-name="dollar" unicode="$" horiz-adv-x="664" 
d="M620 199c0 -112 -85 -188 -210 -206v-99h-147v102c-153 32 -218 151 -218 242h163s13 -108 148 -108c73 0 100 31 100 60c0 43 -57 58 -120 73c-102 24 -281 62 -281 213c0 105 87 187 208 210v107h147v-110c126 -29 193 -129 193 -218h-163c0 34 -40 80 -110 80
c-49 0 -109 -22 -109 -61c0 -33 45 -46 141 -71c107 -28 258 -64 258 -214z" />
    <glyph glyph-name="Euro" unicode="&#x20ac;" horiz-adv-x="718" 
d="M393 692c205 0 292 -137 292 -137l-134 -90s-52 74 -158 74c-41 0 -85 -20 -113 -73h202v-111h-225v-29h225v-111h-202c28 -53 72 -73 113 -73c106 0 158 73 158 73l134 -91s-93 -136 -292 -136c-128 0 -250 58 -290 227h-75v111h63v29h-63v111h75
c40 168 162 226 290 226z" />
    <glyph glyph-name="sterling" unicode="&#xa3;" horiz-adv-x="643" 
d="M342 692c210 0 261 -154 261 -244h-166c0 61 -28 93 -95 93c-51 0 -95 -26 -95 -59c0 -40 19 -63 35 -95h220v-151h-189c-2 -26 -16 -60 -35 -80h323v-156h-551v143c24 5 97 51 97 93h-107v151h72c-17 36 -30 66 -30 104c0 122 101 201 260 201z" />
    <glyph glyph-name="yen" unicode="&#xa5;" horiz-adv-x="867" 
d="M595 371h93v-132h-172v-41h172v-123h-172v-75h-166v75h-172v123h172v41h-172v132h95l-214 309h190l185 -286l183 286h191z" />
    <glyph glyph-name="approxequal" unicode="&#x2248;" horiz-adv-x="550" 
d="M166 545c69 0 145 -44 197 -43c71 1 108 30 108 30l41 -130c0 -4 -58 -66 -149 -66c-60 0 -122 41 -195 41c-54 0 -99 -25 -99 -25l-31 149c1 2 60 44 128 44zM166 305c71 0 145 -44 197 -43c71 1 108 31 108 31l41 -131c0 -4 -58 -65 -149 -65c-60 0 -122 40 -195 40
c-54 0 -99 -24 -99 -24l-31 148c1 2 60 44 128 44z" />
    <glyph glyph-name="asciitilde" unicode="~" horiz-adv-x="550" 
d="M166 450c69 0 145 -44 197 -43c71 1 108 31 108 31l41 -122c0 -3 -58 -65 -149 -65c-60 0 -122 41 -195 41c-54 0 -99 -25 -99 -25l-31 139c1 2 60 44 128 44z" />
    <glyph glyph-name="divide" unicode="&#xf7;" horiz-adv-x="581" 
d="M290 614c57 0 106 -47 106 -106c0 -61 -51 -106 -106 -106c-56 0 -106 45 -106 106c0 60 49 106 106 106zM543 365v-152h-505v152h505zM290 176c57 0 106 -46 106 -106c0 -61 -51 -106 -106 -106c-56 0 -106 45 -106 106s49 106 106 106z" />
    <glyph glyph-name="equal" unicode="=" horiz-adv-x="568" 
d="M543 492v-151h-505v151h505zM543 256v-152h-505v152h505z" />
    <glyph glyph-name="greater" unicode="&#x3e;" horiz-adv-x="457" 
d="M44 189l187 130l-187 130v183l381 -249v-137l-381 -239v182z" />
    <glyph glyph-name="less" unicode="&#x3c;" horiz-adv-x="457" 
d="M32 246v137l382 249v-183l-188 -130l188 -130v-182z" />
    <glyph glyph-name="logicalnot" unicode="&#xac;" horiz-adv-x="598" 
d="M560 367v-215h-166v64h-358v151h524z" />
    <glyph glyph-name="minus" unicode="&#x2212;" horiz-adv-x="581" 
d="M543 369v-151h-505v151h505z" />
    <glyph glyph-name="multiply" unicode="&#xd7;" horiz-adv-x="540" 
d="M395 528l107 -107l-125 -125l125 -125l-107 -107l-125 125l-125 -125l-107 107l125 125l-125 125l107 107l125 -125z" />
    <glyph glyph-name="notequal" unicode="&#x2260;" horiz-adv-x="581" 
d="M449 534l-27 -105h121v-152h-159l-22 -85h181v-151h-220l-28 -106h-164l27 106h-120v151h159l22 85h-181v152h220l27 105h164z" />
    <glyph glyph-name="percent" unicode="%" horiz-adv-x="864" 
d="M183 692c84 0 160 -70 160 -159c0 -91 -78 -160 -160 -160c-85 0 -160 69 -160 160s74 159 160 159zM709 680l-409 -680h-165l410 680h164zM183 568c-19 0 -35 -15 -35 -35s16 -36 35 -36c18 0 35 16 35 36c0 19 -17 35 -35 35zM681 308c85 0 160 -70 160 -160
s-77 -160 -160 -160c-84 0 -160 70 -160 160c0 92 75 160 160 160zM681 184c-18 0 -35 -15 -35 -36c0 -19 17 -35 35 -35c19 0 35 16 35 35c0 20 -16 36 -35 36z" />
    <glyph glyph-name="perthousand" unicode="&#x2030;" horiz-adv-x="1212" 
d="M188 692c86 0 160 -70 160 -160s-76 -160 -160 -160s-160 70 -160 160c0 92 75 160 160 160zM719 680l-409 -680h-165l410 680h164zM188 568c-18 0 -35 -15 -35 -36c0 -19 17 -35 35 -35c19 0 35 16 35 35c0 20 -16 36 -35 36zM681 308c85 0 160 -70 160 -160
s-77 -160 -160 -160c-84 0 -160 70 -160 160c0 92 75 160 160 160zM1033 308c85 0 160 -70 160 -160s-76 -160 -160 -160s-160 70 -160 160c0 92 75 160 160 160zM681 184c-18 0 -35 -15 -35 -36c0 -19 17 -35 35 -35c19 0 35 16 35 35c0 20 -16 36 -35 36zM1033 184
c-18 0 -35 -15 -35 -36c0 -19 17 -35 35 -35c19 0 35 16 35 35c0 20 -16 36 -35 36z" />
    <glyph glyph-name="plus" unicode="+" horiz-adv-x="562" 
d="M364 530v-156h160v-151h-160v-157h-166v157h-160v151h160v156h166z" />
    <glyph glyph-name="plusminus" unicode="&#xb1;" horiz-adv-x="524" 
d="M345 613v-114h131v-151h-131v-114h-166v114h-132v151h132v114h166zM476 178v-151h-429v151h429z" />
    <glyph glyph-name="approxequal.case" horiz-adv-x="569" 
d="M175 566c69 0 145 -43 197 -42c71 1 108 30 108 30l42 -131c0 -3 -59 -65 -150 -65c-59 0 -121 41 -195 41c-54 0 -98 -25 -98 -25l-32 149c1 2 60 43 128 43zM175 327c71 0 145 -44 197 -43c71 1 108 30 108 30l42 -130c0 -4 -59 -66 -150 -66c-59 0 -121 41 -195 41
c-54 0 -98 -25 -98 -25l-32 149c1 2 60 44 128 44z" />
    <glyph glyph-name="divide.case" horiz-adv-x="568" 
d="M290 680c57 0 106 -46 106 -106c0 -61 -51 -106 -106 -106c-56 0 -106 45 -106 106c0 60 49 106 106 106zM543 431v-152h-505v152h505zM290 242c57 0 106 -46 106 -106s-51 -106 -106 -106c-56 0 -106 46 -106 106c0 61 49 106 106 106z" />
    <glyph glyph-name="equal.case" horiz-adv-x="599" 
d="M552 533v-151h-505v151h505zM552 296v-151h-505v151h505z" />
    <glyph glyph-name="greater.case" horiz-adv-x="448" 
d="M34 211l188 130l-188 130v182l382 -249v-136l-382 -240v183z" />
    <glyph glyph-name="less.case" horiz-adv-x="448" 
d="M32 268v136l382 249v-182l-188 -130l188 -130v-183z" />
    <glyph glyph-name="logicalnot.case" horiz-adv-x="599" 
d="M560 425v-216h-166v65h-358v151h524z" />
    <glyph glyph-name="minus.case" horiz-adv-x="581" 
d="M533 417v-152h-486v152h486z" />
    <glyph glyph-name="multiply.case" horiz-adv-x="540" 
d="M395 573l107 -107l-125 -125l125 -125l-107 -107l-125 125l-125 -125l-107 107l125 125l-125 125l107 107l125 -125z" />
    <glyph glyph-name="notequal.case" horiz-adv-x="568" 
d="M411 638l-27 -105h121v-151h-159l-22 -86h181v-151h-220l-27 -106h-165l27 106h-120v151h159l22 86h-181v151h220l27 105h164z" />
    <glyph glyph-name="plus.case" horiz-adv-x="581" 
d="M373 573v-156h160v-152h-160v-156h-166v156h-160v152h160v156h166z" />
    <glyph glyph-name="plusminus.case" horiz-adv-x="524" 
d="M345 611v-114h131v-151h-131v-114h-166v114h-132v151h132v114h166zM476 176v-151h-429v151h429z" />
    <glyph glyph-name="arrowup" unicode="&#x2191;" horiz-adv-x="667" 
d="M501 361l-85 80v-586h-166v586l-84 -80l-114 121l281 248l282 -248z" />
    <glyph glyph-name="arrowright" horiz-adv-x="922" 
d="M903 293l-248 -282l-121 114l81 84h-587v166h587l-81 85l121 114z" />
    <glyph glyph-name="arrowdown" unicode="&#x2193;" horiz-adv-x="667" 
d="M416 730v-586l85 80l114 -121l-282 -248l-281 248l114 121l84 -80v586h166z" />
    <glyph glyph-name="arrowleft" horiz-adv-x="922" 
d="M388 460l-80 -85h586v-166h-586l80 -84l-121 -114l-248 282l248 281z" />
    <glyph glyph-name="bar" unicode="|" horiz-adv-x="317" 
d="M241 788v-894h-165v894h165z" />
    <glyph glyph-name="brokenbar" unicode="&#xa6;" horiz-adv-x="313" 
d="M74 415v373h166v-373h-166zM240 267v-373h-166v373h166z" />
    <glyph glyph-name="at" unicode="@" horiz-adv-x="833" 
d="M416 697c237 0 376 -162 376 -349c0 -122 -72 -179 -160 -179c-69 0 -113 35 -132 64c-14 -23 -50 -64 -115 -64c-85 0 -162 69 -162 175c0 105 77 166 162 166c53 0 85 -24 104 -46v39h98v-159c0 -66 13 -94 52 -94c44 0 65 36 67 105c-8 145 -105 260 -289 260
c-170 0 -290 -122 -290 -274s130 -274 291 -274c39 0 79 7 114 23l62 -63c-53 -26 -113 -42 -178 -42c-207 0 -374 160 -374 356c0 197 158 356 374 356zM414 420c-41 0 -76 -35 -76 -80s34 -81 76 -81s75 36 75 81s-34 80 -75 80z" />
    <glyph glyph-name="ampersand" unicode="&#x26;" horiz-adv-x="729" 
d="M319 692c199 0 255 -137 255 -212h-156c0 35 -25 80 -90 80c-39 0 -78 -16 -78 -46c0 -34 51 -82 81 -109c17 -15 94 -83 164 -146c3 17 5 34 5 72h156c0 -76 -13 -131 -39 -179l72 -64l-113 -98l-58 52c-49 -33 -110 -54 -190 -54c-158 0 -279 82 -279 204
c0 72 43 129 94 177c-34 31 -68 84 -68 143c0 92 85 180 244 180zM252 274c-18 -16 -31 -35 -31 -61c0 -49 48 -83 114 -83c20 0 47 3 68 12z" />
    <glyph glyph-name="paragraph" unicode="&#xb6;" horiz-adv-x="769" 
d="M476 680v-680h-165v137c-146 0 -264 125 -264 272c0 148 111 271 264 271h165zM693 680v-680h-166v680h166z" />
    <glyph glyph-name="copyright" unicode="&#xa9;" horiz-adv-x="1022" 
d="M511 817c266 0 482 -216 482 -483c0 -266 -216 -482 -482 -482c-267 0 -483 216 -483 482c0 267 216 483 483 483zM511 -53c214 0 388 173 388 387s-174 389 -388 389c-215 0 -388 -175 -388 -389s173 -387 388 -387zM614 288l124 -71c-44 -71 -122 -122 -228 -122
c-154 0 -263 117 -263 249s109 243 263 243c106 0 186 -47 229 -118l-123 -71c-18 35 -53 58 -106 58c-71 0 -115 -46 -115 -112c0 -61 44 -114 115 -114c52 0 86 24 104 58z" />
    <glyph glyph-name="registered" unicode="&#xae;" horiz-adv-x="1022" 
d="M511 816c266 0 482 -216 482 -483c0 -266 -216 -482 -482 -482c-267 0 -483 216 -483 482c0 267 216 483 483 483zM511 -54c214 0 388 173 388 387s-174 389 -388 389c-215 0 -388 -175 -388 -389s173 -387 388 -387zM552 572c98 0 170 -76 170 -182
c0 -66 -41 -123 -90 -152l95 -143h-147l-67 114h-73v-114h-127v477h239zM533 456h-93v-130h88c35 0 66 30 66 64c0 33 -28 66 -61 66z" />
    <glyph glyph-name="section" unicode="&#xa7;" horiz-adv-x="609" 
d="M304 738c169 0 244 -113 244 -198h-156c0 28 -31 67 -94 67c-42 0 -80 -7 -80 -33c0 -27 57 -38 104 -51c94 -26 238 -53 238 -177c0 -50 -16 -89 -51 -119c31 -23 51 -57 51 -104c0 -106 -79 -170 -246 -170c-190 0 -265 133 -265 211h158s12 -88 116 -88
c61 0 77 22 77 36c0 31 -51 42 -101 58c-117 35 -242 52 -242 178c0 42 21 82 58 110c-35 24 -58 58 -58 112c0 94 100 168 247 168zM310 392c-52 0 -100 -20 -100 -49c0 -28 45 -49 100 -49c69 0 98 27 98 49c0 27 -44 49 -98 49z" />
    <glyph glyph-name="trademark" unicode="&#x2122;" horiz-adv-x="1039" 
d="M999 680v-410h-109v190l-87 -190h-122l-88 190v-190h-109v410h122l135 -291l137 291h121zM423 679v-99h-140v-310h-109v310h-142v99h391z" />
    <glyph glyph-name="degree" unicode="&#xb0;" horiz-adv-x="317" 
d="M158 750c80 0 142 -62 142 -140c0 -80 -63 -141 -142 -141c-78 0 -141 61 -141 141c0 78 63 140 141 140zM158 669c-32 0 -60 -26 -60 -59c0 -34 28 -59 60 -59s60 25 60 59c0 33 -28 59 -60 59z" />
    <glyph glyph-name="asciicircum" unicode="^" horiz-adv-x="449" 
d="M229 551l-153 -88l-38 118l191 105l182 -105l-38 -118z" />
    <glyph glyph-name="dagger" unicode="&#x2020;" horiz-adv-x="543" 
d="M354 643v-152h151v-152h-151v-319h-166v319h-150v152h150v152h166z" />
    <glyph glyph-name="daggerdbl" unicode="&#x2021;" horiz-adv-x="543" 
d="M505 339h-151v-53h151v-152h-151v-114h-166v114h-150v152h150v53h-150v152h150v152h166v-152h151v-152z" />
    <glyph glyph-name="bar.case" horiz-adv-x="317" 
d="M241 750v-809h-165v809h165z" />
    <glyph glyph-name="brokenbar.case" horiz-adv-x="317" 
d="M76 415v373h165v-373h-165zM241 267v-373h-165v373h165z" />
    <glyph glyph-name="at.case" horiz-adv-x="833" 
d="M417 697c226 0 375 -159 375 -356c0 -109 -72 -171 -156 -171c-80 0 -118 37 -136 63c-14 -23 -50 -63 -115 -63c-75 0 -162 52 -162 168c0 117 87 172 162 172c53 0 85 -23 104 -46v40h98v-159c0 -65 13 -95 57 -95c40 0 60 36 62 105c-8 145 -115 261 -289 261
c-170 0 -290 -123 -290 -275s130 -274 290 -274c40 0 80 8 115 23l62 -63c-53 -26 -114 -41 -177 -41c-208 0 -375 159 -375 355c0 197 157 356 375 356zM412 421c-38 0 -74 -35 -74 -81c0 -44 36 -80 74 -80c45 0 77 36 77 80c0 46 -32 81 -77 81z" />
    <glyph glyph-name="ampersand.ss01" horiz-adv-x="764" 
d="M724 436v-142h-75c-2 -179 -71 -370 -306 -370c-195 0 -293 131 -293 257c0 130 104 183 146 210c-40 28 -109 87 -109 183c0 114 98 187 235 187c210 0 268 -172 268 -237h-172c0 47 -30 81 -85 81c-41 0 -77 -19 -79 -66c-3 -61 57 -96 142 -102c107 -7 232 -1 328 -1z
M344 84c116 0 145 81 146 210c-164 0 -263 -29 -263 -113c0 -68 48 -97 117 -97z" />
    <glyph glyph-name="uni0326" unicode="&#x326;" horiz-adv-x="0" 
d="M-22 -174l-137 107l-139 -216l99 -78z" />
    <glyph glyph-name="acute" unicode="&#xb4;" horiz-adv-x="433" 
d="M34 695l316 131l52 -131l-319 -99z" />
    <glyph glyph-name="breve" unicode="&#x2d8;" horiz-adv-x="420" 
d="M383 677c-26 -70 -93 -122 -176 -122c-76 0 -144 52 -169 122l100 49c16 -31 42 -53 71 -53c31 0 58 22 73 53z" />
    <glyph glyph-name="caron" unicode="&#x2c7;" horiz-adv-x="538" 
d="M424 761l71 -91l-226 -143l-226 143l71 91l155 -105z" />
    <glyph glyph-name="cedilla" unicode="&#xb8;" horiz-adv-x="430" 
d="M199 -330l-146 61l143 217h145z" />
    <glyph glyph-name="circumflex" unicode="&#x2c6;" horiz-adv-x="538" 
d="M269 649l-165 -110l-71 86l236 142l236 -142l-71 -86z" />
    <glyph glyph-name="dieresis" unicode="&#xa8;" horiz-adv-x="545" 
d="M131 772c53 0 95 -43 95 -96c0 -50 -42 -93 -95 -93c-51 0 -93 43 -93 93c0 53 42 96 93 96zM411 772c53 0 96 -43 96 -96c0 -50 -43 -93 -96 -93c-50 0 -93 43 -93 93c0 53 43 96 93 96z" />
    <glyph glyph-name="dotaccent" unicode="&#x2d9;" horiz-adv-x="264" 
d="M131 772c53 0 95 -43 95 -96c0 -50 -42 -93 -95 -93c-51 0 -93 43 -93 93c0 53 42 96 93 96z" />
    <glyph glyph-name="grave" unicode="`" horiz-adv-x="433" 
d="M30 695l56 134l316 -131l-53 -102z" />
    <glyph glyph-name="hungarumlaut" unicode="&#x2dd;" horiz-adv-x="613" 
d="M43 504l141 198l141 -14l-174 -200zM302 504l141 198l141 -14l-174 -200z" />
    <glyph glyph-name="macron" unicode="&#xaf;" horiz-adv-x="532" 
d="M488 630h-447v132h447v-132z" />
    <glyph glyph-name="ogonek" unicode="&#x2db;" horiz-adv-x="330" 
d="M275 17c-38 -30 -61 -65 -61 -92c0 -26 54 -60 55 -60l-90 -68c-57 0 -138 38 -138 104c0 61 61 96 93 116h141z" />
    <glyph glyph-name="ring" unicode="&#x2da;" horiz-adv-x="318" 
d="M157 810c68 0 123 -55 123 -123c0 -65 -55 -120 -123 -120c-64 0 -119 55 -119 120c0 68 55 123 119 123zM158 724c-19 0 -35 -16 -35 -36c0 -19 16 -36 35 -36c21 0 37 17 37 36c0 20 -16 36 -37 36z" />
    <glyph glyph-name="tilde" unicode="&#x2dc;" horiz-adv-x="568" 
d="M166 750c86 0 130 -43 197 -43c71 0 108 31 108 31l41 -106c0 -4 -58 -66 -149 -66c-76 0 -122 41 -195 41c-54 0 -99 -25 -99 -25l-31 124c1 2 60 44 128 44z" />
    <glyph glyph-name="FT" horiz-adv-x="1037" 
d="M1018 680v-152h-241v-528h-166v528h-398v-155h298v-151h-298v-222h-166v680h971z" />
    </font>
</defs>
</svg>
